<?xml version="1.0" encoding="UTF-8" standalone="no"?>
<svg
   xmlns:dc="http://purl.org/dc/elements/1.1/"
   xmlns:cc="http://creativecommons.org/ns#"
   xmlns:rdf="http://www.w3.org/1999/02/22-rdf-syntax-ns#"
   xmlns:svg="http://www.w3.org/2000/svg"
   xmlns="http://www.w3.org/2000/svg"
   xmlns:sodipodi="http://sodipodi.sourceforge.net/DTD/sodipodi-0.dtd"
   xmlns:inkscape="http://www.inkscape.org/namespaces/inkscape"
   viewBox="0 0 375.60851 207.27026"
   height="207.27026"
   width="375.60852"
   xml:space="preserve"
   id="svg2"
   version="1.1"
   sodipodi:docname="LOGO-2-QUADRI.svg"
   inkscape:version="0.92.2 5c3e80d, 2017-08-06"><sodipodi:namedview
     pagecolor="#ffffff"
     bordercolor="#666666"
     borderopacity="1"
     objecttolerance="10"
     gridtolerance="10"
     guidetolerance="10"
     inkscape:pageopacity="0"
     inkscape:pageshadow="2"
     inkscape:window-width="1280"
     inkscape:window-height="669"
     id="namedview177"
     showgrid="false"
     fit-margin-top="5"
     fit-margin-left="5"
     fit-margin-right="5"
     fit-margin-bottom="5"
     inkscape:zoom="0.84100893"
     inkscape:cx="81.781699"
     inkscape:cy="152.22269"
     inkscape:window-x="0"
     inkscape:window-y="1"
     inkscape:window-maximized="1"
     inkscape:current-layer="svg2" /><metadata
     id="metadata8"><rdf:RDF><cc:Work
         rdf:about=""><dc:format>image/svg+xml</dc:format><dc:type
           rdf:resource="http://purl.org/dc/dcmitype/StillImage" /><dc:title></dc:title></cc:Work></rdf:RDF></metadata><defs
     id="defs6"><clipPath
       id="clipPath18"
       clipPathUnits="userSpaceOnUse"><path
         id="path16"
         d="m 414.296,690.651 c 0,0 -0.154,-98.635 -0.154,-117.541 v 0 c 0,0 35.182,-14.832 41.551,-16.914 v 0 l 14.137,-5.946 3.616,1.31 4.13,1.719 c 9.485,3.993 11.38,4.568 22.031,9.173 v 0 c 6.207,2.684 25.754,10.658 25.754,10.658 v 0 117.541 z"
         inkscape:connector-curvature="0" /></clipPath><clipPath
       id="clipPath46"
       clipPathUnits="userSpaceOnUse"><path
         id="path44"
         d="M 0,1190.551 H 841.89 V 0 H 0 Z"
         inkscape:connector-curvature="0" /></clipPath></defs><g
     clip-path="url(#clipPath18)"
     id="g14"
     transform="matrix(1.3333333,0,0,-1.3333333,-330.00679,935.59864)"><g
       transform="translate(529.1699,548.8178)"
       id="g20"><path
         id="path22"
         style="fill:#f9a70d;fill-opacity:1;fill-rule:nonzero;stroke:none"
         d="M 0,0 -0.358,156.179 H -118.927 L -118.569,0 Z"
         inkscape:connector-curvature="0" /></g><g
       transform="translate(525.041,564.5141)"
       id="g24"><path
         id="path26"
         style="fill:#ffffff;fill-opacity:1;fill-rule:nonzero;stroke:none"
         d="m 0,0 3.809,67.153 -58.549,0.006 0.065,-82.209 z"
         inkscape:connector-curvature="0" /></g><path
       id="path28"
       style="fill:#ed1c24;fill-opacity:1;fill-rule:nonzero;stroke:none"
       d="m 426.465,704.982 h -6.089 V 566.905 h 6.089 z"
       inkscape:connector-curvature="0" /><path
       id="path30"
       style="fill:#ed1c24;fill-opacity:1;fill-rule:nonzero;stroke:none"
       d="m 438.818,704.982 h -6.089 V 561.801 h 6.089 z"
       inkscape:connector-curvature="0" /><path
       id="path32"
       style="fill:#ed1c24;fill-opacity:1;fill-rule:nonzero;stroke:none"
       d="m 451.172,705 h -6.089 V 556.339 h 6.089 z"
       inkscape:connector-curvature="0" /><path
       id="path34"
       style="fill:#ed1c24;fill-opacity:1;fill-rule:nonzero;stroke:none"
       d="m 463.522,705 h -6.09 V 551.862 h 6.09 z"
       inkscape:connector-curvature="0" /></g><path
     id="path38"
     style="fill:none;stroke:#231f20;stroke-width:0.67866665;stroke-linecap:round;stroke-linejoin:round;stroke-miterlimit:4;stroke-dasharray:none;stroke-opacity:1"
     d="M 370.26919,171.45226 V 14.744264 H 222.18386 V 171.45226 l 74.87733,30.47867 z"
     inkscape:connector-curvature="0" /><g
     clip-path="url(#clipPath46)"
     id="g42"
     transform="matrix(1.3333333,0,0,-1.3333333,-330.00679,935.59864)"><g
       transform="translate(514.5928,583.7319)"
       id="g48"><path
         id="path50"
         style="fill:#231f20;fill-opacity:1;fill-rule:nonzero;stroke:#ffffff;stroke-width:0.034;stroke-linecap:butt;stroke-linejoin:miter;stroke-miterlimit:4;stroke-dasharray:none;stroke-opacity:1"
         d="m 0,0 c -0.941,7.246 -3.995,11.742 -7.444,11.742 -3.495,0 -6.529,-5.259 -7.403,-12.888"
         inkscape:connector-curvature="0" /></g><g
       transform="translate(495.7373,582.517)"
       id="g52"><path
         id="path54"
         style="fill:#231f20;fill-opacity:1;fill-rule:nonzero;stroke:#ffffff;stroke-width:0.034;stroke-linecap:butt;stroke-linejoin:miter;stroke-miterlimit:4;stroke-dasharray:none;stroke-opacity:1"
         d="m 0,0 c -0.76,7.905 -3.948,12.87 -7.573,12.87 -3.348,0 -6.265,-4.817 -7.278,-11.915"
         inkscape:connector-curvature="0" /></g><g
       transform="translate(504.3896,583.227)"
       id="g56"><path
         id="path58"
         style="fill:#231f20;fill-opacity:1;fill-rule:nonzero;stroke:#ffffff;stroke-width:0.085;stroke-linecap:butt;stroke-linejoin:miter;stroke-miterlimit:4;stroke-dasharray:none;stroke-opacity:1"
         d="m 0,0 c -1.338,5.181 -3.927,8.27 -6.783,8.27 -2.818,0 -5.34,-3.421 -6.667,-8.751"
         inkscape:connector-curvature="0" /></g><g
       transform="translate(495.3359,618.2695)"
       id="g60"><path
         id="path62"
         style="fill:#ed1c24;fill-opacity:1;fill-rule:nonzero;stroke:none"
         d="m 0,0 -0.312,0.112 h -0.307 -0.217 -0.312 l -0.248,-0.073 -0.217,-0.114 -0.248,-0.114 -0.25,-0.037 -0.281,0.037 -0.279,0.04 -0.28,0.109 L -3.168,0.112 -3.387,0.334 -3.512,0.707 -3.54,0.969 -3.572,1.194 -3.697,1.269 -3.854,1.155 V 0.857 l 0.034,-0.336 0.123,-0.409 0.125,-0.301 0.185,-0.186 0.189,-0.183 0.247,-0.114 0.308,-0.037 0.282,0.037 h 0.25 l 0.25,0.114 0.306,0.073 0.407,0.11 h 0.373 L -0.496,-0.411 -0.217,-0.519 0,-0.635 0.28,-0.821 0.497,-0.971 0.747,-1.008 0.809,-0.747 0.716,-0.411 0.56,-0.189 0.403,-0.075 0.249,0.077 Z"
         inkscape:connector-curvature="0" /></g><g
       transform="translate(495.3359,618.2695)"
       id="g64"><path
         id="path66"
         style="fill:none;stroke:#231f20;stroke-width:0.112;stroke-linecap:butt;stroke-linejoin:miter;stroke-miterlimit:4;stroke-dasharray:none;stroke-opacity:1"
         d="m 0,0 -0.312,0.112 h -0.307 -0.217 -0.312 l -0.248,-0.073 -0.217,-0.114 -0.248,-0.114 -0.25,-0.037 -0.281,0.037 -0.279,0.04 -0.28,0.109 L -3.168,0.112 -3.387,0.334 -3.512,0.707 -3.54,0.969 -3.572,1.194 -3.697,1.269 -3.854,1.155 V 0.857 l 0.034,-0.336 0.123,-0.409 0.125,-0.301 0.185,-0.186 0.189,-0.183 0.247,-0.114 0.308,-0.037 0.282,0.037 h 0.25 l 0.25,0.114 0.306,0.073 0.407,0.11 h 0.373 L -0.496,-0.411 -0.217,-0.519 0,-0.635 0.28,-0.821 0.497,-0.971 0.747,-1.008 0.809,-0.747 0.716,-0.411 0.56,-0.189 0.403,-0.075 0.249,0.077 Z"
         inkscape:connector-curvature="0" /></g><g
       transform="translate(495.8662,617.0981)"
       id="g68"><path
         id="path70"
         style="fill:#ed1c24;fill-opacity:1;fill-rule:nonzero;stroke:none"
         d="M 0,0 -0.374,0.051 -0.832,0.252 -1.451,0.35 -1.907,0.299 -2.406,0.101 l -0.409,-0.297 0.244,0.049 0.333,0.051 h 0.415 l 0.495,-0.1 0.458,-0.2 0.329,-0.197 0.291,-0.152 1.942,0.262 L 1.596,1.054 0.507,2.171 -0.23,2.244 -0.424,3.437 -0.955,3.282 -1.242,3.629 -1.616,3.83 -1.948,3.881 -2.423,3.781 -2.796,3.557 -3.148,3.232 -3.358,2.936 -3.523,2.39 l 0.085,-0.6 0.166,-0.444 0.164,0.297 0.208,0.2 0.329,0.1 0.414,-0.05 0.499,-0.103 0.498,-0.196 0.497,-0.303 0.33,-0.296 0.292,-0.293 0.124,-0.403 z"
         inkscape:connector-curvature="0" /></g><g
       transform="translate(495.8662,617.0981)"
       id="g72"><path
         id="path74"
         style="fill:none;stroke:#231f20;stroke-width:0.112;stroke-linecap:butt;stroke-linejoin:miter;stroke-miterlimit:4;stroke-dasharray:none;stroke-opacity:1"
         d="M 0,0 -0.374,0.051 -0.832,0.252 -1.451,0.35 -1.907,0.299 -2.406,0.101 l -0.409,-0.297 0.244,0.049 0.333,0.051 h 0.415 l 0.495,-0.1 0.458,-0.2 0.329,-0.197 0.291,-0.152 1.942,0.262 L 1.596,1.054 0.507,2.171 -0.23,2.244 -0.424,3.437 -0.955,3.282 -1.242,3.629 -1.616,3.83 -1.948,3.881 -2.423,3.781 -2.796,3.557 -3.148,3.232 -3.358,2.936 -3.523,2.39 l 0.085,-0.6 0.166,-0.444 0.164,0.297 0.208,0.2 0.329,0.1 0.414,-0.05 L -1.658,1.79 -1.16,1.594 -0.663,1.291 -0.333,0.995 -0.041,0.702 0.083,0.299 0,0"
         inkscape:connector-curvature="0" /></g><g
       transform="translate(501.002,622.9262)"
       id="g76"><path
         id="path78"
         style="fill:#ed1c24;fill-opacity:1;fill-rule:nonzero;stroke:none"
         d="m 0,0 -1.145,-1.466 0.295,2.144 -0.97,-1.81 0.212,2.183 -0.881,-1.939 0.074,2.21 -0.732,-1.908 -0.024,2.128 -0.673,-1.943 -0.063,2.083 -0.621,-1.994 -0.044,-0.056 -0.285,2.05 -0.389,-1.961 -0.511,1.961 -0.216,-2.081 -0.587,1.945 0.132,-2.118 0.011,-0.014 -0.011,-0.747 -0.011,-0.408 c 0,0 -0.002,-0.002 -0.006,-0.004 l 0.004,-0.002 -0.009,-0.318 c -0.022,-0.061 0.843,-0.02 0.801,-0.032 l 3.576,-0.952 c 0.192,-0.159 0.916,-0.158 0.888,-0.287 l 0.142,0.534 c -0.003,-0.008 0,-0.012 0,-0.016 l 0.197,0.786 h 0.009 c 0,0.006 -0.006,0.01 -0.006,0.018 l 0.032,0.122 z"
         inkscape:connector-curvature="0" /></g><g
       transform="translate(501.002,622.9262)"
       id="g80"><path
         id="path82"
         style="fill:none;stroke:#231f20;stroke-width:0.112;stroke-linecap:butt;stroke-linejoin:miter;stroke-miterlimit:4;stroke-dasharray:none;stroke-opacity:1"
         d="m 0,0 -1.145,-1.466 0.295,2.144 -0.97,-1.81 0.212,2.183 -0.881,-1.939 0.074,2.21 -0.732,-1.908 -0.024,2.128 -0.673,-1.943 -0.063,2.083 -0.621,-1.994 -0.044,-0.056 -0.285,2.05 -0.389,-1.961 -0.511,1.961 -0.216,-2.081 -0.587,1.945 0.132,-2.118 0.011,-0.014 -0.011,-0.747 -0.011,-0.408 c 0,0 -0.002,-0.002 -0.006,-0.004 l 0.004,-0.002 -0.009,-0.318 c -0.022,-0.061 0.843,-0.02 0.801,-0.032 l 3.576,-0.952 c 0.192,-0.159 0.916,-0.158 0.888,-0.287 l 0.142,0.534 c -0.003,-0.008 0,-0.012 0,-0.016 l 0.197,0.786 h 0.009 c 0,0.006 -0.006,0.01 -0.006,0.018 l 0.032,0.122 z"
         inkscape:connector-curvature="0" /></g><g
       transform="translate(515.6787,583.2914)"
       id="g84"><path
         id="path86"
         style="fill:#104680;fill-opacity:1;fill-rule:nonzero;stroke:none"
         d="M 0,0 V 0.444 C -1.06,0.67 -1.457,1.301 -1.498,2.05 -1.543,1.324 -2.264,0.72 -3.271,0.476 L -5.135,0.464 C -6.196,0.706 -6.96,1.35 -6.96,2.11 L -6.979,2.085 c 0,-0.755 -0.744,-1.396 -1.789,-1.641 l -1.84,-0.007 c -1.071,0.237 -1.835,0.881 -1.835,1.648 h -0.051 c 0,-0.788 -0.812,-1.456 -1.931,-1.674 l -1.554,-0.008 c -1.11,0.202 -1.93,0.839 -1.976,1.607 -0.026,-0.768 -0.826,-1.412 -1.921,-1.63 l -1.568,-0.006 c -1.085,0.198 -1.888,0.813 -1.966,1.554 -0.056,-0.727 -0.815,-1.34 -1.85,-1.569 h -1.758 c -1.038,0.229 -1.798,0.846 -1.846,1.578 -0.087,-0.778 -0.97,-1.411 -2.127,-1.578 h -1.197 c -1.169,0.167 -2.055,0.82 -2.13,1.604 -0.078,-0.744 -0.676,-1.359 -1.758,-1.56 V 0.175 -3.116 H -34.443 -1.202 0 Z"
         inkscape:connector-curvature="0" /></g><g
       transform="translate(515.6787,583.2914)"
       id="g88"><path
         id="path90"
         style="fill:none;stroke:#231f20;stroke-width:0.236;stroke-linecap:butt;stroke-linejoin:miter;stroke-miterlimit:4;stroke-dasharray:none;stroke-opacity:1"
         d="M 0,0 V 0.444 C -1.06,0.67 -1.457,1.301 -1.498,2.05 -1.543,1.324 -2.264,0.72 -3.271,0.476 L -5.135,0.464 C -6.196,0.706 -6.96,1.35 -6.96,2.11 L -6.979,2.085 c 0,-0.755 -0.744,-1.396 -1.789,-1.641 l -1.84,-0.007 c -1.071,0.237 -1.835,0.881 -1.835,1.648 h -0.051 c 0,-0.788 -0.812,-1.456 -1.931,-1.674 l -1.554,-0.008 c -1.11,0.202 -1.93,0.839 -1.976,1.607 -0.026,-0.768 -0.826,-1.412 -1.921,-1.63 l -1.568,-0.006 c -1.085,0.198 -1.888,0.813 -1.966,1.554 -0.056,-0.727 -0.815,-1.34 -1.85,-1.569 h -1.758 c -1.038,0.229 -1.798,0.846 -1.846,1.578 -0.087,-0.778 -0.97,-1.411 -2.127,-1.578 h -1.197 c -1.169,0.167 -2.055,0.82 -2.13,1.604 -0.078,-0.744 -0.676,-1.359 -1.758,-1.56 V 0.175 -3.116 H -34.443 -1.202 0 Z"
         inkscape:connector-curvature="0" /></g><g
       transform="translate(494.6113,606.9145)"
       id="g92"><path
         id="path94"
         style="fill:#ed1c24;fill-opacity:1;fill-rule:nonzero;stroke:none"
         d="m 0,0 -1.222,1.207 v 0.011 h -0.012 l -0.306,0.305 0.046,-0.234 -0.728,0.187 0.563,1.458 -2.987,0.762 -3.115,1.208 -1.555,2.384 -2.224,-0.095 -0.506,-2.214 -0.213,-0.656 -0.605,-0.081 0.015,-1.711 -0.527,-1.612 v -1.33 l -0.09,-1.041 v -1.141 l 0.173,-0.855 -0.173,-1.041 0.09,-1.234 -0.09,-1.14 0.09,-1.139 0.17,-1.044 0.342,-0.666 v -0.851 l 0.172,-1.141 0.084,-0.949 0.258,-0.948 0.173,-0.948 0.339,0.284 0.089,0.851 v 1.331 1.617 l 0.086,1.705 0.515,-0.195 0.258,0.859 v 0.664 l 0.339,-0.192 0.342,0.573 0.098,0.649 0.248,-0.271 0.426,0.379 0.252,0.951 0.262,-0.191 0.516,0.38 0.255,0.856 0.005,0.057 0.126,-0.088 0.448,0.073 -0.066,-0.71 0.343,-0.471 0.427,0.094 0.346,-0.473 0.512,-0.193 0.094,0.312 0.165,-0.501 0.427,-0.287 0.598,0.096 0.688,-0.188 0.256,0.761 v 1.135 l -0.086,1.14 -0.053,0.285 h 0.153 l -0.041,-0.547 0.343,-0.568 0.429,0.117 0.344,-0.575 0.512,-0.225 0.173,0.683 0.083,1.366 v 0.772 l 0.168,-0.813 0.428,-0.385 0.255,0.858 v 1.328 l -0.041,0.671 0.519,-2.554 0.428,-0.38 0.256,0.853 v 1.328 z"
         inkscape:connector-curvature="0" /></g><g
       transform="translate(494.6113,606.9145)"
       id="g96"><path
         id="path98"
         style="fill:none;stroke:#231f20;stroke-width:0.112;stroke-linecap:butt;stroke-linejoin:miter;stroke-miterlimit:4;stroke-dasharray:none;stroke-opacity:1"
         d="m 0,0 -1.222,1.207 v 0.011 h -0.012 l -0.306,0.305 0.046,-0.234 -0.728,0.187 0.563,1.458 -2.987,0.762 -3.115,1.208 -1.555,2.384 -2.224,-0.095 -0.506,-2.214 -0.213,-0.656 -0.605,-0.081 0.015,-1.711 -0.527,-1.612 v -1.33 l -0.09,-1.041 v -1.141 l 0.173,-0.855 -0.173,-1.041 0.09,-1.234 -0.09,-1.14 0.09,-1.139 0.17,-1.044 0.342,-0.666 v -0.851 l 0.172,-1.141 0.084,-0.949 0.258,-0.948 0.173,-0.948 0.339,0.284 0.089,0.851 v 1.331 1.617 l 0.086,1.705 0.515,-0.195 0.258,0.859 v 0.664 l 0.339,-0.192 0.342,0.573 0.098,0.649 0.248,-0.271 0.426,0.379 0.252,0.951 0.262,-0.191 0.516,0.38 0.255,0.856 0.005,0.057 0.126,-0.088 0.448,0.073 -0.066,-0.71 0.343,-0.471 0.427,0.094 0.346,-0.473 0.512,-0.193 0.094,0.312 0.165,-0.501 0.427,-0.287 0.598,0.096 0.688,-0.188 0.256,0.761 v 1.135 l -0.086,1.14 -0.053,0.285 h 0.153 l -0.041,-0.547 0.343,-0.568 0.429,0.117 0.344,-0.575 0.512,-0.225 0.173,0.683 0.083,1.366 v 0.772 l 0.168,-0.813 0.428,-0.385 0.255,0.858 v 1.328 l -0.041,0.671 0.519,-2.554 0.428,-0.38 0.256,0.853 v 1.328 z"
         inkscape:connector-curvature="0" /></g><g
       transform="translate(515.4092,605.0522)"
       id="g100"><path
         id="path102"
         style="fill:#ed1c24;fill-opacity:1;fill-rule:nonzero;stroke:none"
         d="m 0,0 -0.087,1.045 v 1.326 l -0.471,1.441 c -0.016,0.155 -0.036,0.312 -0.055,0.465 l 0.015,1.417 -0.276,0.035 C -1.128,6.818 -1.451,7.661 -1.683,7.985 -2.189,8.704 -4.898,7.435 -5.832,7.307 -6.765,7.179 -8.164,6.928 -8.164,6.928 c 0,0 -0.296,-1.271 -1.613,-1.782 -1.314,-0.505 -3.006,-0.338 -3.006,-0.338 l -0.53,-2.026 -1.129,-1.11 -0.084,-1.33 v -1.33 l 0.257,-0.853 0.428,0.383 0.287,1.416 v -1.159 l 0.26,-0.854 0.426,0.379 0.523,2.578 -0.044,-0.696 V -1.12 l 0.257,-0.857 0.428,0.381 0.164,0.857 V -1.55 l 0.084,-1.366 0.176,-0.682 0.512,0.223 0.341,0.571 0.43,-0.112 0.343,0.564 -0.042,0.55 H -9.54 L -9.6,-2.089 -9.681,-3.227 v -1.139 l 0.255,-0.757 0.685,0.189 0.601,-0.094 0.429,0.283 0.165,0.499 0.093,-0.311 0.511,0.191 0.342,0.477 0.431,-0.096 0.342,0.476 -0.062,0.705 0.448,-0.074 0.126,0.088 0.004,-0.059 0.256,-0.853 0.515,-0.379 0.256,0.192 0.258,-0.952 0.428,-0.378 0.243,0.267 0.098,-0.646 0.343,-0.572 0.346,0.191 v -0.662 l 0.252,-0.853 0.517,0.187 0.084,-1.71 v -1.613 -1.328 l 0.086,-0.853 0.343,-0.289 0.173,0.954 0.256,0.949 0.086,0.948 0.173,1.138 v 0.857 L -0.26,-7.59 -0.087,-6.549 0,-5.409 -0.087,-4.268 0,-3.036 -0.173,-1.993 0,-1.138 Z"
         inkscape:connector-curvature="0" /></g><g
       transform="translate(515.4092,605.0522)"
       id="g104"><path
         id="path106"
         style="fill:none;stroke:#231f20;stroke-width:0.112;stroke-linecap:butt;stroke-linejoin:miter;stroke-miterlimit:4;stroke-dasharray:none;stroke-opacity:1"
         d="m 0,0 -0.087,1.045 v 1.326 l -0.471,1.441 c -0.016,0.155 -0.036,0.312 -0.055,0.465 l 0.015,1.417 -0.276,0.035 C -1.128,6.818 -1.451,7.661 -1.683,7.985 -2.189,8.704 -4.898,7.435 -5.832,7.307 -6.765,7.179 -8.164,6.928 -8.164,6.928 c 0,0 -0.296,-1.271 -1.613,-1.782 -1.314,-0.505 -3.006,-0.338 -3.006,-0.338 l -0.53,-2.026 -1.129,-1.11 -0.084,-1.33 v -1.33 l 0.257,-0.853 0.428,0.383 0.287,1.416 v -1.159 l 0.26,-0.854 0.426,0.379 0.523,2.578 -0.044,-0.696 V -1.12 l 0.257,-0.857 0.428,0.381 0.164,0.857 V -1.55 l 0.084,-1.366 0.176,-0.682 0.512,0.223 0.341,0.571 0.43,-0.112 0.343,0.564 -0.042,0.55 H -9.54 L -9.6,-2.089 -9.681,-3.227 v -1.139 l 0.255,-0.757 0.685,0.189 0.601,-0.094 0.429,0.283 0.165,0.499 0.093,-0.311 0.511,0.191 0.342,0.477 0.431,-0.096 0.342,0.476 -0.062,0.705 0.448,-0.074 0.126,0.088 0.004,-0.059 0.256,-0.853 0.515,-0.379 0.256,0.192 0.258,-0.952 0.428,-0.378 0.243,0.267 0.098,-0.646 0.343,-0.572 0.346,0.191 v -0.662 l 0.252,-0.853 0.517,0.187 0.084,-1.71 v -1.613 -1.328 l 0.086,-0.853 0.343,-0.289 0.173,0.954 0.256,0.949 0.086,0.948 0.173,1.138 v 0.857 L -0.26,-7.59 -0.087,-6.549 0,-5.409 -0.087,-4.268 0,-3.036 -0.173,-1.993 0,-1.138 Z"
         inkscape:connector-curvature="0" /></g><g
       transform="translate(507.1055,581.9145)"
       id="g108"><path
         id="path110"
         style="fill:none;stroke:#ffffff;stroke-width:0.25400001;stroke-linecap:butt;stroke-linejoin:miter;stroke-miterlimit:4;stroke-dasharray:none;stroke-opacity:1"
         d="M 0,0 C -0.772,0.309 -1.286,0.86 -1.286,1.483 L -1.303,1.456 c 0,-0.969 -1.224,-1.749 -2.734,-1.749 -1.51,0 -2.734,0.78 -2.734,1.749 h -0.051 c 0,-0.969 -1.225,-1.749 -2.731,-1.749 -1.512,0 -2.736,0.78 -2.736,1.749 l 0.008,-0.035 c 0,-0.965 -1.222,-1.747 -2.734,-1.747 -1.506,0 -2.731,0.782 -2.731,1.747 l 0.016,-0.034 c 0,-0.969 -1.226,-1.748 -2.736,-1.748 -1.51,0 -2.735,0.779 -2.735,1.748 l 0.019,0.05 c 0,-0.967 -1.224,-1.746 -2.733,-1.746 -1.51,0 -2.735,0.779 -2.735,1.746 l 0.015,0.019 c 0,-0.611 -0.361,-1.069 -1.107,-1.382"
         inkscape:connector-curvature="0" /></g><g
       transform="translate(518.0264,581.8871)"
       id="g112"><path
         id="path114"
         style="fill:none;stroke:#ffffff;stroke-width:0.25400001;stroke-linecap:butt;stroke-linejoin:miter;stroke-miterlimit:4;stroke-dasharray:none;stroke-opacity:1"
         d="m 0,0 c -0.772,0.311 -1.283,0.854 -1.283,1.483 l -0.02,-0.032 c 0,-0.964 -1.222,-1.746 -2.735,-1.746 -1.507,0 -2.733,0.782 -2.733,1.746 h -0.048 c 0,-0.964 -1.222,-1.746 -2.736,-1.746 -1.512,0 -2.732,0.782 -2.732,1.746 l 0.008,-0.029 c 0,-0.967 -1.223,-1.75 -2.733,-1.75 -1.509,0 -2.736,0.783 -2.736,1.75 l 0.019,-0.037 c 0,-0.969 -1.224,-1.751 -2.734,-1.751 -1.512,0 -2.738,0.782 -2.738,1.751 l 0.019,0.047 c 0,-0.962 -1.222,-1.746 -2.735,-1.746 -1.51,0 -2.733,0.784 -2.733,1.746 l 0.015,0.024 c 0,-0.613 -0.362,-1.069 -1.109,-1.386"
         inkscape:connector-curvature="0" /></g><g
       transform="translate(511.2676,594.6386)"
       id="g116"><path
         id="path118"
         style="fill:#ed1c24;fill-opacity:1;fill-rule:nonzero;stroke:none"
         d="m 0,0 -0.192,0.259 -0.217,0.191 -0.28,0.259 -0.307,0.147 -0.315,0.073 h -0.432 l -0.14,-0.01 0.044,0.05 0.348,0.186 0.369,0.069 c 0.038,0.004 0.066,0.008 0.102,0.014 L -0.996,1.23 -0.625,1.379 -0.345,1.342 -0.158,1.191 0.058,1.006 0.15,0.668 0.248,0.929 0.212,1.342 0.15,1.676 0.026,1.977 -0.221,2.236 -0.469,2.424 H -0.476 L -0.502,2.539 -0.812,2.835 -1.155,2.871 -1.56,2.686 -1.9,2.539 -2.242,2.236 -2.613,1.939 -3.05,1.676 -3.454,1.379 -3.92,1.155 -4.249,1.023 -4.76,1.191 -5.254,1.342 -5.752,1.566 -6.283,1.864 -6.716,2.088 -7.152,2.348 -7.617,2.76 -7.99,3.132 -8.247,3.43 -8.609,3.843 -8.954,4.25 -9.356,4.771 -10.694,5.108 -9.761,2.76 -9.356,2.383 -8.924,2.126 -8.426,1.676 -7.772,1.263 -7.215,1.006 -6.716,0.856 -6.158,0.709 -5.752,0.632 -5.164,0.334 -4.915,0.224 -5.441,0.112 -5.816,0.073 -6.188,0.037 -6.594,0 l -0.343,-0.077 -0.31,-0.184 -0.245,-0.262 -0.125,-0.443 0.039,-0.254 -0.007,-0.01 -0.094,-0.375 -0.032,-0.334 0.032,-0.376 0.157,-0.224 0.183,-0.257 0.252,-0.077 0.307,-0.037 h 0.251 l 0.217,0.073 -0.184,0.041 -0.251,0.034 -0.155,0.223 -0.125,0.224 v 0.301 l 0.056,0.134 0.101,-0.022 0.214,0.072 0.16,0.225 0.123,0.226 0.09,0.256 0.125,0.264 0.282,-0.074 0.435,-0.033 0.432,0.033 0.343,0.113 0.249,0.109 0.25,0.225 0.186,-0.072 0.25,-0.153 0.308,-0.185 0.345,-0.227 0.309,-0.221 0.249,-0.189 0.061,-0.149 -0.061,-0.22 v -0.303 l 0.092,-0.257 0.281,-0.15 0.057,-0.017 0.035,-0.208 0.155,-0.297 0.094,-0.299 -0.062,-0.298 -0.187,-0.184 -0.216,-0.15 -0.375,-0.038 0.187,-0.151 0.312,-0.036 0.184,0.076 0.188,0.149 0.249,0.189 0.186,0.294 0.094,0.375 0.03,0.411 -0.03,0.334 -0.076,0.143 0.041,0.041 0.035,0.339 -0.065,0.257 -0.215,0.188 v 0.264 l -0.126,0.22 -0.187,0.19 -0.249,0.297 -0.309,0.225 h 0.155 l 0.219,0.037 0.248,0.037 0.249,0.035 h 0.28 0.184 l 0.094,-0.109 -0.154,-0.113 0.06,-0.3 0.156,-0.336 0.249,-0.15 0.032,-0.11 0.092,-0.261 v -0.299 l -0.029,-0.297 -0.127,-0.225 h 0.127 l 0.217,0.184 0.216,0.266 0.063,0.257 0.066,0.303 0.026,0.332 -0.046,0.149 0.11,0.114 0.094,0.298 -0.063,0.297 z"
         inkscape:connector-curvature="0" /></g><g
       transform="translate(511.2676,594.6386)"
       id="g120"><path
         id="path122"
         style="fill:none;stroke:#231f20;stroke-width:0.112;stroke-linecap:butt;stroke-linejoin:miter;stroke-miterlimit:4;stroke-dasharray:none;stroke-opacity:1"
         d="m 0,0 -0.192,0.259 -0.217,0.191 -0.28,0.259 -0.307,0.147 -0.315,0.073 h -0.432 l -0.14,-0.01 0.044,0.05 0.348,0.186 0.369,0.069 c 0.038,0.004 0.066,0.008 0.102,0.014 L -0.996,1.23 -0.625,1.379 -0.345,1.342 -0.158,1.191 0.058,1.006 0.15,0.668 0.248,0.929 0.212,1.342 0.15,1.676 0.026,1.977 -0.221,2.236 -0.469,2.424 H -0.476 L -0.502,2.539 -0.812,2.835 -1.155,2.871 -1.56,2.686 -1.9,2.539 -2.242,2.236 -2.613,1.939 -3.05,1.676 -3.454,1.379 -3.92,1.155 -4.249,1.023 -4.76,1.191 -5.254,1.342 -5.752,1.566 -6.283,1.864 -6.716,2.088 -7.152,2.348 -7.617,2.76 -7.99,3.132 -8.247,3.43 -8.609,3.843 -8.954,4.25 -9.356,4.771 -10.694,5.108 -9.761,2.76 -9.356,2.383 -8.924,2.126 -8.426,1.676 -7.772,1.263 -7.215,1.006 -6.716,0.856 -6.158,0.709 -5.752,0.632 -5.164,0.334 -4.915,0.224 -5.441,0.112 -5.816,0.073 -6.188,0.037 -6.594,0 l -0.343,-0.077 -0.31,-0.184 -0.245,-0.262 -0.125,-0.443 0.039,-0.254 -0.007,-0.01 -0.094,-0.375 -0.032,-0.334 0.032,-0.376 0.157,-0.224 0.183,-0.257 0.252,-0.077 0.307,-0.037 h 0.251 l 0.217,0.073 -0.184,0.041 -0.251,0.034 -0.155,0.223 -0.125,0.224 v 0.301 l 0.056,0.134 0.101,-0.022 0.214,0.072 0.16,0.225 0.123,0.226 0.09,0.256 0.125,0.264 0.282,-0.074 0.435,-0.033 0.432,0.033 0.343,0.113 0.249,0.109 0.25,0.225 0.186,-0.072 0.25,-0.153 0.308,-0.185 0.345,-0.227 0.309,-0.221 0.249,-0.189 0.061,-0.149 -0.061,-0.22 v -0.303 l 0.092,-0.257 0.281,-0.15 0.057,-0.017 0.035,-0.208 0.155,-0.297 0.094,-0.299 -0.062,-0.298 -0.187,-0.184 -0.216,-0.15 -0.375,-0.038 0.187,-0.151 0.312,-0.036 0.184,0.076 0.188,0.149 0.249,0.189 0.186,0.294 0.094,0.375 0.03,0.411 -0.03,0.334 -0.076,0.143 0.041,0.041 0.035,0.339 -0.065,0.257 -0.215,0.188 v 0.264 l -0.126,0.22 -0.187,0.19 -0.249,0.297 -0.309,0.225 h 0.155 l 0.219,0.037 0.248,0.037 0.249,0.035 h 0.28 0.184 l 0.094,-0.109 -0.154,-0.113 0.06,-0.3 0.156,-0.336 0.249,-0.15 0.032,-0.11 0.092,-0.261 v -0.299 l -0.029,-0.297 -0.127,-0.225 h 0.127 l 0.217,0.184 0.216,0.266 0.063,0.257 0.066,0.303 0.026,0.332 -0.046,0.149 0.11,0.114 0.094,0.298 -0.063,0.297 z"
         inkscape:connector-curvature="0" /></g><g
       transform="translate(494.1562,599.3994)"
       id="g124"><path
         id="path126"
         style="fill:#ed1c24;fill-opacity:1;fill-rule:nonzero;stroke:none"
         d="m 0,0 -0.405,-0.523 -0.342,-0.411 -0.358,-0.406 -0.26,-0.301 -0.374,-0.373 -0.468,-0.409 -0.434,-0.261 -0.434,-0.226 -0.529,-0.297 -0.498,-0.224 -0.497,-0.151 -0.509,-0.167 -0.329,0.13 -0.469,0.225 -0.404,0.301 -0.43,0.261 -0.376,0.293 -0.34,0.303 -0.343,0.15 -0.406,0.184 -0.341,-0.035 -0.309,-0.299 -0.024,-0.114 h -0.01 l -0.248,-0.189 -0.248,-0.257 -0.124,-0.297 -0.06,-0.338 -0.033,-0.41 0.093,-0.26 0.091,0.334 0.219,0.185 0.187,0.151 0.281,0.037 0.372,-0.147 0.014,0.006 c 0.055,-0.011 0.106,-0.021 0.181,-0.029 l 0.304,-0.055 0.341,-0.183 0.043,-0.051 -0.138,0.012 h -0.437 l -0.308,-0.077 -0.313,-0.147 -0.275,-0.262 -0.221,-0.184 -0.186,-0.261 -0.122,-0.189 -0.065,-0.297 0.095,-0.3 0.106,-0.112 -0.045,-0.146 0.031,-0.334 0.061,-0.303 0.065,-0.26 0.216,-0.262 0.218,-0.183 h 0.122 l -0.122,0.222 -0.03,0.301 v 0.299 l 0.093,0.256 0.029,0.113 0.252,0.151 0.154,0.336 0.061,0.297 -0.158,0.112 0.097,0.11 h 0.188 0.278 L -7.582,-5 l 0.25,-0.034 0.216,-0.037 h 0.154 l -0.31,-0.222 -0.247,-0.303 -0.186,-0.183 -0.125,-0.223 v -0.262 l -0.221,-0.189 -0.057,-0.26 0.026,-0.335 0.047,-0.041 -0.073,-0.144 -0.034,-0.338 0.034,-0.41 0.089,-0.374 0.189,-0.298 0.248,-0.184 0.185,-0.148 0.188,-0.075 0.309,0.037 0.189,0.149 -0.374,0.037 -0.217,0.148 -0.187,0.186 -0.064,0.295 0.097,0.301 0.154,0.301 0.038,0.2 0.055,0.022 0.276,0.151 0.099,0.258 v 0.303 l -0.066,0.219 0.066,0.148 0.248,0.19 0.308,0.224 0.344,0.223 0.311,0.188 0.246,0.147 0.188,0.075 0.248,-0.222 0.251,-0.116 0.341,-0.11 0.434,-0.035 0.436,0.035 0.278,0.075 0.126,-0.26 0.093,-0.259 0.125,-0.228 0.155,-0.222 0.215,-0.072 0.1,0.017 0.055,-0.134 v -0.296 l -0.123,-0.224 -0.154,-0.222 -0.248,-0.04 -0.187,-0.035 0.216,-0.078 h 0.251 l 0.308,0.039 0.25,0.074 0.186,0.262 0.154,0.224 0.031,0.372 -0.031,0.335 -0.092,0.376 -0.007,0.009 0.039,0.252 -0.123,0.448 -0.249,0.259 -0.313,0.185 -0.345,0.077 -0.399,0.037 -0.376,0.035 -0.371,0.039 -0.529,0.11 0.25,0.111 0.59,0.3 0.403,0.075 0.56,0.147 0.494,0.151 0.562,0.26 0.653,0.414 0.498,0.448 0.434,0.258 0.404,0.373 0.932,2.348 z"
         inkscape:connector-curvature="0" /></g><g
       transform="translate(494.1562,599.3994)"
       id="g128"><path
         id="path130"
         style="fill:none;stroke:#231f20;stroke-width:0.112;stroke-linecap:butt;stroke-linejoin:miter;stroke-miterlimit:4;stroke-dasharray:none;stroke-opacity:1"
         d="m 0,0 -0.405,-0.523 -0.342,-0.411 -0.358,-0.406 -0.26,-0.301 -0.374,-0.373 -0.468,-0.409 -0.434,-0.261 -0.434,-0.226 -0.529,-0.297 -0.498,-0.224 -0.497,-0.151 -0.509,-0.167 -0.329,0.13 -0.469,0.225 -0.404,0.301 -0.43,0.261 -0.376,0.293 -0.34,0.303 -0.343,0.15 -0.406,0.184 -0.341,-0.035 -0.309,-0.299 -0.024,-0.114 h -0.01 l -0.248,-0.189 -0.248,-0.257 -0.124,-0.297 -0.06,-0.338 -0.033,-0.41 0.093,-0.26 0.091,0.334 0.219,0.185 0.187,0.151 0.281,0.037 0.372,-0.147 0.014,0.006 c 0.055,-0.011 0.106,-0.021 0.181,-0.029 l 0.304,-0.055 0.341,-0.183 0.043,-0.051 -0.138,0.012 h -0.437 l -0.308,-0.077 -0.313,-0.147 -0.275,-0.262 -0.221,-0.184 -0.186,-0.261 -0.122,-0.189 -0.065,-0.297 0.095,-0.3 0.106,-0.112 -0.045,-0.146 0.031,-0.334 0.061,-0.303 0.065,-0.26 0.216,-0.262 0.218,-0.183 h 0.122 l -0.122,0.222 -0.03,0.301 v 0.299 l 0.093,0.256 0.029,0.113 0.252,0.151 0.154,0.336 0.061,0.297 -0.158,0.112 0.097,0.11 h 0.188 0.278 L -7.582,-5 l 0.25,-0.034 0.216,-0.037 h 0.154 l -0.31,-0.222 -0.247,-0.303 -0.186,-0.183 -0.125,-0.223 v -0.262 l -0.221,-0.189 -0.057,-0.26 0.026,-0.335 0.047,-0.041 -0.073,-0.144 -0.034,-0.338 0.034,-0.41 0.089,-0.374 0.189,-0.298 0.248,-0.184 0.185,-0.148 0.188,-0.075 0.309,0.037 0.189,0.149 -0.374,0.037 -0.217,0.148 -0.187,0.186 -0.064,0.295 0.097,0.301 0.154,0.301 0.038,0.2 0.055,0.022 0.276,0.151 0.099,0.258 v 0.303 l -0.066,0.219 0.066,0.148 0.248,0.19 0.308,0.224 0.344,0.223 0.311,0.188 0.246,0.147 0.188,0.075 0.248,-0.222 0.251,-0.116 0.341,-0.11 0.434,-0.035 0.436,0.035 0.278,0.075 0.126,-0.26 0.093,-0.259 0.125,-0.228 0.155,-0.222 0.215,-0.072 0.1,0.017 0.055,-0.134 v -0.296 l -0.123,-0.224 -0.154,-0.222 -0.248,-0.04 -0.187,-0.035 0.216,-0.078 h 0.251 l 0.308,0.039 0.25,0.074 0.186,0.262 0.154,0.224 0.031,0.372 -0.031,0.335 -0.092,0.376 -0.007,0.009 0.039,0.252 -0.123,0.448 -0.249,0.259 -0.313,0.185 -0.345,0.077 -0.399,0.037 -0.376,0.035 -0.371,0.039 -0.529,0.11 0.25,0.111 0.59,0.3 0.403,0.075 0.56,0.147 0.494,0.151 0.562,0.26 0.653,0.414 0.498,0.448 0.434,0.258 0.404,0.373 0.932,2.348 z"
         inkscape:connector-curvature="0" /></g><g
       transform="translate(515.4951,610.3666)"
       id="g132"><path
         id="path134"
         style="fill:#ed1c24;fill-opacity:1;fill-rule:nonzero;stroke:none"
         d="m 0,0 -0.086,0.949 -0.26,0.76 -0.338,0.566 -0.431,0.667 C -1.383,3.409 -1.542,3.869 -1.797,4.093 -2.05,4.313 -3.004,5.046 -3.94,5.026 -4.884,5.015 -5.292,4.376 -5.389,4.077 -5.483,3.774 -5.629,2.39 -5.962,2.25 -6.294,2.104 -6.834,2.375 -7.198,2.663 -7.567,2.948 -7.962,3.311 -8.455,2.995 -8.949,2.678 -8.6,0.596 -9.505,0.197 c -0.256,-0.11 -0.716,0.284 -0.971,0.269 -0.251,-0.012 -1.298,-0.729 -1.759,-0.586 -0.464,0.142 -1.052,0.875 -1.307,1.191 -0.253,0.316 -0.628,0.552 -0.743,0.642 l -0.415,0.397 -0.249,0.397 -0.044,0.112 c -0.35,0.673 -0.377,1.218 -0.397,1.643 -0.02,0.464 0.125,1.755 0.064,2.436 -0.064,0.677 -0.213,1.586 -0.255,1.844 -0.024,0.152 -0.127,0.357 -0.097,0.66 v 0.021 l -0.388,0.493 -0.094,0.095 c -0.04,0.025 -0.075,0.051 -0.107,0.08 -0.032,0.029 -0.079,0.065 -0.135,0.102 l -0.196,0.152 -0.142,0.096 c -0.452,0.241 -1.057,0.422 -1.523,0.58 l -0.207,0.039 -0.497,0.051 -0.495,0.098 h -0.456 -0.374 l -0.292,-0.098 -0.164,-0.249 -0.123,-0.301 0.287,-0.348 0.208,-0.346 0.249,-0.396 0.268,-0.486 0.287,-0.652 0.223,-0.462 0.194,-0.269 0.223,-0.501 V 6.402 l -0.384,-0.268 -0.449,-0.041 -0.255,0.041 0.432,-0.493 0.332,-0.304 0.206,-0.244 V 4.643 L -19.173,4.197 -19.341,3.849 -19.505,3.403 -19.546,3.056 C -19.61,2.924 -19.865,2.804 -20.312,2.39 -20.753,1.979 -20.803,1.564 -20.961,1.372 -21.119,1.181 -21.472,1.136 -21.61,0.991 c -0.146,-0.144 -0.321,-0.633 -0.531,-0.682 -0.205,-0.047 -1.047,0.287 -1.459,0.446 -0.413,0.155 -0.477,0.078 -0.811,-0.144 -0.332,-0.222 -0.938,0.476 -1.13,0.794 -0.188,0.319 -0.012,1.527 -0.286,1.874 -0.268,0.352 -0.842,0.209 -1.125,-0.011 -0.286,-0.226 -1.018,-0.717 -1.524,-0.605 -0.51,0.108 -0.51,1.857 -0.877,2.24 -0.367,0.381 -0.761,0.728 -1.889,0.412 -1.13,-0.316 -1.638,-1.096 -1.737,-1.3 L -33.324,3.35 -33.748,2.684 -34.09,2.12 l -0.26,-0.764 -0.086,-0.949 -0.083,-1.043 0.083,-1.138 0.176,-0.759 0.339,-0.19 0.173,0.379 0.256,0.666 0.259,0.662 0.254,0.763 0.173,0.756 0.173,-0.664 0.169,-0.475 0.432,-0.189 0.426,0.189 0.342,0.572 0.171,0.567 0.087,0.761 0.259,-0.857 0.254,-0.66 0.346,-0.383 0.512,-0.093 0.427,0.377 v 0.663 l 0.518,-0.564 0.423,-0.289 0.514,-0.474 0.43,-0.379 h 0.602 l 0.339,-0.567 0.346,0.092 0.339,-0.38 h 0.429 l 0.345,0.288 0.256,0.567 0.515,-0.475 0.429,0.096 0.326,-0.495 0.842,-0.428 0.666,-0.741 1.025,-0.21 0.031,-0.024 -0.038,-0.185 0.04,-0.446 0.083,-0.551 0.088,-0.276 0.035,-0.118 -0.04,-0.25 0.04,-0.445 0.061,-0.226 0.027,-0.073 -0.088,-0.348 v -0.45 l -0.04,-0.397 -0.206,-0.347 -0.209,-0.25 -0.291,-0.299 -0.287,-0.396 -0.209,-0.496 -0.126,-0.4 -0.042,-0.5 h -0.535 l -0.54,-0.196 -0.247,-0.299 v -0.397 l 0.123,0.348 0.292,0.197 0.287,0.104 0.501,-0.051 -0.458,-0.25 -0.207,-0.397 0.249,0.199 0.248,0.147 h 0.287 l 0.334,0.051 -0.373,-0.298 -0.331,-0.495 -0.165,-0.551 0.126,-0.294 0.08,0.346 0.164,0.398 0.207,0.152 0.335,0.096 h 0.287 l 0.376,0.1 -0.168,-0.348 -0.208,-0.35 -0.246,-0.249 -0.376,-0.196 0.292,-0.052 0.289,0.052 0.29,0.149 0.333,0.296 -0.168,-0.394 -0.082,-0.352 -0.165,-0.395 -0.291,-0.3 0.332,-0.046 0.332,0.196 0.294,0.4 0.328,0.394 -0.21,-0.447 -0.118,-0.397 -0.211,-0.448 -0.456,-0.393 -0.373,-0.154 0.165,-0.1 h 0.373 l 0.374,0.049 0.373,0.1 0.413,0.154 0.25,0.247 0.373,0.293 -0.085,-0.344 -0.164,-0.35 -0.124,-0.349 0.249,0.3 0.165,0.248 0.248,0.548 0.043,-0.297 -0.085,-0.45 -0.082,-0.349 -0.165,-0.346 -0.29,-0.296 -0.21,-0.203 -0.329,-0.197 -0.452,-0.149 -0.502,-0.051 -0.538,-0.051 -0.661,0.051 -0.417,0.248 -0.411,0.149 0.204,-0.248 0.207,-0.296 0.291,-0.299 0.329,-0.251 0.377,-0.148 0.454,-0.051 0.415,0.051 0.454,0.049 0.373,0.148 0.292,0.202 0.329,0.395 0.045,-0.543 -0.127,-0.398 -0.123,-0.35 -0.168,-0.301 -0.289,-0.345 -0.373,-0.346 -0.33,-0.299 -0.374,-0.149 -0.372,-0.148 -0.457,-0.153 -0.455,-0.049 -0.578,-0.051 -0.498,-0.049 h -0.496 l -0.459,-0.102 -0.371,-0.097 -0.416,-0.249 -0.332,-0.246 -0.206,-0.299 -0.164,-0.3 -0.042,-0.446 0.042,-0.347 0.164,-0.402 0.206,-0.196 0.249,-0.099 0.288,-0.05 0.291,0.098 0.249,0.348 -0.207,-0.198 -0.208,-0.15 h -0.249 l -0.248,0.15 -0.122,0.297 v 0.301 l 0.039,0.348 0.167,0.346 0.331,0.3 0.416,0.15 0.457,0.098 0.37,-0.05 h 0.499 l -0.33,-0.198 -0.252,-0.347 -0.122,-0.497 0.04,-0.401 0.207,-0.297 0.335,-0.248 h 0.495 l -0.208,0.099 -0.247,0.297 -0.083,0.349 0.083,0.399 0.247,0.299 0.334,0.147 0.455,0.049 0.494,0.151 0.417,0.198 0.579,0.148 0.413,0.297 0.417,0.301 0.413,0.396 0.29,0.4 0.371,0.595 -0.039,-0.595 v -0.501 l -0.208,-0.445 -0.205,-0.398 -0.333,-0.349 -0.374,-0.394 -0.332,-0.299 -0.29,-0.298 -0.332,-0.248 -0.414,-0.103 h -0.415 l -0.368,0.05 -0.333,0.098 -0.455,0.401 0.33,-0.401 0.29,-0.295 0.413,-0.202 0.292,-0.146 0.454,0.048 0.538,0.15 0.375,0.198 0.371,0.301 0.374,0.249 0.374,0.446 0.329,0.346 -0.122,-0.248 0.041,-0.395 -0.041,-0.452 -0.043,-0.497 -0.164,-0.446 -0.21,-0.249 -0.288,-0.15 -0.456,0.051 0.329,-0.198 h 0.376 l 0.289,0.049 0.369,0.199 v -0.346 l 0.046,-0.497 0.165,-0.547 0.165,-0.396 0.083,0.345 0.123,0.45 0.127,0.544 0.081,0.447 0.042,0.298 0.249,-0.298 0.289,-0.199 0.29,-0.147 0.456,0.098 -0.331,0.147 -0.165,0.25 -0.209,0.35 -0.121,0.297 -0.085,0.4 -0.038,0.297 0.079,0.497 0.295,-0.399 0.244,-0.35 0.457,-0.247 0.332,-0.148 0.333,-0.149 0.495,-0.051 0.414,0.15 0.413,0.097 0.334,0.303 0.288,0.248 0.248,0.447 -0.162,-0.198 -0.251,-0.149 -0.249,-0.1 -0.287,-0.101 -0.292,-0.048 -0.415,0.149 -0.412,0.198 -0.418,0.199 -0.33,0.247 -0.291,0.248 -0.207,0.398 -0.207,0.495 -0.25,0.651 -0.161,0.745 -0.086,0.895 -0.085,1.144 0.171,-0.599 0.203,-0.497 0.29,-0.547 0.332,-0.396 0.456,-0.497 0.377,-0.4 0.411,-0.247 0.494,-0.299 0.499,-0.249 0.497,-0.098 0.289,-0.148 0.292,-0.2 0.165,-0.25 0.125,-0.445 v -0.449 l -0.164,-0.3 -0.542,-0.299 0.416,0.052 0.33,0.198 0.249,0.301 0.166,0.398 v 0.395 l -0.123,0.45 -0.245,0.448 -0.377,0.293 -0.581,0.202 0.413,-0.051 h 0.373 0.457 0.539 l 0.54,-0.151 0.538,-0.248 0.373,-0.247 0.332,-0.349 0.25,-0.394 0.122,-0.597 v -0.798 l 0.165,0.595 v 0.551 l -0.123,0.544 -0.25,0.448 -0.37,0.398 -0.457,0.348 -0.622,0.25 -0.498,0.2 -0.579,0.047 h -0.702 -0.625 l -0.623,0.151 -0.494,0.197 -0.495,0.348 -0.416,0.399 -0.291,0.347 -0.207,0.55 -0.208,0.495 -0.413,0.596 0.413,-0.348 0.333,-0.347 0.412,-0.297 0.623,-0.254 0.58,-0.047 0.705,0.047 0.453,0.155 0.415,0.299 0.457,0.543 0.333,0.648 -0.25,-0.399 -0.332,-0.297 -0.37,-0.2 -0.458,-0.147 -0.497,-0.051 -0.621,0.099 -0.579,0.099 -0.459,0.248 -0.497,0.398 -0.331,0.549 -0.291,0.501 -0.204,0.642 0.204,-0.497 0.291,-0.399 0.416,-0.399 0.373,-0.098 -0.458,0.348 -0.208,0.352 -0.206,0.396 -0.291,0.893 0.291,-0.543 0.333,-0.45 0.33,-0.245 0.374,-0.205 h 0.415 l 0.289,0.154 0.124,0.145 -0.331,-0.045 h -0.329 l -0.374,0.196 -0.25,0.344 -0.207,0.499 v 0.649 l 0.084,0.495 0.041,0.599 0.122,-0.649 0.29,-0.445 0.377,-0.446 0.453,-0.5 0.247,-0.646 0.168,-0.35 0.164,0.501 -0.082,0.445 -0.25,0.599 0.377,-0.449 0.205,-0.498 0.207,-0.796 0.042,0.699 v 0.495 l -0.169,0.5 -0.123,0.497 0.25,-0.25 0.332,-0.399 0.249,-0.348 0.167,-0.347 0.162,-0.495 0.123,-0.352 0.125,0.497 v 0.601 l -0.125,0.495 -0.205,0.395 -0.333,0.597 0.373,-0.198 0.211,-0.247 0.248,-0.397 0.246,-0.599 0.168,0.05 -0.086,0.645 -0.123,0.497 -0.249,0.448 -0.125,0.303 0.292,-0.101 0.291,-0.153 0.412,-0.399 -0.289,0.602 -0.457,0.642 -0.289,0.55 -0.25,0.595 -0.248,0.6 -0.497,0.595 -0.373,0.446 -0.333,0.147 0.171,0.649 0.12,0.597 v 0.743 l 0.014,0.127 0.151,0.423 0.085,0.644 0.042,0.6 1.697,0.257 0.666,0.737 0.842,0.432 0.326,0.493 0.429,-0.092 0.516,0.475 0.255,-0.567 0.343,-0.287 h 0.432 l 0.339,0.379 0.343,-0.092 0.344,0.567 h 0.603 l 0.422,0.376 0.516,0.479 0.428,0.283 0.518,0.566 v -0.66 l 0.422,-0.381 0.516,0.094 0.346,0.381 0.256,0.664 0.258,0.855 0.083,-0.76 0.174,-0.57 0.341,-0.57 0.426,-0.19 0.431,0.19 0.17,0.475 0.171,0.665 0.176,-0.759 0.255,-0.762 0.256,-0.662 0.259,-0.662 0.169,-0.382 0.342,0.189 0.173,0.758 0.084,1.14 z"
         inkscape:connector-curvature="0" /></g><g
       transform="translate(515.4951,610.3666)"
       id="g136"><path
         id="path138"
         style="fill:none;stroke:#231f20;stroke-width:0.112;stroke-linecap:butt;stroke-linejoin:miter;stroke-miterlimit:4;stroke-dasharray:none;stroke-opacity:1"
         d="m 0,0 -0.086,0.949 -0.26,0.76 -0.338,0.566 -0.431,0.667 C -1.383,3.409 -1.542,3.869 -1.797,4.093 -2.05,4.313 -3.004,5.046 -3.94,5.026 -4.884,5.015 -5.292,4.376 -5.389,4.077 -5.483,3.774 -5.629,2.39 -5.962,2.25 -6.294,2.104 -6.834,2.375 -7.198,2.663 -7.567,2.948 -7.962,3.311 -8.455,2.995 -8.949,2.678 -8.6,0.596 -9.505,0.197 c -0.256,-0.11 -0.716,0.284 -0.971,0.269 -0.251,-0.012 -1.298,-0.729 -1.759,-0.586 -0.464,0.142 -1.052,0.875 -1.307,1.191 -0.253,0.316 -0.628,0.552 -0.743,0.642 l -0.415,0.397 -0.249,0.397 -0.044,0.112 c -0.35,0.673 -0.377,1.218 -0.397,1.643 -0.02,0.464 0.125,1.755 0.064,2.436 -0.064,0.677 -0.213,1.586 -0.255,1.844 -0.024,0.152 -0.127,0.357 -0.097,0.66 v 0.021 l -0.388,0.493 -0.094,0.095 c -0.04,0.025 -0.075,0.051 -0.107,0.08 -0.032,0.029 -0.079,0.065 -0.135,0.102 l -0.196,0.152 -0.142,0.096 c -0.452,0.241 -1.057,0.422 -1.523,0.58 l -0.207,0.039 -0.497,0.051 -0.495,0.098 h -0.456 -0.374 l -0.292,-0.098 -0.164,-0.249 -0.123,-0.301 0.287,-0.348 0.208,-0.346 0.249,-0.396 0.268,-0.486 0.287,-0.652 0.223,-0.462 0.194,-0.269 0.223,-0.501 V 6.402 l -0.384,-0.268 -0.449,-0.041 -0.255,0.041 0.432,-0.493 0.332,-0.304 0.206,-0.244 V 4.643 L -19.173,4.197 -19.341,3.849 -19.505,3.403 -19.546,3.056 C -19.61,2.924 -19.865,2.804 -20.312,2.39 -20.753,1.979 -20.803,1.564 -20.961,1.372 -21.119,1.181 -21.472,1.136 -21.61,0.991 c -0.146,-0.144 -0.321,-0.633 -0.531,-0.682 -0.205,-0.047 -1.047,0.287 -1.459,0.446 -0.413,0.155 -0.477,0.078 -0.811,-0.144 -0.332,-0.222 -0.938,0.476 -1.13,0.794 -0.188,0.319 -0.012,1.527 -0.286,1.874 -0.268,0.352 -0.842,0.209 -1.125,-0.011 -0.286,-0.226 -1.018,-0.717 -1.524,-0.605 -0.51,0.108 -0.51,1.857 -0.877,2.24 -0.367,0.381 -0.761,0.728 -1.889,0.412 -1.13,-0.316 -1.638,-1.096 -1.737,-1.3 L -33.324,3.35 -33.748,2.684 -34.09,2.12 l -0.26,-0.764 -0.086,-0.949 -0.083,-1.043 0.083,-1.138 0.176,-0.759 0.339,-0.19 0.173,0.379 0.256,0.666 0.259,0.662 0.254,0.763 0.173,0.756 0.173,-0.664 0.169,-0.475 0.432,-0.189 0.426,0.189 0.342,0.572 0.171,0.567 0.087,0.761 0.259,-0.857 0.254,-0.66 0.346,-0.383 0.512,-0.093 0.427,0.377 v 0.663 l 0.518,-0.564 0.423,-0.289 0.514,-0.474 0.43,-0.379 h 0.602 l 0.339,-0.567 0.346,0.092 0.339,-0.38 h 0.429 l 0.345,0.288 0.256,0.567 0.515,-0.475 0.429,0.096 0.326,-0.495 0.842,-0.428 0.666,-0.741 1.025,-0.21 0.031,-0.024 -0.038,-0.185 0.04,-0.446 0.083,-0.551 0.088,-0.276 0.035,-0.118 -0.04,-0.25 0.04,-0.445 0.061,-0.226 0.027,-0.073 -0.088,-0.348 v -0.45 l -0.04,-0.397 -0.206,-0.347 -0.209,-0.25 -0.291,-0.299 -0.287,-0.396 -0.209,-0.496 -0.126,-0.4 -0.042,-0.5 h -0.535 l -0.54,-0.196 -0.247,-0.299 v -0.397 l 0.123,0.348 0.292,0.197 0.287,0.104 0.501,-0.051 -0.458,-0.25 -0.207,-0.397 0.249,0.199 0.248,0.147 h 0.287 l 0.334,0.051 -0.373,-0.298 -0.331,-0.495 -0.165,-0.551 0.126,-0.294 0.08,0.346 0.164,0.398 0.207,0.152 0.335,0.096 h 0.287 l 0.376,0.1 -0.168,-0.348 -0.208,-0.35 -0.246,-0.249 -0.376,-0.196 0.292,-0.052 0.289,0.052 0.29,0.149 0.333,0.296 -0.168,-0.394 -0.082,-0.352 -0.165,-0.395 -0.291,-0.3 0.332,-0.046 0.332,0.196 0.294,0.4 0.328,0.394 -0.21,-0.447 -0.118,-0.397 -0.211,-0.448 -0.456,-0.393 -0.373,-0.154 0.165,-0.1 h 0.373 l 0.374,0.049 0.373,0.1 0.413,0.154 0.25,0.247 0.373,0.293 -0.085,-0.344 -0.164,-0.35 -0.124,-0.349 0.249,0.3 0.165,0.248 0.248,0.548 0.043,-0.297 -0.085,-0.45 -0.082,-0.349 -0.165,-0.346 -0.29,-0.296 -0.21,-0.203 -0.329,-0.197 -0.452,-0.149 -0.502,-0.051 -0.538,-0.051 -0.661,0.051 -0.417,0.248 -0.411,0.149 0.204,-0.248 0.207,-0.296 0.291,-0.299 0.329,-0.251 0.377,-0.148 0.454,-0.051 0.415,0.051 0.454,0.049 0.373,0.148 0.292,0.202 0.329,0.395 0.045,-0.543 -0.127,-0.398 -0.123,-0.35 -0.168,-0.301 -0.289,-0.345 -0.373,-0.346 -0.33,-0.299 -0.374,-0.149 -0.372,-0.148 -0.457,-0.153 -0.455,-0.049 -0.578,-0.051 -0.498,-0.049 h -0.496 l -0.459,-0.102 -0.371,-0.097 -0.416,-0.249 -0.332,-0.246 -0.206,-0.299 -0.164,-0.3 -0.042,-0.446 0.042,-0.347 0.164,-0.402 0.206,-0.196 0.249,-0.099 0.288,-0.05 0.291,0.098 0.249,0.348 -0.207,-0.198 -0.208,-0.15 h -0.249 l -0.248,0.15 -0.122,0.297 v 0.301 l 0.039,0.348 0.167,0.346 0.331,0.3 0.416,0.15 0.457,0.098 0.37,-0.05 h 0.499 l -0.33,-0.198 -0.252,-0.347 -0.122,-0.497 0.04,-0.401 0.207,-0.297 0.335,-0.248 h 0.495 l -0.208,0.099 -0.247,0.297 -0.083,0.349 0.083,0.399 0.247,0.299 0.334,0.147 0.455,0.049 0.494,0.151 0.417,0.198 0.579,0.148 0.413,0.297 0.417,0.301 0.413,0.396 0.29,0.4 0.371,0.595 -0.039,-0.595 v -0.501 l -0.208,-0.445 -0.205,-0.398 -0.333,-0.349 -0.374,-0.394 -0.332,-0.299 -0.29,-0.298 -0.332,-0.248 -0.414,-0.103 h -0.415 l -0.368,0.05 -0.333,0.098 -0.455,0.401 0.33,-0.401 0.29,-0.295 0.413,-0.202 0.292,-0.146 0.454,0.048 0.538,0.15 0.375,0.198 0.371,0.301 0.374,0.249 0.374,0.446 0.329,0.346 -0.122,-0.248 0.041,-0.395 -0.041,-0.452 -0.043,-0.497 -0.164,-0.446 -0.21,-0.249 -0.288,-0.15 -0.456,0.051 0.329,-0.198 h 0.376 l 0.289,0.049 0.369,0.199 v -0.346 l 0.046,-0.497 0.165,-0.547 0.165,-0.396 0.083,0.345 0.123,0.45 0.127,0.544 0.081,0.447 0.042,0.298 0.249,-0.298 0.289,-0.199 0.29,-0.147 0.456,0.098 -0.331,0.147 -0.165,0.25 -0.209,0.35 -0.121,0.297 -0.085,0.4 -0.038,0.297 0.079,0.497 0.295,-0.399 0.244,-0.35 0.457,-0.247 0.332,-0.148 0.333,-0.149 0.495,-0.051 0.414,0.15 0.413,0.097 0.334,0.303 0.288,0.248 0.248,0.447 -0.162,-0.198 -0.251,-0.149 -0.249,-0.1 -0.287,-0.101 -0.292,-0.048 -0.415,0.149 -0.412,0.198 -0.418,0.199 -0.33,0.247 -0.291,0.248 -0.207,0.398 -0.207,0.495 -0.25,0.651 -0.161,0.745 -0.086,0.895 -0.085,1.144 0.171,-0.599 0.203,-0.497 0.29,-0.547 0.332,-0.396 0.456,-0.497 0.377,-0.4 0.411,-0.247 0.494,-0.299 0.499,-0.249 0.497,-0.098 0.289,-0.148 0.292,-0.2 0.165,-0.25 0.125,-0.445 v -0.449 l -0.164,-0.3 -0.542,-0.299 0.416,0.052 0.33,0.198 0.249,0.301 0.166,0.398 v 0.395 l -0.123,0.45 -0.245,0.448 -0.377,0.293 -0.581,0.202 0.413,-0.051 h 0.373 0.457 0.539 l 0.54,-0.151 0.538,-0.248 0.373,-0.247 0.332,-0.349 0.25,-0.394 0.122,-0.597 v -0.798 l 0.165,0.595 v 0.551 l -0.123,0.544 -0.25,0.448 -0.37,0.398 -0.457,0.348 -0.622,0.25 -0.498,0.2 -0.579,0.047 h -0.702 -0.625 l -0.623,0.151 -0.494,0.197 -0.495,0.348 -0.416,0.399 -0.291,0.347 -0.207,0.55 -0.208,0.495 -0.413,0.596 0.413,-0.348 0.333,-0.347 0.412,-0.297 0.623,-0.254 0.58,-0.047 0.705,0.047 0.453,0.155 0.415,0.299 0.457,0.543 0.333,0.648 -0.25,-0.399 -0.332,-0.297 -0.37,-0.2 -0.458,-0.147 -0.497,-0.051 -0.621,0.099 -0.579,0.099 -0.459,0.248 -0.497,0.398 -0.331,0.549 -0.291,0.501 -0.204,0.642 0.204,-0.497 0.291,-0.399 0.416,-0.399 0.373,-0.098 -0.458,0.348 -0.208,0.352 -0.206,0.396 -0.291,0.893 0.291,-0.543 0.333,-0.45 0.33,-0.245 0.374,-0.205 h 0.415 l 0.289,0.154 0.124,0.145 -0.331,-0.045 h -0.329 l -0.374,0.196 -0.25,0.344 -0.207,0.499 v 0.649 l 0.084,0.495 0.041,0.599 0.122,-0.649 0.29,-0.445 0.377,-0.446 0.453,-0.5 0.247,-0.646 0.168,-0.35 0.164,0.501 -0.082,0.445 -0.25,0.599 0.377,-0.449 0.205,-0.498 0.207,-0.796 0.042,0.699 v 0.495 l -0.169,0.5 -0.123,0.497 0.25,-0.25 0.332,-0.399 0.249,-0.348 0.167,-0.347 0.162,-0.495 0.123,-0.352 0.125,0.497 v 0.601 l -0.125,0.495 -0.205,0.395 -0.333,0.597 0.373,-0.198 0.211,-0.247 0.248,-0.397 0.246,-0.599 0.168,0.05 -0.086,0.645 -0.123,0.497 -0.249,0.448 -0.125,0.303 0.292,-0.101 0.291,-0.153 0.412,-0.399 -0.289,0.602 -0.457,0.642 -0.289,0.55 -0.25,0.595 -0.248,0.6 -0.497,0.595 -0.373,0.446 -0.333,0.147 0.171,0.649 0.12,0.597 v 0.743 l 0.014,0.127 0.151,0.423 0.085,0.644 0.042,0.6 1.697,0.257 0.666,0.737 0.842,0.432 0.326,0.493 0.429,-0.092 0.516,0.475 0.255,-0.567 0.343,-0.287 h 0.432 l 0.339,0.379 0.343,-0.092 0.344,0.567 h 0.603 l 0.422,0.376 0.516,0.479 0.428,0.283 0.518,0.566 v -0.66 l 0.422,-0.381 0.516,0.094 0.346,0.381 0.256,0.664 0.258,0.855 0.083,-0.76 0.174,-0.57 0.341,-0.57 0.426,-0.19 0.431,0.19 0.17,0.475 0.171,0.665 0.176,-0.759 0.255,-0.762 0.256,-0.662 0.259,-0.662 0.169,-0.382 0.342,0.189 0.173,0.758 0.084,1.14 z"
         inkscape:connector-curvature="0" /></g><g
       transform="translate(496.0518,619.6093)"
       id="g140"><path
         id="path142"
         style="fill:#231f20;fill-opacity:1;fill-rule:nonzero;stroke:none"
         d="m 0,0 c 0.123,0 0.157,-0.069 0.157,0.077 0,0.145 -0.1,0.261 -0.222,0.261 -0.121,0 -0.221,-0.116 -0.221,-0.261 C -0.286,-0.069 -0.121,0 0,0"
         inkscape:connector-curvature="0" /></g><g
       transform="translate(496.3242,670.7411)"
       id="g144"><path
         id="path146"
         style="fill:#ed1c24;fill-opacity:1;fill-rule:nonzero;stroke:none"
         d="m 0,0 c 0.198,-1.256 0.231,-2.682 0.166,-3.272 -0.067,-0.599 0.168,-2.354 -1.853,-2.122 0.594,0.794 0.495,1.16 0.397,2.054 -0.1,0.891 -0.564,2.581 -0.994,3.075 -0.43,0.495 -0.663,0.696 -0.663,0.696 0,0 0.103,-0.496 0.233,-1.095 0.133,-0.592 0.065,-1.618 -0.13,-1.916 -0.202,-0.298 -0.731,-0.692 -1.69,-0.628 0.629,0.56 0.795,0.858 0.728,1.687 -0.083,1.06 -0.928,2.551 -1.623,3.344 0.761,0.332 3.61,-0.63 3.61,-0.63 z"
         inkscape:connector-curvature="0" /></g><g
       transform="translate(496.3242,670.7411)"
       id="g148"><path
         id="path150"
         style="fill:none;stroke:#231f20;stroke-width:0.094;stroke-linecap:butt;stroke-linejoin:round;stroke-miterlimit:4;stroke-dasharray:none;stroke-opacity:1"
         d="m 0,0 c 0.198,-1.256 0.231,-2.682 0.166,-3.272 -0.067,-0.599 0.168,-2.354 -1.853,-2.122 0.594,0.794 0.495,1.16 0.397,2.054 -0.1,0.891 -0.564,2.581 -0.994,3.075 -0.43,0.495 -0.663,0.696 -0.663,0.696 0,0 0.103,-0.496 0.233,-1.095 0.133,-0.592 0.065,-1.618 -0.13,-1.916 -0.202,-0.298 -0.731,-0.692 -1.69,-0.628 0.629,0.56 0.795,0.858 0.728,1.687 -0.083,1.06 -0.928,2.551 -1.623,3.344 0.761,0.332 3.61,-0.63 3.61,-0.63 z"
         inkscape:connector-curvature="0" /></g><g
       transform="translate(506.7979,657.9824)"
       id="g152"><path
         id="path154"
         style="fill:#ed1c24;fill-opacity:1;fill-rule:nonzero;stroke:none"
         d="M 0,0 C 0.581,0.25 1.36,0.648 1.837,0.664 2.316,0.68 3.013,0.133 3.112,-0.481 3.46,0.133 3.592,1.358 4.155,1.819 4.716,2.284 5.824,2.167 6.554,2 5.561,2.483 4.768,3.21 3.925,4.717 3.081,6.225 2.289,7.218 2.053,7.759 1.823,8.308 1.938,6.836 1.938,6.836 L 1.241,4.435 0.15,0.811 Z"
         inkscape:connector-curvature="0" /></g><g
       transform="translate(506.7979,657.9824)"
       id="g156"><path
         id="path158"
         style="fill:none;stroke:#231f20;stroke-width:0.094;stroke-linecap:butt;stroke-linejoin:round;stroke-miterlimit:4;stroke-dasharray:none;stroke-opacity:1"
         d="M 0,0 C 0.581,0.25 1.36,0.648 1.837,0.664 2.316,0.68 3.013,0.133 3.112,-0.481 3.46,0.133 3.592,1.358 4.155,1.819 4.716,2.284 5.824,2.167 6.554,2 5.561,2.483 4.768,3.21 3.925,4.717 3.081,6.225 2.289,7.218 2.053,7.759 1.823,8.308 1.938,6.836 1.938,6.836 L 1.241,4.435 0.15,0.811 Z"
         inkscape:connector-curvature="0" /></g><g
       transform="translate(499.8975,663.4931)"
       id="g160"><path
         id="path162"
         style="fill:#ed1c24;fill-opacity:1;fill-rule:nonzero;stroke:none"
         d="m 0,0 c -0.761,-1.487 -1.687,-5.163 -3.275,-6.286 -1.588,-1.127 -1.986,-1.489 -3.344,-1.624 1.095,-0.265 2.813,-0.464 2.516,-1.028 -0.299,-0.559 -0.2,-0.394 -0.2,-0.394 0,0 0.63,0.102 0.762,-0.033 0.134,-0.132 0.332,-0.794 0.332,-1.128 0,-0.33 -0.232,-0.926 0.331,-0.397 0.564,0.533 3.075,5.298 3.11,6.027 C 0.266,-4.135 0,0 0,0"
         inkscape:connector-curvature="0" /></g><g
       transform="translate(499.8975,663.4931)"
       id="g164"><path
         id="path166"
         style="fill:none;stroke:#231f20;stroke-width:0.094;stroke-linecap:butt;stroke-linejoin:round;stroke-miterlimit:4;stroke-dasharray:none;stroke-opacity:1"
         d="m 0,0 c -0.761,-1.487 -1.687,-5.163 -3.275,-6.286 -1.588,-1.127 -1.986,-1.489 -3.344,-1.624 1.095,-0.265 2.813,-0.464 2.516,-1.028 -0.299,-0.559 -0.2,-0.394 -0.2,-0.394 0,0 0.63,0.102 0.762,-0.033 0.134,-0.132 0.332,-0.794 0.332,-1.128 0,-0.33 -0.232,-0.926 0.331,-0.397 0.564,0.533 3.075,5.298 3.11,6.027 C 0.266,-4.135 0,0 0,0 Z"
         inkscape:connector-curvature="0" /></g><g
       transform="translate(506.6836,657.3701)"
       id="g168"><path
         id="path170"
         style="fill:#ed1c24;fill-opacity:1;fill-rule:nonzero;stroke:none"
         d="m 0,0 c -0.268,-2.451 -1.325,-5.522 -1.191,-8.308 0.131,-2.777 0.167,-4.499 1.255,-6.817 0.297,-0.63 -0.399,-0.596 -0.661,-0.133 -0.264,0.466 -0.993,3.642 -1.785,4.37 -0.799,0.729 -1.658,0.827 -1.658,-0.032 0,-0.861 -0.695,-0.761 -0.825,0.099 -0.133,0.859 -0.156,1.847 -2.746,1.523 -1.326,-0.165 -2.152,-0.797 -2.152,-0.797 z"
         inkscape:connector-curvature="0" /></g><g
       transform="translate(506.6836,657.3701)"
       id="g172"><path
         id="path174"
         style="fill:none;stroke:#231f20;stroke-width:0.094;stroke-linecap:butt;stroke-linejoin:round;stroke-miterlimit:4;stroke-dasharray:none;stroke-opacity:1"
         d="m 0,0 c -0.268,-2.451 -1.325,-5.522 -1.191,-8.308 0.131,-2.777 0.167,-4.499 1.255,-6.817 0.297,-0.63 -0.399,-0.596 -0.661,-0.133 -0.264,0.466 -0.993,3.642 -1.785,4.37 -0.799,0.729 -1.658,0.827 -1.658,-0.032 0,-0.861 -0.695,-0.761 -0.825,0.099 -0.133,0.859 -0.156,1.847 -2.746,1.523 -1.326,-0.165 -2.152,-0.797 -2.152,-0.797 z"
         inkscape:connector-curvature="0" /></g><g
       transform="translate(490.4326,649.8159)"
       id="g176"><path
         id="path178"
         style="fill:#104680;fill-opacity:1;fill-rule:nonzero;stroke:none"
         d="M 0,0 C 2.826,0.839 9.531,2.998 9.223,10.413 8.915,17.828 6.664,20.21 3.268,22.061 1.902,22.725 0.444,22.681 0.444,22.681 L 0,23.255 c 0,0 -0.749,0.308 -2.118,0.748 -1.366,0.443 -3.706,0.334 -4.279,0.245 -0.575,-0.092 -0.707,0.353 -0.132,0.62 0.575,0.264 5.073,0.286 5.601,0.019 0.048,0.617 -1.233,1.368 -2.823,1.631 -1.587,0.268 -3.968,0.268 -4.502,0.972 -0.525,0.705 -0.878,1.145 -0.437,1.323 0.437,0.18 2.247,-0.882 2.866,-0.618 0.62,0.265 1.282,0.4 1.811,0.839 -0.754,0.706 -0.881,1.501 -0.486,2.34 0.395,0.837 2.03,2.517 6.355,1.766 4.323,-0.754 10.898,-5.163 12.972,-7.769 2.073,-2.6 4.587,-5.47 3.705,-11.165 C 17.65,8.514 15.008,4.457 11.871,1.853 8.737,-0.753 4.9,-4.944 4.9,-4.944 l -0.618,3.886 z"
         inkscape:connector-curvature="0" /></g><g
       transform="translate(490.4326,649.8159)"
       id="g180"><path
         id="path182"
         style="fill:none;stroke:#231f20;stroke-width:0.094;stroke-linecap:butt;stroke-linejoin:round;stroke-miterlimit:4;stroke-dasharray:none;stroke-opacity:1"
         d="M 0,0 C 2.826,0.839 9.531,2.998 9.223,10.413 8.915,17.828 6.664,20.21 3.268,22.061 1.902,22.725 0.444,22.681 0.444,22.681 L 0,23.255 c 0,0 -0.749,0.308 -2.118,0.748 -1.366,0.443 -3.706,0.334 -4.279,0.245 -0.575,-0.092 -0.707,0.353 -0.132,0.62 0.575,0.264 5.073,0.286 5.601,0.019 0.048,0.617 -1.233,1.368 -2.823,1.631 -1.587,0.268 -3.968,0.268 -4.502,0.972 -0.525,0.705 -0.878,1.145 -0.437,1.323 0.437,0.18 2.247,-0.882 2.866,-0.618 0.62,0.265 1.282,0.4 1.811,0.839 -0.754,0.706 -0.881,1.501 -0.486,2.34 0.395,0.837 2.03,2.517 6.355,1.766 4.323,-0.754 10.898,-5.163 12.972,-7.769 2.073,-2.6 4.587,-5.47 3.705,-11.165 C 17.65,8.514 15.008,4.457 11.871,1.853 8.737,-0.753 4.9,-4.944 4.9,-4.944 l -0.618,3.886 z"
         inkscape:connector-curvature="0" /></g><g
       transform="translate(486.4268,678.8701)"
       id="g184"><path
         id="path186"
         style="fill:none;stroke:#231f20;stroke-width:0.094;stroke-linecap:butt;stroke-linejoin:round;stroke-miterlimit:4;stroke-dasharray:none;stroke-opacity:1"
         d="M 0,0 0.702,0.026"
         inkscape:connector-curvature="0" /></g><g
       transform="translate(489.8604,678.2958)"
       id="g188"><path
         id="path190"
         style="fill:#231f20;fill-opacity:1;fill-rule:nonzero;stroke:none"
         d="M 0,0 C 0.009,-0.167 0.155,-0.298 0.33,-0.294 0.51,-0.291 0.647,-0.149 0.639,0.018 0.632,0.183 0.484,0.314 0.311,0.306 0.135,0.302 -0.003,0.161 0,0"
         inkscape:connector-curvature="0" /></g><g
       transform="translate(499.8428,652.9028)"
       id="g192"><path
         id="path194"
         style="fill:#ed1c24;fill-opacity:1;fill-rule:nonzero;stroke:none"
         d="m 0,0 c -4.108,-2.634 -9.131,-4.827 -14.295,0.135 -3.267,3.132 -2.559,3.217 -3.622,3.306 -1.058,0.088 -1.809,-0.264 -1.986,-0.661 0.841,0.045 1.943,0.309 2.826,-0.97 0.884,-1.281 1.191,-2.649 0.708,-3.044 -0.485,-0.402 -0.136,0.266 -0.577,-0.046 -0.438,-0.308 -0.131,-0.797 0.618,-1.408 0.753,-0.624 0.884,-0.359 1.149,-0.534 0.267,-0.177 0.969,-1.764 1.412,-2.074 0.442,-0.306 4.986,-1.765 8.386,0.529 -3.443,-2.558 -5.209,-2.91 -8.166,-3.218 2.207,-0.708 3.357,-0.883 4.324,-1.987 0.97,-1.105 0.131,-1.942 1.015,-1.942 0.884,0 0.18,0.797 0.575,0.797 0.396,0 1.724,-0.53 2.119,-1.415 0.396,-0.881 0.88,-2.864 2.823,-3.308 1.943,-0.445 2.426,0.396 2.514,0.795 -0.925,0.04 -1.013,-0.974 -2.426,0.175 -1.409,1.145 -2.867,4.193 -0.662,7.986 2.204,3.797 4.018,5.248 4.15,6.532 -0.749,-0.487 -1.239,-0.616 -1.239,-0.616 z"
         inkscape:connector-curvature="0" /></g><g
       transform="translate(499.8428,652.9028)"
       id="g196"><path
         id="path198"
         style="fill:none;stroke:#231f20;stroke-width:0.094;stroke-linecap:butt;stroke-linejoin:round;stroke-miterlimit:4;stroke-dasharray:none;stroke-opacity:1"
         d="m 0,0 c -4.108,-2.634 -9.131,-4.827 -14.295,0.135 -3.267,3.132 -2.559,3.217 -3.622,3.306 -1.058,0.088 -1.809,-0.264 -1.986,-0.661 0.841,0.045 1.943,0.309 2.826,-0.97 0.884,-1.281 1.191,-2.649 0.708,-3.044 -0.485,-0.402 -0.136,0.266 -0.577,-0.046 -0.438,-0.308 -0.131,-0.797 0.618,-1.408 0.753,-0.624 0.884,-0.359 1.149,-0.534 0.267,-0.177 0.969,-1.764 1.412,-2.074 0.442,-0.306 4.986,-1.765 8.386,0.529 -3.443,-2.558 -5.209,-2.91 -8.166,-3.218 2.207,-0.708 3.357,-0.883 4.324,-1.987 0.97,-1.105 0.131,-1.942 1.015,-1.942 0.884,0 0.18,0.797 0.575,0.797 0.396,0 1.724,-0.53 2.119,-1.415 0.396,-0.881 0.88,-2.864 2.823,-3.308 1.943,-0.445 2.426,0.396 2.514,0.795 -0.925,0.04 -1.013,-0.974 -2.426,0.175 -1.409,1.145 -2.867,4.193 -0.662,7.986 2.204,3.797 4.018,5.248 4.15,6.532 -0.749,-0.487 -1.239,-0.616 -1.239,-0.616 z"
         inkscape:connector-curvature="0" /></g><g
       transform="translate(486.8906,679.4985)"
       id="g200"><path
         id="path202"
         style="fill:#ed1c24;fill-opacity:1;fill-rule:nonzero;stroke:none"
         d="M 0,0 C 0.713,-0.286 0.779,-0.348 0.959,-0.366 1.138,-0.384 3.296,0.28 4.238,0.296 5.179,0.312 6.52,-0.517 7.188,-2.461 7.415,-0.861 7.066,-0.565 6.635,-0.083 6.208,0.396 5.437,0.698 4.927,0.711 5.229,0.972 5.976,0.944 6.208,0.958 5.478,1.171 4.47,1.336 3.078,0.944 1.687,0.544 1.244,-0.058 1.079,-0.054 0.913,-0.05 0,0 0,0"
         inkscape:connector-curvature="0" /></g><g
       transform="translate(486.8906,679.4985)"
       id="g204"><path
         id="path206"
         style="fill:none;stroke:#231f20;stroke-width:0.094;stroke-linecap:butt;stroke-linejoin:round;stroke-miterlimit:4;stroke-dasharray:none;stroke-opacity:1"
         d="M 0,0 C 0.713,-0.286 0.779,-0.348 0.959,-0.366 1.138,-0.384 3.296,0.28 4.238,0.296 5.179,0.312 6.52,-0.517 7.188,-2.461 7.415,-0.861 7.066,-0.565 6.635,-0.083 6.208,0.396 5.437,0.698 4.927,0.711 5.229,0.972 5.976,0.944 6.208,0.958 5.478,1.171 4.47,1.336 3.078,0.944 1.687,0.544 1.244,-0.058 1.079,-0.054 0.913,-0.05 0,0 0,0 Z"
         inkscape:connector-curvature="0" /></g><g
       transform="translate(489.5723,683.1542)"
       id="g208"><path
         id="path210"
         style="fill:#ed1c24;fill-opacity:1;fill-rule:nonzero;stroke:none"
         d="M 0,0 C 0.796,0.063 4.55,-0.219 6.075,1.837 6.043,1.173 5.626,0.628 4.933,0.199 5.842,0.083 7.086,0.099 8.058,0.262 9.034,0.429 10.558,1.078 10.997,1.937 10.873,0.843 10.112,0.511 9.632,0.099 9.15,-0.316 9.067,-0.728 7.959,-0.746 c 1.125,-0.248 2.515,-0.795 3.51,-0.944 0.993,-0.147 3.112,-0.282 4.63,1.209 -0.362,-1.258 -0.856,-1.851 -2.115,-2.187 -1.256,-0.328 -1.377,-0.412 -2.037,-0.443 0.844,-0.863 1.808,-1.938 3.08,-3.145 1.275,-1.209 3.225,-3.177 6.021,-1.424 -0.398,-1.173 -1.521,-1.52 -2.779,-1.34 -1.257,0.182 -2.449,0.466 -3.409,1.026 -0.96,0.561 -1.11,1.02 -1.505,1.919 0.245,-1.126 0.629,-2.499 0.942,-2.728 -0.443,0.197 -1.579,1.406 -1.824,2.018 -0.377,-0.316 -0.662,-0.686 -1.057,-0.801 0.116,0.519 0.514,1.079 -0.027,1.843 -0.548,0.763 -1.52,1.598 -1.823,1.934 0.231,-0.942 0.496,-1.773 0.345,-2.117 -0.145,-0.346 -0.723,-1.157 -1.01,-1.44 0.12,0.563 0.249,1.159 0.249,1.159 0,0 -0.527,-1.009 -0.793,-1.242 -0.263,-0.231 -0.828,-0.598 -2.314,-0.545 1.256,0.545 2.183,1.01 2.051,2.402 -0.135,1.389 -0.451,2.411 -1.659,3.387 -1.206,0.98 -2.43,1.525 -3.306,1.69 C 2.251,-0.348 1.122,-0.348 0.698,-0.219 0.267,-0.083 0,0 0,0"
         inkscape:connector-curvature="0" /></g><g
       transform="translate(489.5723,683.1542)"
       id="g212"><path
         id="path214"
         style="fill:none;stroke:#231f20;stroke-width:0.094;stroke-linecap:butt;stroke-linejoin:round;stroke-miterlimit:4;stroke-dasharray:none;stroke-opacity:1"
         d="M 0,0 C 0.796,0.063 4.55,-0.219 6.075,1.837 6.043,1.173 5.626,0.628 4.933,0.199 5.842,0.083 7.086,0.099 8.058,0.262 9.034,0.429 10.558,1.078 10.997,1.937 10.873,0.843 10.112,0.511 9.632,0.099 9.15,-0.316 9.067,-0.728 7.959,-0.746 c 1.125,-0.248 2.515,-0.795 3.51,-0.944 0.993,-0.147 3.112,-0.282 4.63,1.209 -0.362,-1.258 -0.856,-1.851 -2.115,-2.187 -1.256,-0.328 -1.377,-0.412 -2.037,-0.443 0.844,-0.863 1.808,-1.938 3.08,-3.145 1.275,-1.209 3.225,-3.177 6.021,-1.424 -0.398,-1.173 -1.521,-1.52 -2.779,-1.34 -1.257,0.182 -2.449,0.466 -3.409,1.026 -0.96,0.561 -1.11,1.02 -1.505,1.919 0.245,-1.126 0.629,-2.499 0.942,-2.728 -0.443,0.197 -1.579,1.406 -1.824,2.018 -0.377,-0.316 -0.662,-0.686 -1.057,-0.801 0.116,0.519 0.514,1.079 -0.027,1.843 -0.548,0.763 -1.52,1.598 -1.823,1.934 0.231,-0.942 0.496,-1.773 0.345,-2.117 -0.145,-0.346 -0.723,-1.157 -1.01,-1.44 0.12,0.563 0.249,1.159 0.249,1.159 0,0 -0.527,-1.009 -0.793,-1.242 -0.263,-0.231 -0.828,-0.598 -2.314,-0.545 1.256,0.545 2.183,1.01 2.051,2.402 -0.135,1.389 -0.451,2.411 -1.659,3.387 -1.206,0.98 -2.43,1.525 -3.306,1.69 C 2.251,-0.348 1.122,-0.348 0.698,-0.219 0.267,-0.083 0,0 0,0 Z"
         inkscape:connector-curvature="0" /></g><g
       transform="translate(497.5312,682.4086)"
       id="g216"><path
         id="path218"
         style="fill:none;stroke:#231f20;stroke-width:0.094;stroke-linecap:butt;stroke-linejoin:round;stroke-miterlimit:4;stroke-dasharray:none;stroke-opacity:1"
         d="M 0,0 C -0.38,0.032 -0.991,0.066 -0.991,0.066"
         inkscape:connector-curvature="0" /></g><g
       transform="translate(494.5049,683.353)"
       id="g220"><path
         id="path222"
         style="fill:none;stroke:#231f20;stroke-width:0.094;stroke-linecap:butt;stroke-linejoin:round;stroke-miterlimit:4;stroke-dasharray:none;stroke-opacity:1"
         d="M 0,0 C -0.364,-0.052 -0.647,-0.085 -0.96,-0.115"
         inkscape:connector-curvature="0" /></g><g
       transform="translate(319.958,615.8227)"
       id="g224"><path
         id="path226"
         style="fill:#231f20;fill-opacity:1;fill-rule:nonzero;stroke:none"
         d="m 0,0 h 2.494 c 2.447,0 4.377,-1.255 4.377,-3.545 0,-2.227 -1.71,-3.608 -3.812,-3.608 -0.392,0 -0.486,0 -0.816,0.031 v 1.192 c 0.267,-0.031 0.345,-0.031 0.596,-0.031 1.412,0 2.51,0.878 2.51,2.322 0,1.631 -1.208,2.368 -3.012,2.368 H 1.475 v -9.866 H 0 Z"
         inkscape:connector-curvature="0" /></g><g
       transform="translate(330.999,614.5991)"
       id="g228"><path
         id="path230"
         style="fill:#231f20;fill-opacity:1;fill-rule:nonzero;stroke:none"
         d="m 0,0 h -0.878 v -4.408 c 0,0 0.862,-0.031 1.741,-0.031 1.27,0 2.196,0.831 2.196,2.18 C 3.059,-0.643 1.772,0 0,0 m 2.479,-7.576 -1.177,2.008 h -2.18 V -9.914 H -2.353 V 1.224 h 2.541 c 2.573,0 4.408,-1.114 4.408,-3.357 0,-1.192 -0.502,-2.29 -1.867,-2.933 L 3.796,-6.855 C 4.8,-8.502 5.333,-8.769 6.228,-8.894 L 6.07,-9.96 c -1.772,0.046 -2.368,0.282 -3.591,2.384"
         inkscape:connector-curvature="0" /></g><g
       transform="translate(343.5459,614.7089)"
       id="g232"><path
         id="path234"
         style="fill:#231f20;fill-opacity:1;fill-rule:nonzero;stroke:none"
         d="m 0,0 c -2.494,0 -4.204,-1.788 -4.204,-4.172 0,-2.667 1.679,-4.738 4.141,-4.738 h 0.141 c 2.714,0 4.33,1.835 4.33,4.471 C 4.408,-1.772 2.714,0 0,0 m -0.047,-10.196 c -3.341,0 -5.694,2.463 -5.694,5.882 0,3.341 2.463,5.6 5.882,5.6 3.498,0 5.804,-2.259 5.804,-5.584 0,-3.53 -2.4,-5.898 -5.992,-5.898"
         inkscape:connector-curvature="0" /></g><g
       transform="translate(354.1313,604.6699)"
       id="g236"><path
         id="path238"
         style="fill:#231f20;fill-opacity:1;fill-rule:nonzero;stroke:none"
         d="m 0,0 -4.188,11.153 h 1.6 l 3.466,-9.569 3.389,9.569 h 1.49 L 1.679,0.031 Z"
         inkscape:connector-curvature="0" /></g><g
       transform="translate(361.0625,604.6855)"
       id="g240"><path
         id="path242"
         style="fill:#231f20;fill-opacity:1;fill-rule:nonzero;stroke:none"
         d="M 0,0 V 11.137 H 5.977 V 9.898 H 1.475 V 6.274 H 5.631 V 5.066 H 1.475 V 1.255 H 6.353 L 6.243,0 Z"
         inkscape:connector-curvature="0" /></g><g
       transform="translate(369.5937,615.8227)"
       id="g244"><path
         id="path246"
         style="fill:#231f20;fill-opacity:1;fill-rule:nonzero;stroke:none"
         d="M 0,0 H 1.6 L 8.125,-8.894 V 0 H 9.521 V -11.137 H 7.953 l -6.557,8.972 v -8.972 H 0 Z"
         inkscape:connector-curvature="0" /></g><g
       transform="translate(387.0029,604.5287)"
       id="g248"><path
         id="path250"
         style="fill:#231f20;fill-opacity:1;fill-rule:nonzero;stroke:none"
         d="m 0,0 c -3.687,0 -6.071,2.165 -6.071,5.678 0,3.608 2.369,5.773 6.087,5.773 1.082,0 2.195,-0.157 3.435,-0.659 L 3.325,9.506 c -1.317,0.47 -2.305,0.659 -3.357,0.659 -2.902,0 -4.517,-1.647 -4.517,-4.393 0,-2.462 1.631,-4.486 4.674,-4.486 0.895,0 2.212,0.189 3.687,0.863 L 3.717,0.815 C 2.416,0.22 1.145,0 0,0"
         inkscape:connector-curvature="0" /></g><g
       transform="translate(392.9292,604.6855)"
       id="g252"><path
         id="path254"
         style="fill:#231f20;fill-opacity:1;fill-rule:nonzero;stroke:none"
         d="M 0,0 V 11.137 H 5.976 V 9.898 H 1.475 V 6.274 H 5.631 V 5.066 H 1.475 V 1.255 H 6.353 L 6.244,0 Z"
         inkscape:connector-curvature="0" /></g><g
       transform="translate(359.353,593.2739)"
       id="g256"><path
         id="path258"
         style="fill:#231f20;fill-opacity:1;fill-rule:nonzero;stroke:none"
         d="M 0,0 H 3.718 L 1.789,5.255 Z m 4.141,-1.176 h -4.517 l -1.098,-3.153 h -1.49 l 4,11.121 1.631,0.032 4.282,-11.153 H 5.333 Z"
         inkscape:connector-curvature="0" /></g><g
       transform="translate(367.8213,588.9448)"
       id="g260"><path
         id="path262"
         style="fill:#231f20;fill-opacity:1;fill-rule:nonzero;stroke:none"
         d="M 0,0 V 11.137 H 1.475 V 1.255 H 6.322 L 6.212,0 Z"
         inkscape:connector-curvature="0" /></g><g
       transform="translate(375.9292,600.082)"
       id="g264"><path
         id="path266"
         style="fill:#231f20;fill-opacity:1;fill-rule:nonzero;stroke:none"
         d="m 0,0 h 2.494 c 2.447,0 4.377,-1.255 4.377,-3.545 0,-2.227 -1.71,-3.608 -3.812,-3.608 -0.392,0 -0.486,0 -0.816,0.031 v 1.193 C 2.51,-5.96 2.588,-5.96 2.839,-5.96 c 1.412,0 2.51,0.877 2.51,2.321 0,1.631 -1.208,2.368 -3.012,2.368 H 1.475 v -9.866 H 0 Z"
         inkscape:connector-curvature="0" /></g><g
       transform="translate(384.6172,588.9448)"
       id="g268"><path
         id="path270"
         style="fill:#231f20;fill-opacity:1;fill-rule:nonzero;stroke:none"
         d="M 0,0 V 11.137 H 5.977 V 9.898 H 1.475 V 6.274 H 5.631 V 5.066 H 1.475 V 1.255 H 6.353 L 6.243,0 Z"
         inkscape:connector-curvature="0" /></g><g
       transform="translate(395.5171,588.7885)"
       id="g272"><path
         id="path274"
         style="fill:#231f20;fill-opacity:1;fill-rule:nonzero;stroke:none"
         d="M 0,0 C -0.91,0 -1.96,0.141 -2.949,0.533 L -2.98,1.866 C -1.663,1.411 -0.863,1.302 0,1.302 c 1.804,0 2.353,0.909 2.353,1.788 0,0.737 -0.282,1.317 -1.741,1.976 l -0.879,0.392 c -1.882,0.816 -2.446,1.741 -2.431,3.027 0,1.6 1.208,2.965 3.781,2.965 0.69,0 1.584,-0.078 2.494,-0.392 L 3.451,9.803 c -0.989,0.298 -1.742,0.392 -2.322,0.392 -1.647,0 -2.274,-0.69 -2.274,-1.584 0,-0.753 0.314,-1.271 1.804,-1.929 L 1.538,6.305 C 3.435,5.521 3.984,4.485 3.984,3.23 3.984,1.709 2.917,0 0,0"
         inkscape:connector-curvature="0" /></g><g
       transform="translate(308.6982,573.0473)"
       id="g276"><path
         id="path278"
         style="fill:#231f20;fill-opacity:1;fill-rule:nonzero;stroke:none"
         d="m 0,0 c -3.686,0 -6.07,2.165 -6.07,5.679 0,3.607 2.368,5.772 6.086,5.772 1.082,0 2.196,-0.157 3.435,-0.659 L 3.326,9.506 c -1.318,0.471 -2.306,0.659 -3.357,0.659 -2.902,0 -4.518,-1.647 -4.518,-4.393 0,-2.462 1.632,-4.486 4.675,-4.486 0.894,0 2.211,0.189 3.686,0.863 L 3.718,0.815 C 2.416,0.22 1.146,0 0,0"
         inkscape:connector-curvature="0" /></g><g
       transform="translate(319.3467,586.8666)"
       id="g280"><path
         id="path282"
         style="fill:#231f20;fill-opacity:1;fill-rule:nonzero;stroke:none"
         d="m 0,0 -2.133,-1.662 -0.721,0.768 2.933,2.259 2.823,-2.196 -0.831,-0.831 z m 0.063,-3.639 c -2.494,0 -4.204,-1.788 -4.204,-4.173 0,-2.667 1.679,-4.737 4.141,-4.737 h 0.142 c 2.713,0 4.329,1.835 4.329,4.471 0,2.667 -1.695,4.439 -4.408,4.439 M 0.016,-13.835 c -3.341,0 -5.694,2.463 -5.694,5.882 0,3.342 2.463,5.6 5.882,5.6 3.498,0 5.804,-2.258 5.804,-5.584 0,-3.53 -2.4,-5.898 -5.992,-5.898"
         inkscape:connector-curvature="0" /></g><g
       transform="translate(330.7793,583.0864)"
       id="g284"><path
         id="path286"
         style="fill:#231f20;fill-opacity:1;fill-rule:nonzero;stroke:none"
         d="M 0,0 V -9.882 H -1.458 V 0 H -5.004 V 1.255 H 3.655 L 3.561,0 Z"
         inkscape:connector-curvature="0" /></g><g
       transform="translate(335.8437,573.2045)"
       id="g288"><path
         id="path290"
         style="fill:#231f20;fill-opacity:1;fill-rule:nonzero;stroke:none"
         d="M 0,0 V 11.137 H 5.977 V 9.897 H 1.475 V 6.274 H 5.631 V 5.066 H 1.475 V 1.255 H 6.353 L 6.243,0 Z"
         inkscape:connector-curvature="0" /></g><g
       transform="translate(350.3667,583.102)"
       id="g292"><path
         id="path294"
         style="fill:#231f20;fill-opacity:1;fill-rule:nonzero;stroke:none"
         d="m 0,0 c -0.988,0 -1.474,0 -2.039,-0.016 v -8.627 c 0.816,-0.031 1.427,-0.031 2.384,-0.031 2.886,0 4.706,1.6 4.706,4.392 C 5.051,-1.271 2.777,0 0,0 m 0.283,-9.929 c -1.255,0 -2.432,0 -3.797,0.032 V 1.239 c 1.161,0.016 1.946,0.016 3.593,0.016 3.576,0 6.494,-1.741 6.494,-5.38 0,-3.733 -2.51,-5.804 -6.29,-5.804"
         inkscape:connector-curvature="0" /></g><g
       transform="translate(358.4424,580.6078)"
       id="g296"><path
         id="path298"
         style="fill:#231f20;fill-opacity:1;fill-rule:nonzero;stroke:none"
         d="m 0,0 -0.832,0.502 c 0.848,0.941 1.099,1.647 1.099,2.165 0,0.36 -0.142,0.737 -0.612,1.192 0.204,0.361 0.549,0.549 0.863,0.549 0.721,0 1.129,-0.706 1.113,-1.443 C 1.631,2.432 1.506,1.521 0,0"
         inkscape:connector-curvature="0" /></g><g
       transform="translate(362.1597,577.5336)"
       id="g300"><path
         id="path302"
         style="fill:#231f20;fill-opacity:1;fill-rule:nonzero;stroke:none"
         d="M 0,0 H 3.718 L 1.789,5.255 Z m 4.141,-1.177 h -4.517 l -1.098,-3.152 h -1.49 l 4,11.121 1.631,0.031 4.282,-11.152 H 5.333 Z"
         inkscape:connector-curvature="0" /></g><g
       transform="translate(369.75,573.2045)"
       id="g304"><path
         id="path306"
         style="fill:#231f20;fill-opacity:1;fill-rule:nonzero;stroke:none"
         d="M 0,0 V 1.098 L 5.882,9.882 H 0.078 v 1.255 H 7.78 V 10.133 L 1.819,1.271 H 8.345 L 8.235,0 Z"
         inkscape:connector-curvature="0" /></g><g
       transform="translate(384.2104,573.0317)"
       id="g308"><path
         id="path310"
         style="fill:#231f20;fill-opacity:1;fill-rule:nonzero;stroke:none"
         d="m 0,0 c -3.169,0 -4.486,1.663 -4.486,5.051 v 6.259 h 1.474 V 5.224 c 0,-2.479 0.753,-3.938 3.153,-3.938 2.18,0 3.027,1.412 3.027,3.78 V 11.31 H 4.549 V 4.878 C 4.549,1.866 3.074,0 0,0"
         inkscape:connector-curvature="0" /></g><g
       transform="translate(393.4155,583.1176)"
       id="g312"><path
         id="path314"
         style="fill:#231f20;fill-opacity:1;fill-rule:nonzero;stroke:none"
         d="m 0,0 h -0.878 v -4.407 c 0,0 0.862,-0.031 1.741,-0.031 1.27,0 2.196,0.831 2.196,2.179 C 3.059,-0.643 1.772,0 0,0 m 2.478,-7.576 -1.176,2.008 h -2.18 V -9.913 H -2.353 V 1.224 h 2.541 c 2.573,0 4.408,-1.114 4.408,-3.357 0,-1.192 -0.502,-2.29 -1.867,-2.933 L 3.796,-6.854 C 4.8,-8.502 5.333,-8.769 6.227,-8.894 L 6.071,-9.96 c -1.773,0.047 -2.369,0.282 -3.593,2.384"
         inkscape:connector-curvature="0" /></g><g
       transform="translate(259.8711,685.1274)"
       id="g316"><path
         id="path318"
         style="fill:#231f20;fill-opacity:1;fill-rule:nonzero;stroke:none"
         d="m 0,0 h -1.326 v -7.797 c 0,0 1.326,-0.078 2.729,-0.078 2.184,0 3.665,1.247 3.665,3.704 C 5.068,-1.208 3.002,0 0,0 m 3.625,-16.491 -2.026,3.625 h -2.925 v -9.122 h -7.29 v 27.68 h 8.382 c 7.719,0 12.826,-3.002 12.826,-9.279 0,-2.846 -1.247,-5.341 -4.015,-6.784 l 1.91,-3.04 c 1.91,-3.119 2.768,-3.548 4.718,-3.782 l -0.546,-5.068 c -6.862,0.078 -8.265,0.546 -11.034,5.77"
         inkscape:connector-curvature="0" /></g><g
       transform="translate(278.5801,663.1391)"
       id="g320"><path
         id="path322"
         style="fill:#231f20;fill-opacity:1;fill-rule:nonzero;stroke:none"
         d="M 0,0 V 27.68 H 16.53 V 21.715 H 7.291 v -4.834 h 8.538 V 11.033 H 7.291 V 6.043 H 17.7 L 17.271,0 Z"
         inkscape:connector-curvature="0" /></g><g
       transform="translate(314.9116,662.7495)"
       id="g324"><path
         id="path326"
         style="fill:#231f20;fill-opacity:1;fill-rule:nonzero;stroke:none"
         d="m 0,0 c -9.747,0 -15.79,4.678 -15.79,14.347 0,9.045 6.394,14.112 15.829,14.112 2.339,0 5.614,-0.389 8.343,-1.208 L 7.758,21.325 c -3.391,0.897 -5.809,1.092 -7.719,1.092 -5.263,0 -8.304,-2.495 -8.304,-7.68 0,-5.693 3.236,-8.734 7.836,-8.734 0.741,0 1.677,0.079 2.69,0.351 v 7.369 H 9.552 V 5.224 C 9.552,3.274 9.63,1.676 9.63,1.676 6.082,0.584 2.885,0 0,0"
         inkscape:connector-curvature="0" /></g><path
       id="path328"
       style="fill:#231f20;fill-opacity:1;fill-rule:nonzero;stroke:none"
       d="m 329.176,690.819 h 7.291 v -27.68 h -7.291 z"
       inkscape:connector-curvature="0" /><g
       transform="translate(354.4375,685.2055)"
       id="g330"><path
         id="path332"
         style="fill:#231f20;fill-opacity:1;fill-rule:nonzero;stroke:none"
         d="m 0,0 c -4.405,0 -6.979,-3.236 -6.979,-7.603 0,-4.795 2.73,-8.888 7.174,-8.888 h 0.234 c 4.639,0 7.095,3.782 7.095,8.46 C 7.524,-3.197 4.756,0 0,0 m 0.078,-22.456 c -8.655,0 -14.542,5.769 -14.542,14.502 0,8.617 6.043,13.957 14.971,13.957 8.772,0 14.503,-5.34 14.503,-13.606 0,-8.85 -5.887,-14.853 -14.932,-14.853"
         inkscape:connector-curvature="0" /></g><g
       transform="translate(372.9512,690.8193)"
       id="g334"><path
         id="path336"
         style="fill:#231f20;fill-opacity:1;fill-rule:nonzero;stroke:none"
         d="M 0,0 H 8.07 L 19.688,-16.959 V 0 h 6.94 V -27.68 H 18.402 L 6.94,-10.76 V -27.68 H 0 Z"
         inkscape:connector-curvature="0" /></g><g
       transform="translate(329.7617,625.9267)"
       id="g338"><path
         id="path340"
         style="fill:#231f20;fill-opacity:1;fill-rule:nonzero;stroke:none"
         d="M 0,0 C -2.144,0 -5.653,0.39 -8.148,1.286 L -8.265,7.29 c 3.509,-1.014 6.043,-1.403 7.914,-1.403 2.768,0 3.509,1.208 3.509,2.339 0,0.936 -0.351,1.715 -2.651,2.651 l -1.638,0.663 c -5.808,2.066 -6.978,5.029 -6.939,8.187 0.039,4.366 3.236,8.733 10.799,8.733 1.949,0 4.795,-0.234 7.173,-1.014 L 9.318,21.832 c -2.612,0.702 -4.562,0.897 -5.887,0.897 -2.885,0 -3.704,-1.053 -3.704,-2.261 0,-1.014 0.468,-1.794 3.431,-2.925 L 4.795,16.92 C 10.136,15.009 11.267,12.085 11.267,9.005 11.267,5.224 8.811,0 0,0"
         inkscape:connector-curvature="0" /></g><g
       transform="translate(357.2822,625.8876)"
       id="g342"><path
         id="path344"
         style="fill:#231f20;fill-opacity:1;fill-rule:nonzero;stroke:none"
         d="m 0,0 c -8.889,0 -12.553,4.405 -12.553,13.333 v 14.776 h 7.29 V 13.06 c 0,-4.405 1.559,-6.822 5.965,-6.822 3.704,0 5.107,2.3 5.107,6.511 v 15.36 h 6.979 V 13.45 C 12.788,4.795 8.616,0 0,0"
         inkscape:connector-curvature="0" /></g><g
       transform="translate(384.7241,648.0707)"
       id="g346"><path
         id="path348"
         style="fill:#231f20;fill-opacity:1;fill-rule:nonzero;stroke:none"
         d="M 0,0 C -1.208,0 -1.793,0 -2.69,-0.039 V -15.75 c 1.014,-0.079 2.027,-0.079 3.236,-0.079 5.068,0 8.031,2.652 8.031,7.603 C 8.577,-2.612 4.795,0 0,0 m 0.663,-21.793 c -3.548,0 -5.965,0 -10.643,0.039 v 27.68 h 9.512 c 9.357,0 16.531,-4.6 16.531,-13.568 0,-9.434 -6.043,-14.151 -15.4,-14.151"
         inkscape:connector-curvature="0" /></g><g
       transform="translate(295.1021,693.038)"
       id="g350"><path
         id="path352"
         style="fill:#f9a70d;fill-opacity:1;fill-rule:nonzero;stroke:none"
         d="M 0,0 H -16.574 L 0,4.911 Z"
         inkscape:connector-curvature="0" /></g></g></svg>