<?xml version="1.0" encoding="UTF-8"?>
<svg xmlns="http://www.w3.org/2000/svg" xmlns:xlink="http://www.w3.org/1999/xlink" width="194pt" height="194pt" viewBox="0 0 194 194" version="1.1">
<g id="surface1">
<path style=" stroke:none;fill-rule:evenodd;fill:rgb(100%,100%,100%);fill-opacity:1;" d="M 0.257813 0.675781 L 193.015625 0.675781 L 193.015625 193.433594 L 0.257813 193.433594 L 0.257813 0.675781 "/>
<path style="fill:none;stroke-width:1.34654;stroke-linecap:butt;stroke-linejoin:miter;stroke:rgb(2.69928%,30.599976%,63.499451%);stroke-opacity:1;stroke-miterlimit:2.6131;" d="M 136.757813 865.782982 L 479.882813 865.782982 " transform="matrix(0.1,0,0,-0.0999998,0,194)"/>
<path style="fill:none;stroke-width:1.34654;stroke-linecap:butt;stroke-linejoin:miter;stroke:rgb(2.69928%,30.599976%,63.499451%);stroke-opacity:1;stroke-miterlimit:2.6131;" d="M 161.601563 927.853418 L 483.242188 928.986233 " transform="matrix(0.1,0,0,-0.0999998,0,194)"/>
<path style="fill:none;stroke-width:1.34654;stroke-linecap:butt;stroke-linejoin:miter;stroke:rgb(2.69928%,30.599976%,63.499451%);stroke-opacity:1;stroke-miterlimit:2.6131;" d="M 196.601563 998.400434 L 471.445313 998.400434 " transform="matrix(0.1,0,0,-0.0999998,0,194)"/>
<path style="fill:none;stroke-width:1.34654;stroke-linecap:butt;stroke-linejoin:miter;stroke:rgb(2.69928%,30.599976%,63.499451%);stroke-opacity:1;stroke-miterlimit:2.6131;" d="M 137.890625 1063.361502 L 447.695313 1063.361502 " transform="matrix(0.1,0,0,-0.0999998,0,194)"/>
<path style="fill:none;stroke-width:1.34654;stroke-linecap:butt;stroke-linejoin:miter;stroke:rgb(2.69928%,30.599976%,63.499451%);stroke-opacity:1;stroke-miterlimit:2.6131;" d="M 137.890625 1132.697578 L 478.789063 1132.697578 L 479.882813 796.290655 L 136.757813 796.290655 Z M 137.890625 1132.697578 " transform="matrix(0.1,0,0,-0.0999998,0,194)"/>
<path style="fill:none;stroke-width:1.34654;stroke-linecap:butt;stroke-linejoin:miter;stroke:rgb(2.69928%,30.599976%,63.499451%);stroke-opacity:1;stroke-miterlimit:2.6131;" d="M 208.4375 1131.603826 L 208.4375 796.290655 " transform="matrix(0.1,0,0,-0.0999998,0,194)"/>
<path style="fill:none;stroke-width:1.34654;stroke-linecap:butt;stroke-linejoin:miter;stroke:rgb(2.69928%,30.599976%,63.499451%);stroke-opacity:1;stroke-miterlimit:2.6131;" d="M 274.453125 1131.603826 L 276.71875 795.235965 " transform="matrix(0.1,0,0,-0.0999998,0,194)"/>
<path style="fill:none;stroke-width:1.34654;stroke-linecap:butt;stroke-linejoin:miter;stroke:rgb(2.69928%,30.599976%,63.499451%);stroke-opacity:1;stroke-miterlimit:2.6131;" d="M 339.414063 1132.697578 L 341.640625 797.501595 " transform="matrix(0.1,0,0,-0.0999998,0,194)"/>
<path style="fill:none;stroke-width:1.34654;stroke-linecap:butt;stroke-linejoin:miter;stroke:rgb(2.69928%,30.599976%,63.499451%);stroke-opacity:1;stroke-miterlimit:2.6131;" d="M 408.203125 1131.603826 L 408.203125 795.235965 " transform="matrix(0.1,0,0,-0.0999998,0,194)"/>
<path style=" stroke:none;fill-rule:evenodd;fill:rgb(2.69928%,30.599976%,63.499451%);fill-opacity:1;" d="M 12.886719 91.222656 L 13.5625 90.832031 L 14.183594 90.832031 L 15.597656 91.222656 L 15.710938 92.242188 L 15.597656 93.425781 L 15.089844 93.53125 L 14.855469 93.933594 L 14.855469 94.390625 L 14.972656 94.722656 L 15.824219 94.390625 L 16.835938 94.273438 L 18.753906 94.390625 L 19.546875 93.933594 L 20.507813 93.53125 L 22.144531 93.3125 L 22.144531 93.644531 L 22.253906 94.160156 L 21.070313 94.5 L 18.984375 95.910156 L 17.800781 96.023438 L 17.121094 96.246094 L 16.726563 96.582031 L 16.386719 97.996094 L 16.726563 102.398438 L 15.425781 103.808594 L 14.972656 104.148438 L 15.089844 104.9375 L 15.933594 106.007813 L 15.710938 106.464844 L 14.019531 106.234375 L 13.675781 104.828125 L 13.898438 104.035156 L 14.019531 103.300781 L 13.789063 101.777344 L 12.492188 103.300781 L 11.816406 103.300781 L 11.367188 103.921875 L 11.199219 104.035156 L 10.96875 103.808594 L 10.96875 101.777344 L 11.59375 101.664063 L 11.816406 101.546875 L 11.699219 100.707031 L 11.082031 100.363281 L 11.929688 98.164063 L 10.289063 98.277344 L 9.558594 98.164063 L 8.992188 97.773438 L 8.878906 97.433594 L 8.761719 97.09375 L 9.441406 96.023438 L 11.699219 95.460938 L 12.492188 94.722656 L 12.886719 93.644531 L 12.269531 93.425781 L 12.152344 92.632813 L 12.152344 92.011719 L 12.375 91.5625 L 12.886719 91.222656 "/>
<path style=" stroke:none;fill-rule:evenodd;fill:rgb(2.69928%,30.599976%,63.499451%);fill-opacity:1;" d="M 22.367188 83.660156 L 21.695313 83.097656 L 21.46875 82.367188 L 21.355469 81.910156 L 21.695313 81.230469 L 22.367188 80.386719 L 22.988281 80.164063 L 23.664063 80.277344 L 25.191406 81.066406 L 26.152344 81.066406 L 26.488281 80.839844 L 27.335938 80.503906 L 28.746094 80.503906 L 29.824219 80.613281 L 31.679688 81.347656 L 33.09375 81.574219 L 34.953125 81.574219 L 35.914063 81.800781 L 37.097656 82.367188 L 37.886719 82.871094 L 37.886719 83.097656 L 37.546875 83.546875 L 36.363281 82.871094 L 36.59375 83.433594 L 36.476563 83.660156 L 36.140625 83.660156 L 34.621094 82.988281 L 34.164063 82.476563 L 31.566406 82.757813 L 30.273438 82.644531 L 29.085938 82.476563 L 28.632813 85.46875 L 28.296875 86.480469 L 27.445313 87.328125 L 26.601563 87.785156 L 26.152344 87.890625 L 25.699219 87.785156 L 24.515625 87.445313 L 23.21875 86.710938 L 22.875 88.125 L 22.253906 88.96875 L 22.03125 89.082031 L 22.253906 90.152344 L 21.695313 90.832031 L 20.730469 91.335938 L 20.167969 91.902344 L 19.828125 91.5625 L 19.210938 92.011719 L 18.753906 91.902344 L 18.644531 91.675781 L 18.984375 90.832031 L 19.828125 90.152344 L 20.167969 89.417969 L 20.617188 87.664063 L 20.730469 86.597656 L 20.617188 85.808594 L 20.730469 85.1875 L 21.238281 84.28125 L 21.582031 84.171875 L 21.917969 84.058594 L 23.441406 84.171875 L 24.175781 84.398438 L 24.964844 84.617188 L 25.300781 82.871094 L 24.066406 83.324219 L 23.554688 83.660156 L 22.367188 83.660156 "/>
<path style=" stroke:none;fill-rule:evenodd;fill:rgb(2.69928%,30.599976%,63.499451%);fill-opacity:1;" d="M 29.703125 90.375 L 30.046875 89.53125 L 30.609375 88.96875 L 31.34375 88.515625 L 32.246094 88.289063 L 33.652344 87.445313 L 34.277344 87.328125 L 34.5 87.445313 L 34.386719 88.003906 L 34.277344 88.289063 L 34.730469 89.300781 L 35.804688 89.703125 L 35.460938 90.265625 L 35.6875 90.714844 L 35.574219 91.449219 L 34.5 92.128906 L 35.183594 92.746094 L 35.804688 92.523438 L 36.871094 92.351563 L 38.171875 92.859375 L 39.414063 93.425781 L 40.144531 93.933594 L 41.21875 94.046875 L 42.464844 92.972656 L 43.476563 92.242188 L 44.09375 91.5625 L 45.503906 91.5625 L 45.957031 91.675781 L 45.398438 92.632813 L 44.886719 92.972656 L 44.320313 93.089844 L 44.09375 93.53125 L 43.363281 94.273438 L 41.550781 95.460938 L 41.101563 95.796875 L 38.171875 95.796875 L 38.511719 96.753906 L 38.28125 97.207031 L 38 97.320313 L 37.777344 97.320313 L 37.4375 99.179688 L 37.324219 101.214844 L 38.171875 101.4375 L 39.695313 102.113281 L 41.445313 103.410156 L 42.464844 104.488281 L 43.984375 108.605469 L 45.285156 111.429688 L 45.734375 112.273438 L 47.367188 113.292969 L 48.21875 113.40625 L 48.21875 114.371094 L 44.886719 114.25 L 43.871094 113.679688 L 43.757813 113.40625 L 44.320313 112.839844 L 44.320313 112.105469 L 43.757813 111.765625 L 43.140625 111.3125 L 42.6875 110.695313 L 42.226563 110.015625 L 41.671875 109.449219 L 41.21875 108.71875 L 40.820313 107.308594 L 40.820313 106.855469 L 37.886719 106.007813 L 36.476563 105.332031 L 36.140625 105.050781 L 35.351563 105.894531 L 33.433594 107.421875 L 32.527344 108.15625 L 30.160156 109.058594 L 27.671875 109.90625 L 22.875 111.203125 L 21.917969 111.765625 L 21.070313 112.726563 L 21.238281 114.25 L 19.941406 114.25 L 18.644531 112.609375 L 18.417969 112.105469 L 18.753906 111.652344 L 19.433594 111.429688 L 20.167969 111.429688 L 20.957031 111.3125 L 23.105469 109.570313 L 25.191406 108.042969 L 26.601563 107.757813 L 28.011719 107.195313 L 30.160156 105.671875 L 31.679688 104.375 L 31.230469 103.410156 L 31.230469 102.847656 L 31.566406 101.777344 L 32.246094 100.476563 L 32.863281 99.914063 L 32.527344 98.953125 L 31.796875 98.164063 L 31.230469 96.976563 L 30.382813 97.542969 L 29.703125 97.996094 L 28.746094 98.390625 L 27.894531 98.617188 L 26.152344 99.578125 L 24.285156 100.253906 L 21.800781 100.363281 L 20.84375 100.59375 L 19.941406 100.59375 L 19.210938 100.476563 L 18.644531 100.140625 L 19.320313 99.691406 L 20.167969 99.292969 L 20.507813 99.292969 L 21.800781 99.410156 L 24.066406 98.617188 L 26.152344 97.433594 L 27.558594 96.46875 L 29.933594 94.609375 L 31.679688 93.53125 L 30.382813 93.425781 L 30.046875 92.351563 L 30.273438 91.449219 L 29.703125 90.375 "/>
<path style=" stroke:none;fill-rule:evenodd;fill:rgb(2.69928%,30.599976%,63.499451%);fill-opacity:1;" d="M 53.96875 90.265625 L 53.855469 91.902344 L 52.898438 92.632813 L 52.785156 93.425781 L 53.011719 94.273438 L 52.898438 94.949219 L 52.617188 95.566406 L 52.617188 90.375 C 52.730469 90.375 52.785156 90.324219 52.785156 90.035156 C 52.785156 89.53125 53.011719 88.289063 53.238281 88.003906 C 53.070313 87.839844 52.84375 87.664063 52.617188 87.554688 L 52.617188 85.519531 L 53.523438 86.144531 L 55.273438 87.214844 L 55.273438 87.785156 L 55.15625 88.289063 Z M 52.617188 95.566406 L 52.449219 96.023438 L 52.332031 98.84375 L 51.941406 101.101563 L 52.21875 102.234375 L 52.21875 103.191406 L 52.332031 104.148438 L 51.714844 104.375 L 51.375 104.488281 L 51.039063 104.375 L 49.738281 104.828125 L 49.402344 104.828125 L 49.003906 104.488281 L 50.527344 103.191406 L 50.695313 102.964844 L 50.695313 102.507813 L 50.078125 100.820313 L 49.738281 100.253906 L 49.738281 96.136719 L 49.402344 100.984375 L 49.289063 101.890625 L 49.738281 102.847656 L 49.738281 103.191406 L 49.402344 103.527344 L 46.914063 103.410156 L 46.464844 103.808594 L 45.957031 103.808594 L 45.957031 103.527344 L 46.074219 103.300781 L 47.988281 102.113281 L 47.597656 99.691406 L 47.257813 98.617188 L 47.144531 97.542969 L 47.03125 94.722656 L 46.914063 93.089844 L 46.914063 92.632813 L 47.597656 91.5625 L 46.914063 90.152344 L 46.296875 88.738281 L 43.140625 88.738281 L 42.226563 88.402344 L 41.328125 88.003906 L 39.414063 86.988281 L 38.28125 86.988281 L 37.546875 86.710938 L 37.777344 86.375 L 37.097656 86.144531 L 36.761719 86.03125 L 36.363281 86.144531 L 37.546875 85.46875 L 41.101563 86.597656 L 42.007813 86.710938 L 43.363281 86.878906 L 43.871094 86.710938 L 45.84375 85.691406 L 46.691406 85.46875 L 46.691406 85.1875 L 45.734375 85.074219 L 45.621094 83.890625 L 45.285156 83.660156 L 45.734375 83.097656 L 45.84375 82.367188 L 46.574219 81.800781 L 47.257813 81.6875 L 47.597656 81.6875 L 48.21875 82.027344 L 48.554688 82.367188 L 48.667969 83.097656 L 48.667969 84.28125 L 48.898438 84.734375 L 49.117188 84.734375 L 49.851563 84.617188 L 51.039063 84.617188 L 51.597656 84.734375 L 52.617188 85.519531 L 52.617188 87.554688 C 52.390625 87.445313 52.21875 87.496094 52.109375 87.785156 C 51.941406 88.289063 51.941406 90.265625 52.332031 90.152344 C 52.390625 90.152344 52.503906 90.324219 52.617188 90.375 L 52.617188 95.566406 "/>
<path style=" stroke:none;fill-rule:evenodd;fill:rgb(2.69928%,30.599976%,63.499451%);fill-opacity:1;" d="M 62.433594 88.003906 L 63.34375 88.003906 C 63.746094 88.003906 64.171875 88.09375 64.171875 88.609375 C 64.171875 89.136719 63.695313 89.214844 63.34375 89.214844 L 60.269531 89.214844 C 59.914063 89.214844 59.4375 89.136719 59.4375 88.609375 C 59.4375 88.09375 59.863281 88.003906 60.269531 88.003906 L 61.226563 88.003906 L 61.226563 81.136719 L 60.269531 81.136719 C 59.914063 81.136719 59.4375 81.0625 59.4375 80.53125 C 59.4375 80.015625 59.863281 79.929688 60.269531 79.929688 L 61.539063 79.929688 C 62.234375 79.929688 62.433594 80.054688 62.433594 80.773438 L 62.433594 88.003906 "/>
<path style=" stroke:none;fill-rule:evenodd;fill:rgb(2.69928%,30.599976%,63.499451%);fill-opacity:1;" d="M 70.675781 80.054688 C 70.777344 79.714844 70.917969 79.410156 71.320313 79.410156 C 71.734375 79.410156 71.886719 79.726563 71.976563 80.054688 L 74.40625 88.582031 C 74.496094 88.886719 74.15625 89.214844 73.800781 89.214844 C 73.410156 89.214844 73.210938 88.886719 73.121094 88.582031 L 72.65625 87.070313 L 69.972656 87.070313 L 69.492188 88.582031 C 69.40625 88.886719 69.203125 89.214844 68.8125 89.214844 C 68.460938 89.214844 68.121094 88.886719 68.207031 88.582031 Z M 71.332031 82.398438 L 71.308594 82.398438 L 70.324219 85.8125 L 72.300781 85.8125 L 71.332031 82.398438 "/>
<path style=" stroke:none;fill-rule:evenodd;fill:rgb(2.69928%,30.599976%,63.499451%);fill-opacity:1;" d="M 77.894531 83.632813 C 77.644531 83.632813 77.214844 83.582031 77.214844 83.972656 C 77.214844 84.175781 77.367188 84.25 77.542969 84.324219 L 80.566406 85.699219 C 81.347656 86.050781 81.75 86.542969 81.75 87.410156 C 81.75 88.632813 80.917969 89.214844 79.761719 89.214844 L 77.894531 89.214844 C 77.265625 89.214844 76.839844 89.1875 76.382813 88.835938 C 76.15625 88.660156 75.828125 88.433594 75.828125 88.128906 C 75.828125 87.789063 76.121094 87.523438 76.460938 87.523438 C 76.648438 87.523438 76.785156 87.589844 76.925781 87.738281 C 77.140625 87.980469 77.519531 88.003906 77.894531 88.003906 L 79.535156 88.003906 C 79.960938 88.003906 80.542969 88.042969 80.542969 87.335938 C 80.542969 87.046875 80.1875 86.859375 79.910156 86.730469 L 77.066406 85.433594 C 76.398438 85.132813 76.007813 84.742188 76.007813 83.960938 C 76.007813 83.003906 76.761719 82.421875 77.667969 82.421875 L 79.734375 82.421875 C 80.402344 82.421875 80.679688 82.460938 81.132813 82.839844 C 81.359375 83.027344 81.613281 83.179688 81.613281 83.519531 C 81.613281 83.859375 81.324219 84.125 80.996094 84.125 C 80.769531 84.125 80.628906 84.035156 80.476563 83.871094 C 80.277344 83.65625 80.0625 83.632813 79.734375 83.632813 L 77.894531 83.632813 "/>
<path style=" stroke:none;fill-rule:evenodd;fill:rgb(2.69928%,30.599976%,63.499451%);fill-opacity:1;" d="M 84.714844 83.632813 C 84.460938 83.632813 84.03125 83.582031 84.03125 83.972656 C 84.03125 84.175781 84.183594 84.25 84.359375 84.324219 L 87.382813 85.699219 C 88.164063 86.050781 88.566406 86.542969 88.566406 87.410156 C 88.566406 88.632813 87.734375 89.214844 86.578125 89.214844 L 84.714844 89.214844 C 84.082031 89.214844 83.65625 89.1875 83.203125 88.835938 C 82.972656 88.660156 82.648438 88.433594 82.648438 88.128906 C 82.648438 87.789063 82.9375 87.523438 83.277344 87.523438 C 83.464844 87.523438 83.605469 87.589844 83.742188 87.738281 C 83.957031 87.980469 84.335938 88.003906 84.714844 88.003906 L 86.351563 88.003906 C 86.777344 88.003906 87.359375 88.042969 87.359375 87.335938 C 87.359375 87.046875 87.003906 86.859375 86.726563 86.730469 L 83.882813 85.433594 C 83.214844 85.132813 82.824219 84.742188 82.824219 83.960938 C 82.824219 83.003906 83.578125 82.421875 84.484375 82.421875 L 86.550781 82.421875 C 87.21875 82.421875 87.496094 82.460938 87.949219 82.839844 C 88.175781 83.027344 88.429688 83.179688 88.429688 83.519531 C 88.429688 83.859375 88.140625 84.125 87.8125 84.125 C 87.585938 84.125 87.445313 84.035156 87.296875 83.871094 C 87.09375 83.65625 86.878906 83.632813 86.550781 83.632813 L 84.714844 83.632813 "/>
<path style=" stroke:none;fill-rule:evenodd;fill:rgb(2.69928%,30.599976%,63.499451%);fill-opacity:1;" d="M 96.050781 88.320313 C 96.050781 88.597656 96.101563 89.214844 95.457031 89.214844 C 94.941406 89.214844 94.851563 88.785156 94.851563 88.367188 L 94.851563 88.167969 L 93.871094 88.808594 C 93.480469 89.0625 93.152344 89.214844 92.824219 89.214844 L 91.929688 89.214844 C 91.589844 89.214844 91.214844 89.113281 90.808594 88.773438 C 90.269531 88.308594 90.28125 87.789063 90.253906 87.132813 L 90.128906 83.328125 C 90.117188 82.890625 90.179688 82.421875 90.734375 82.421875 C 91.25 82.421875 91.3125 82.863281 91.328125 83.253906 L 91.453125 86.972656 C 91.464844 87.246094 91.476563 87.574219 91.578125 87.753906 C 91.679688 87.929688 91.992188 88.003906 92.285156 88.003906 L 92.6875 88.003906 C 92.824219 88.003906 92.953125 87.964844 93.066406 87.890625 L 94.839844 86.769531 L 94.839844 83.253906 C 94.839844 82.839844 94.929688 82.421875 95.445313 82.421875 C 95.960938 82.421875 96.050781 82.839844 96.050781 83.253906 L 96.050781 88.320313 "/>
<path style=" stroke:none;fill-rule:evenodd;fill:rgb(2.69928%,30.599976%,63.499451%);fill-opacity:1;" d="M 97.613281 83.316406 C 97.613281 82.878906 97.664063 82.421875 98.21875 82.421875 C 98.695313 82.421875 98.820313 82.824219 98.820313 83.230469 L 98.820313 83.722656 L 99.765625 82.9375 C 100.105469 82.660156 100.460938 82.421875 100.835938 82.421875 L 101.808594 82.421875 C 102.273438 82.421875 102.664063 82.574219 102.992188 82.902344 C 103.394531 83.304688 103.53125 83.722656 103.53125 84.273438 C 103.53125 84.691406 103.457031 85.117188 102.941406 85.117188 C 102.5 85.117188 102.324219 84.765625 102.324219 84.375 C 102.324219 84.175781 102.324219 84.023438 102.199219 83.847656 C 102.046875 83.632813 101.757813 83.632813 101.46875 83.632813 L 101.113281 83.632813 C 100.886719 83.632813 100.722656 83.746094 100.511719 83.921875 L 98.820313 85.320313 L 98.820313 88.382813 C 98.820313 88.796875 98.734375 89.214844 98.21875 89.214844 C 97.699219 89.214844 97.613281 88.796875 97.613281 88.382813 L 97.613281 83.316406 "/>
<path style=" stroke:none;fill-rule:evenodd;fill:rgb(2.69928%,30.599976%,63.499451%);fill-opacity:1;" d="M 106.171875 83.632813 C 105.820313 83.632813 105.34375 83.558594 105.34375 83.027344 C 105.34375 82.511719 105.769531 82.421875 106.171875 82.421875 L 107.835938 82.421875 C 108.464844 82.421875 108.921875 82.484375 109.398438 82.964844 C 109.863281 83.429688 109.929688 83.796875 109.941406 84.402344 L 110.066406 88.507813 C 110.078125 88.859375 109.902344 89.214844 109.5 89.214844 C 109.183594 89.214844 108.867188 88.949219 108.882813 88.609375 L 108.050781 89.035156 C 107.710938 89.214844 107.699219 89.214844 107.308594 89.214844 L 106.148438 89.214844 C 105.605469 89.214844 105.214844 89.148438 104.773438 88.785156 C 104.269531 88.367188 104.144531 87.929688 104.144531 87.296875 L 104.144531 86.769531 C 104.144531 86.191406 104.285156 85.824219 104.738281 85.421875 C 105.152344 85.054688 105.617188 84.96875 106.148438 84.96875 L 108.742188 84.96875 L 108.742188 84.691406 C 108.742188 83.785156 108.542969 83.632813 107.671875 83.632813 Z M 106.160156 86.175781 C 105.835938 86.175781 105.355469 86.265625 105.355469 86.707031 L 105.355469 87.511719 C 105.355469 87.914063 105.847656 88.003906 106.136719 88.003906 L 107.472656 88.003906 L 108.808594 87.3125 L 108.808594 87.046875 C 108.808594 86.378906 108.617188 86.175781 107.949219 86.175781 L 106.160156 86.175781 "/>
<path style=" stroke:none;fill-rule:evenodd;fill:rgb(2.69928%,30.599976%,63.499451%);fill-opacity:1;" d="M 112.316406 84.867188 L 112.316406 88.382813 C 112.316406 88.796875 112.226563 89.214844 111.710938 89.214844 C 111.195313 89.214844 111.105469 88.796875 111.105469 88.382813 L 111.105469 83.316406 C 111.105469 82.878906 111.15625 82.421875 111.710938 82.421875 C 112.253906 82.421875 112.316406 82.878906 112.316406 83.304688 L 112.316406 83.46875 L 113.300781 82.824219 C 113.613281 82.625 113.953125 82.421875 114.34375 82.421875 L 115.238281 82.421875 C 115.703125 82.421875 115.996094 82.550781 116.359375 82.863281 C 116.902344 83.328125 116.878906 83.847656 116.902344 84.503906 L 117.027344 88.308594 C 117.039063 88.734375 116.976563 89.214844 116.4375 89.214844 C 115.945313 89.214844 115.84375 88.796875 115.832031 88.394531 L 115.703125 84.664063 C 115.679688 83.921875 115.617188 83.632813 114.886719 83.632813 L 114.484375 83.632813 C 114.355469 83.632813 114.230469 83.671875 114.105469 83.746094 L 112.316406 84.867188 "/>
<path style=" stroke:none;fill-rule:evenodd;fill:rgb(2.69928%,30.599976%,63.499451%);fill-opacity:1;" d="M 118.113281 85.230469 C 118.113281 84.488281 118.253906 84.125 118.832031 83.644531 L 119.726563 82.902344 C 120.292969 82.4375 120.585938 82.421875 121.289063 82.421875 L 123.203125 82.421875 C 123.605469 82.421875 124.035156 82.511719 124.035156 83.027344 C 124.035156 83.558594 123.558594 83.632813 123.203125 83.632813 L 121.074219 83.632813 C 120.835938 83.632813 120.597656 83.757813 120.382813 83.933594 L 119.652344 84.550781 C 119.464844 84.703125 119.324219 84.828125 119.324219 85.066406 L 119.324219 86.566406 C 119.324219 86.808594 119.464844 86.933594 119.652344 87.085938 L 120.382813 87.699219 C 120.597656 87.878906 120.835938 88.003906 121.074219 88.003906 L 123.203125 88.003906 C 123.558594 88.003906 124.035156 88.078125 124.035156 88.609375 C 124.035156 89.125 123.605469 89.214844 123.203125 89.214844 L 121.289063 89.214844 C 120.585938 89.214844 120.292969 89.199219 119.726563 88.734375 L 118.832031 87.992188 C 118.253906 87.511719 118.113281 87.148438 118.113281 86.402344 L 118.113281 85.230469 "/>
<path style=" stroke:none;fill-rule:evenodd;fill:rgb(2.69928%,30.599976%,63.499451%);fill-opacity:1;" d="M 127.171875 89.214844 C 126.667969 89.214844 126.46875 89.214844 126.089844 88.886719 L 125.574219 88.433594 C 125.09375 88.003906 124.953125 87.726563 124.953125 87.070313 L 124.953125 84.742188 C 124.953125 84.097656 125.042969 83.722656 125.546875 83.292969 L 125.976563 82.925781 C 126.542969 82.4375 126.820313 82.421875 127.3125 82.421875 L 128.421875 82.421875 C 129.011719 82.421875 129.289063 82.484375 129.753906 82.863281 L 130.246094 83.253906 C 130.800781 83.695313 130.875 84.160156 130.875 84.828125 L 130.875 85.800781 C 130.875 86.492188 130.761719 86.695313 130.046875 86.695313 L 126.164063 86.695313 L 126.164063 87.097656 C 126.164063 87.210938 126.253906 87.359375 126.339844 87.449219 L 126.644531 87.777344 C 126.808594 87.953125 127.046875 88.003906 127.449219 88.003906 L 130.046875 88.003906 C 130.449219 88.003906 130.875 88.09375 130.875 88.609375 C 130.875 89.136719 130.398438 89.214844 130.046875 89.214844 Z M 126.164063 85.484375 L 129.667969 85.484375 L 129.667969 84.753906 C 129.667969 84.527344 129.679688 84.339844 129.515625 84.1875 L 129.050781 83.785156 C 128.898438 83.644531 128.660156 83.632813 128.46875 83.632813 L 127.449219 83.632813 C 127.222656 83.632813 127.035156 83.632813 126.832031 83.769531 L 126.417969 84.074219 C 126.265625 84.1875 126.164063 84.273438 126.164063 84.628906 L 126.164063 85.484375 "/>
<path style=" stroke:none;fill-rule:evenodd;fill:rgb(2.69928%,30.599976%,63.499451%);fill-opacity:1;" d="M 142.351563 79.410156 L 143.925781 79.410156 L 143.925781 88.582031 C 143.925781 88.984375 143.75 89.214844 143.296875 89.214844 C 142.84375 89.214844 142.664063 88.984375 142.664063 88.582031 L 142.664063 81.152344 L 142.640625 81.152344 L 141.445313 82.925781 L 141.445313 83.128906 C 141.445313 83.519531 141.292969 83.882813 140.8125 83.882813 C 140.359375 83.882813 140.183594 83.519531 140.183594 83.128906 L 140.183594 82.925781 L 138.988281 81.152344 L 138.960938 81.152344 L 138.960938 88.582031 C 138.960938 88.984375 138.785156 89.214844 138.332031 89.214844 C 137.878906 89.214844 137.703125 88.984375 137.703125 88.582031 L 137.703125 79.410156 L 139.277344 79.410156 L 140.8125 81.628906 L 142.351563 79.410156 "/>
<path style=" stroke:none;fill-rule:evenodd;fill:rgb(2.69928%,30.599976%,63.499451%);fill-opacity:1;" d="M 147.363281 83.632813 C 147.011719 83.632813 146.535156 83.558594 146.535156 83.027344 C 146.535156 82.511719 146.960938 82.421875 147.363281 82.421875 L 149.027344 82.421875 C 149.65625 82.421875 150.109375 82.484375 150.589844 82.964844 C 151.054688 83.429688 151.117188 83.796875 151.132813 84.402344 L 151.257813 88.507813 C 151.269531 88.859375 151.09375 89.214844 150.691406 89.214844 C 150.375 89.214844 150.0625 88.949219 150.074219 88.609375 L 149.242188 89.035156 C 148.902344 89.214844 148.890625 89.214844 148.496094 89.214844 L 147.339844 89.214844 C 146.796875 89.214844 146.40625 89.148438 145.964844 88.785156 C 145.464844 88.367188 145.335938 87.929688 145.335938 87.296875 L 145.335938 86.769531 C 145.335938 86.191406 145.476563 85.824219 145.929688 85.421875 C 146.34375 85.054688 146.8125 84.96875 147.339844 84.96875 L 149.933594 84.96875 L 149.933594 84.691406 C 149.933594 83.785156 149.734375 83.632813 148.863281 83.632813 Z M 147.351563 86.175781 C 147.023438 86.175781 146.546875 86.265625 146.546875 86.707031 L 146.546875 87.511719 C 146.546875 87.914063 147.035156 88.003906 147.328125 88.003906 L 148.664063 88.003906 L 149.996094 87.3125 L 149.996094 87.046875 C 149.996094 86.378906 149.808594 86.175781 149.140625 86.175781 L 147.351563 86.175781 "/>
<path style=" stroke:none;fill-rule:evenodd;fill:rgb(2.69928%,30.599976%,63.499451%);fill-opacity:1;" d="M 155.511719 88.003906 L 156.421875 88.003906 C 156.824219 88.003906 157.25 88.09375 157.25 88.609375 C 157.25 89.136719 156.773438 89.214844 156.421875 89.214844 L 153.347656 89.214844 C 152.992188 89.214844 152.515625 89.136719 152.515625 88.609375 C 152.515625 88.09375 152.941406 88.003906 153.347656 88.003906 L 154.304688 88.003906 L 154.304688 81.136719 L 153.347656 81.136719 C 152.992188 81.136719 152.515625 81.0625 152.515625 80.53125 C 152.515625 80.015625 152.941406 79.929688 153.347656 79.929688 L 154.617188 79.929688 C 155.3125 79.929688 155.511719 80.054688 155.511719 80.773438 L 155.511719 88.003906 "/>
<path style=" stroke:none;fill-rule:evenodd;fill:rgb(2.69928%,30.599976%,63.499451%);fill-opacity:1;" d="M 160.246094 83.632813 C 159.894531 83.632813 159.414063 83.558594 159.414063 83.027344 C 159.414063 82.511719 159.84375 82.421875 160.246094 82.421875 L 161.910156 82.421875 C 162.539063 82.421875 162.992188 82.484375 163.472656 82.964844 C 163.9375 83.429688 164 83.796875 164.011719 84.402344 L 164.140625 88.507813 C 164.152344 88.859375 163.976563 89.214844 163.570313 89.214844 C 163.257813 89.214844 162.941406 88.949219 162.953125 88.609375 L 162.121094 89.035156 C 161.78125 89.214844 161.769531 89.214844 161.378906 89.214844 L 160.21875 89.214844 C 159.679688 89.214844 159.289063 89.148438 158.847656 88.785156 C 158.34375 88.367188 158.21875 87.929688 158.21875 87.296875 L 158.21875 86.769531 C 158.21875 86.191406 158.355469 85.824219 158.808594 85.421875 C 159.226563 85.054688 159.691406 84.96875 160.21875 84.96875 L 162.816406 84.96875 L 162.816406 84.691406 C 162.816406 83.785156 162.613281 83.632813 161.746094 83.632813 Z M 160.234375 86.175781 C 159.90625 86.175781 159.425781 86.265625 159.425781 86.707031 L 159.425781 87.511719 C 159.425781 87.914063 159.917969 88.003906 160.207031 88.003906 L 161.542969 88.003906 L 162.878906 87.3125 L 162.878906 87.046875 C 162.878906 86.378906 162.691406 86.175781 162.023438 86.175781 L 160.234375 86.175781 "/>
<path style=" stroke:none;fill-rule:evenodd;fill:rgb(2.69928%,30.599976%,63.499451%);fill-opacity:1;" d="M 169.015625 82.421875 C 169.429688 82.421875 169.769531 82.648438 170.210938 83.089844 L 170.410156 83.304688 L 170.410156 80.761719 C 170.410156 80.34375 170.5 79.929688 171.015625 79.929688 C 171.53125 79.929688 171.621094 80.34375 171.621094 80.761719 L 171.621094 88.367188 C 171.621094 88.785156 171.53125 89.214844 171.015625 89.214844 C 170.539063 89.214844 170.410156 88.808594 170.410156 88.40625 L 170.410156 88.332031 L 170.148438 88.597656 C 169.769531 88.949219 169.355469 89.214844 168.988281 89.214844 L 167.816406 89.214844 C 167.414063 89.214844 166.960938 88.9375 166.785156 88.785156 L 166.367188 88.433594 C 165.863281 88.003906 165.699219 87.675781 165.699219 87.035156 L 165.699219 84.601563 C 165.699219 83.960938 165.863281 83.632813 166.367188 83.203125 L 166.785156 82.851563 C 167.160156 82.523438 167.4375 82.421875 167.941406 82.421875 Z M 166.910156 86.554688 C 166.910156 86.894531 166.910156 87.324219 167.097656 87.476563 L 167.464844 87.765625 C 167.613281 87.890625 167.765625 88.003906 167.917969 88.003906 L 168.773438 88.003906 C 168.925781 88.003906 169.140625 87.902344 169.367188 87.699219 L 170.058594 87.109375 C 170.234375 86.957031 170.410156 86.808594 170.410156 86.578125 L 170.410156 85.054688 C 170.410156 84.828125 170.234375 84.679688 170.058594 84.527344 L 169.367188 83.933594 C 169.140625 83.734375 168.925781 83.632813 168.773438 83.632813 L 167.917969 83.632813 C 167.765625 83.632813 167.613281 83.746094 167.464844 83.871094 L 167.097656 84.160156 C 166.910156 84.3125 166.910156 84.742188 166.910156 85.082031 L 166.910156 86.554688 "/>
<path style=" stroke:none;fill-rule:evenodd;fill:rgb(2.69928%,30.599976%,63.499451%);fill-opacity:1;" d="M 176.027344 88.003906 L 176.933594 88.003906 C 177.335938 88.003906 177.765625 88.09375 177.765625 88.609375 C 177.765625 89.136719 177.285156 89.214844 176.933594 89.214844 L 173.859375 89.214844 C 173.507813 89.214844 173.027344 89.136719 173.027344 88.609375 C 173.027344 88.09375 173.457031 88.003906 173.859375 88.003906 L 174.816406 88.003906 L 174.816406 83.632813 L 173.859375 83.632813 C 173.507813 83.632813 173.027344 83.558594 173.027344 83.027344 C 173.027344 82.511719 173.457031 82.421875 173.859375 82.421875 L 175.132813 82.421875 C 175.824219 82.421875 176.027344 82.550781 176.027344 83.265625 Z M 174.199219 79.980469 C 174.199219 79.550781 174.4375 79.410156 174.765625 79.410156 L 175.460938 79.410156 C 175.785156 79.410156 176.027344 79.550781 176.027344 79.980469 L 176.027344 80.558594 C 176.027344 80.988281 175.785156 81.125 175.460938 81.125 L 174.765625 81.125 C 174.4375 81.125 174.199219 80.988281 174.199219 80.558594 L 174.199219 79.980469 "/>
<path style=" stroke:none;fill-rule:evenodd;fill:rgb(2.69928%,30.599976%,63.499451%);fill-opacity:1;" d="M 180.808594 89.214844 C 180.304688 89.214844 180.101563 89.214844 179.722656 88.886719 L 179.207031 88.433594 C 178.730469 88.003906 178.589844 87.726563 178.589844 87.070313 L 178.589844 84.742188 C 178.589844 84.097656 178.679688 83.722656 179.183594 83.292969 L 179.609375 82.925781 C 180.179688 82.4375 180.453125 82.421875 180.945313 82.421875 L 182.054688 82.421875 C 182.648438 82.421875 182.925781 82.484375 183.390625 82.863281 L 183.882813 83.253906 C 184.4375 83.695313 184.511719 84.160156 184.511719 84.828125 L 184.511719 85.800781 C 184.511719 86.492188 184.398438 86.695313 183.679688 86.695313 L 179.800781 86.695313 L 179.800781 87.097656 C 179.800781 87.210938 179.886719 87.359375 179.976563 87.449219 L 180.277344 87.777344 C 180.441406 87.953125 180.683594 88.003906 181.085938 88.003906 L 183.679688 88.003906 C 184.082031 88.003906 184.511719 88.09375 184.511719 88.609375 C 184.511719 89.136719 184.03125 89.214844 183.679688 89.214844 Z M 179.800781 85.484375 L 183.304688 85.484375 L 183.304688 84.753906 C 183.304688 84.527344 183.316406 84.339844 183.152344 84.1875 L 182.683594 83.785156 C 182.535156 83.644531 182.292969 83.632813 182.105469 83.632813 L 181.085938 83.632813 C 180.859375 83.632813 180.667969 83.632813 180.46875 83.769531 L 180.050781 84.074219 C 179.902344 84.1875 179.800781 84.273438 179.800781 84.628906 L 179.800781 85.484375 "/>
<path style=" stroke:none;fill-rule:evenodd;fill:rgb(2.69928%,30.599976%,63.499451%);fill-opacity:1;" d="M 59.53125 94.105469 C 59.371094 94.105469 59.105469 94.074219 59.105469 94.320313 C 59.105469 94.445313 59.199219 94.488281 59.308594 94.535156 L 61.1875 95.390625 C 61.671875 95.609375 61.921875 95.914063 61.921875 96.453125 C 61.921875 97.210938 61.40625 97.570313 60.6875 97.570313 L 59.53125 97.570313 C 59.136719 97.570313 58.871094 97.554688 58.589844 97.335938 C 58.449219 97.226563 58.246094 97.085938 58.246094 96.898438 C 58.246094 96.6875 58.425781 96.523438 58.636719 96.523438 C 58.753906 96.523438 58.839844 96.5625 58.925781 96.65625 C 59.058594 96.804688 59.292969 96.820313 59.53125 96.820313 L 60.546875 96.820313 C 60.8125 96.820313 61.171875 96.84375 61.171875 96.40625 C 61.171875 96.226563 60.953125 96.109375 60.78125 96.03125 L 59.011719 95.226563 C 58.597656 95.039063 58.355469 94.792969 58.355469 94.308594 C 58.355469 93.714844 58.824219 93.355469 59.386719 93.355469 L 60.671875 93.355469 C 61.085938 93.355469 61.257813 93.378906 61.539063 93.613281 C 61.679688 93.730469 61.835938 93.824219 61.835938 94.035156 C 61.835938 94.246094 61.65625 94.410156 61.453125 94.410156 C 61.3125 94.410156 61.226563 94.355469 61.132813 94.253906 C 61.007813 94.121094 60.875 94.105469 60.671875 94.105469 L 59.53125 94.105469 "/>
<path style=" stroke:none;fill-rule:evenodd;fill:rgb(2.69928%,30.599976%,63.499451%);fill-opacity:1;" d="M 64.582031 97.570313 C 64.265625 97.570313 64.140625 97.570313 63.90625 97.367188 L 63.585938 97.085938 C 63.289063 96.820313 63.203125 96.648438 63.203125 96.242188 L 63.203125 94.792969 C 63.203125 94.398438 63.257813 94.160156 63.570313 93.894531 L 63.835938 93.671875 C 64.1875 93.363281 64.359375 93.355469 64.664063 93.355469 L 65.355469 93.355469 C 65.722656 93.355469 65.894531 93.394531 66.183594 93.628906 L 66.488281 93.871094 C 66.832031 94.144531 66.878906 94.433594 66.878906 94.847656 L 66.878906 95.453125 C 66.878906 95.882813 66.808594 96.007813 66.363281 96.007813 L 63.953125 96.007813 L 63.953125 96.257813 C 63.953125 96.328125 64.007813 96.421875 64.0625 96.476563 L 64.25 96.679688 C 64.351563 96.789063 64.5 96.820313 64.753906 96.820313 L 66.363281 96.820313 C 66.613281 96.820313 66.878906 96.875 66.878906 97.195313 C 66.878906 97.523438 66.582031 97.570313 66.363281 97.570313 Z M 63.953125 95.257813 L 66.128906 95.257813 L 66.128906 94.804688 C 66.128906 94.664063 66.136719 94.542969 66.035156 94.453125 L 65.746094 94.199219 C 65.652344 94.113281 65.503906 94.105469 65.386719 94.105469 L 64.753906 94.105469 C 64.609375 94.105469 64.492188 94.105469 64.367188 94.195313 L 64.109375 94.382813 C 64.015625 94.453125 63.953125 94.507813 63.953125 94.726563 L 63.953125 95.257813 "/>
<path style=" stroke:none;fill-rule:evenodd;fill:rgb(2.69928%,30.599976%,63.499451%);fill-opacity:1;" d="M 68.160156 95.101563 C 68.160156 94.640625 68.246094 94.410156 68.605469 94.113281 L 69.160156 93.652344 C 69.515625 93.363281 69.691406 93.355469 70.132813 93.355469 L 71.320313 93.355469 C 71.570313 93.355469 71.835938 93.410156 71.835938 93.730469 C 71.835938 94.058594 71.539063 94.105469 71.320313 94.105469 L 70 94.105469 C 69.851563 94.105469 69.703125 94.183594 69.570313 94.292969 L 69.113281 94.679688 C 68.996094 94.773438 68.910156 94.847656 68.910156 95 L 68.910156 95.929688 C 68.910156 96.078125 68.996094 96.15625 69.113281 96.25 L 69.570313 96.632813 C 69.703125 96.742188 69.851563 96.820313 70 96.820313 L 71.320313 96.820313 C 71.539063 96.820313 71.835938 96.867188 71.835938 97.195313 C 71.835938 97.515625 71.570313 97.570313 71.320313 97.570313 L 70.132813 97.570313 C 69.691406 97.570313 69.515625 97.5625 69.160156 97.273438 L 68.605469 96.8125 C 68.246094 96.515625 68.160156 96.289063 68.160156 95.828125 L 68.160156 95.101563 "/>
<path style=" stroke:none;fill-rule:evenodd;fill:rgb(2.69928%,30.599976%,63.499451%);fill-opacity:1;" d="M 77.105469 97.015625 C 77.105469 97.1875 77.136719 97.570313 76.738281 97.570313 C 76.417969 97.570313 76.363281 97.304688 76.363281 97.046875 L 76.363281 96.921875 L 75.753906 97.320313 C 75.511719 97.476563 75.308594 97.570313 75.105469 97.570313 L 74.546875 97.570313 C 74.339844 97.570313 74.101563 97.507813 73.851563 97.296875 C 73.515625 97.007813 73.523438 96.6875 73.507813 96.28125 L 73.429688 93.921875 C 73.421875 93.644531 73.460938 93.355469 73.804688 93.355469 C 74.125 93.355469 74.164063 93.628906 74.171875 93.871094 L 74.253906 96.179688 C 74.257813 96.351563 74.265625 96.554688 74.332031 96.664063 C 74.394531 96.773438 74.589844 96.820313 74.769531 96.820313 L 75.019531 96.820313 C 75.105469 96.820313 75.183594 96.796875 75.253906 96.75 L 76.355469 96.054688 L 76.355469 93.871094 C 76.355469 93.613281 76.410156 93.355469 76.730469 93.355469 C 77.050781 93.355469 77.105469 93.613281 77.105469 93.871094 L 77.105469 97.015625 "/>
<path style=" stroke:none;fill-rule:evenodd;fill:rgb(2.69928%,30.599976%,63.499451%);fill-opacity:1;" d="M 78.699219 93.910156 C 78.699219 93.636719 78.730469 93.355469 79.078125 93.355469 C 79.371094 93.355469 79.453125 93.605469 79.453125 93.855469 L 79.453125 94.160156 L 80.039063 93.675781 C 80.25 93.503906 80.46875 93.355469 80.703125 93.355469 L 81.304688 93.355469 C 81.59375 93.355469 81.835938 93.449219 82.039063 93.652344 C 82.289063 93.902344 82.375 94.160156 82.375 94.507813 C 82.375 94.765625 82.328125 95.03125 82.007813 95.03125 C 81.734375 95.03125 81.625 94.8125 81.625 94.570313 C 81.625 94.445313 81.625 94.347656 81.546875 94.238281 C 81.453125 94.105469 81.273438 94.105469 81.09375 94.105469 L 80.875 94.105469 C 80.734375 94.105469 80.632813 94.175781 80.5 94.285156 L 79.453125 95.15625 L 79.453125 97.054688 C 79.453125 97.3125 79.398438 97.570313 79.078125 97.570313 C 78.753906 97.570313 78.699219 97.3125 78.699219 97.054688 L 78.699219 93.910156 "/>
<path style=" stroke:none;fill-rule:evenodd;fill:rgb(2.69928%,30.599976%,63.499451%);fill-opacity:1;" d="M 85.417969 96.820313 L 85.980469 96.820313 C 86.230469 96.820313 86.496094 96.875 86.496094 97.195313 C 86.496094 97.523438 86.199219 97.570313 85.980469 97.570313 L 84.070313 97.570313 C 83.851563 97.570313 83.554688 97.523438 83.554688 97.195313 C 83.554688 96.875 83.820313 96.820313 84.070313 96.820313 L 84.667969 96.820313 L 84.667969 94.105469 L 84.070313 94.105469 C 83.851563 94.105469 83.554688 94.058594 83.554688 93.730469 C 83.554688 93.410156 83.820313 93.355469 84.070313 93.355469 L 84.863281 93.355469 C 85.292969 93.355469 85.417969 93.433594 85.417969 93.878906 Z M 84.285156 91.839844 C 84.285156 91.574219 84.433594 91.488281 84.636719 91.488281 L 85.066406 91.488281 C 85.269531 91.488281 85.417969 91.574219 85.417969 91.839844 L 85.417969 92.199219 C 85.417969 92.464844 85.269531 92.550781 85.066406 92.550781 L 84.636719 92.550781 C 84.433594 92.550781 84.285156 92.464844 84.285156 92.199219 L 84.285156 91.839844 "/>
<path style=" stroke:none;fill-rule:evenodd;fill:rgb(2.69928%,30.599976%,63.499451%);fill-opacity:1;" d="M 88.714844 96.15625 C 88.714844 96.578125 88.699219 96.820313 89.21875 96.820313 L 89.601563 96.820313 C 89.90625 96.820313 90.046875 96.796875 90.125 96.492188 C 90.171875 96.3125 90.3125 96.1875 90.5 96.1875 C 90.710938 96.1875 90.882813 96.351563 90.882813 96.5625 C 90.882813 96.773438 90.75 97.039063 90.625 97.1875 C 90.351563 97.515625 89.992188 97.570313 89.59375 97.570313 L 89.210938 97.570313 C 88.832031 97.570313 88.503906 97.484375 88.238281 97.195313 C 87.949219 96.875 87.964844 96.554688 87.964844 96.148438 L 87.964844 94.105469 L 87.722656 94.105469 C 87.503906 94.105469 87.207031 94.058594 87.207031 93.730469 C 87.207031 93.410156 87.472656 93.355469 87.722656 93.355469 L 87.964844 93.355469 L 87.964844 92.589844 C 87.964844 92.332031 88.019531 92.074219 88.339844 92.074219 C 88.660156 92.074219 88.714844 92.332031 88.714844 92.589844 L 88.714844 93.355469 L 89.976563 93.355469 C 90.226563 93.355469 90.492188 93.410156 90.492188 93.730469 C 90.492188 94.058594 90.195313 94.105469 89.976563 94.105469 L 88.714844 94.105469 L 88.714844 96.15625 "/>
<path style=" stroke:none;fill-rule:evenodd;fill:rgb(2.69928%,30.599976%,63.499451%);fill-opacity:1;" d="M 93.226563 97.570313 C 92.914063 97.570313 92.789063 97.570313 92.554688 97.367188 L 92.234375 97.085938 C 91.9375 96.820313 91.851563 96.648438 91.851563 96.242188 L 91.851563 94.792969 C 91.851563 94.398438 91.90625 94.160156 92.21875 93.894531 L 92.484375 93.671875 C 92.835938 93.363281 93.007813 93.355469 93.3125 93.355469 L 94 93.355469 C 94.367188 93.355469 94.539063 93.394531 94.832031 93.628906 L 95.136719 93.871094 C 95.480469 94.144531 95.527344 94.433594 95.527344 94.847656 L 95.527344 95.453125 C 95.527344 95.882813 95.457031 96.007813 95.011719 96.007813 L 92.601563 96.007813 L 92.601563 96.257813 C 92.601563 96.328125 92.65625 96.421875 92.710938 96.476563 L 92.898438 96.679688 C 93 96.789063 93.148438 96.820313 93.398438 96.820313 L 95.011719 96.820313 C 95.261719 96.820313 95.527344 96.875 95.527344 97.195313 C 95.527344 97.523438 95.230469 97.570313 95.011719 97.570313 Z M 92.601563 95.257813 L 94.777344 95.257813 L 94.777344 94.804688 C 94.777344 94.664063 94.785156 94.542969 94.683594 94.453125 L 94.394531 94.199219 C 94.296875 94.113281 94.152344 94.105469 94.03125 94.105469 L 93.398438 94.105469 C 93.257813 94.105469 93.140625 94.105469 93.015625 94.195313 L 92.757813 94.382813 C 92.664063 94.453125 92.601563 94.507813 92.601563 94.726563 L 92.601563 95.257813 "/>
<path style=" stroke:none;fill-rule:evenodd;fill:rgb(2.69928%,30.599976%,63.499451%);fill-opacity:1;" d="M 102.121094 94.105469 C 101.964844 94.105469 101.699219 94.074219 101.699219 94.320313 C 101.699219 94.445313 101.792969 94.488281 101.902344 94.535156 L 103.777344 95.390625 C 104.265625 95.609375 104.515625 95.914063 104.515625 96.453125 C 104.515625 97.210938 103.996094 97.570313 103.277344 97.570313 L 102.121094 97.570313 C 101.730469 97.570313 101.464844 97.554688 101.183594 97.335938 C 101.042969 97.226563 100.839844 97.085938 100.839844 96.898438 C 100.839844 96.6875 101.019531 96.523438 101.230469 96.523438 C 101.347656 96.523438 101.433594 96.5625 101.519531 96.65625 C 101.652344 96.804688 101.886719 96.820313 102.121094 96.820313 L 103.136719 96.820313 C 103.402344 96.820313 103.765625 96.84375 103.765625 96.40625 C 103.765625 96.226563 103.546875 96.109375 103.371094 96.03125 L 101.605469 95.226563 C 101.191406 95.039063 100.949219 94.792969 100.949219 94.308594 C 100.949219 93.714844 101.417969 93.355469 101.980469 93.355469 L 103.261719 93.355469 C 103.679688 93.355469 103.851563 93.378906 104.132813 93.613281 C 104.273438 93.730469 104.429688 93.824219 104.429688 94.035156 C 104.429688 94.246094 104.246094 94.410156 104.046875 94.410156 C 103.902344 94.410156 103.816406 94.355469 103.722656 94.253906 C 103.597656 94.121094 103.464844 94.105469 103.261719 94.105469 L 102.121094 94.105469 "/>
<path style=" stroke:none;fill-rule:evenodd;fill:rgb(2.69928%,30.599976%,63.499451%);fill-opacity:1;" d="M 105.484375 94.757813 C 105.484375 94.253906 105.585938 94.085938 105.960938 93.777344 C 106.328125 93.472656 106.5 93.355469 107.023438 93.355469 L 107.617188 93.355469 C 108.140625 93.355469 108.3125 93.472656 108.679688 93.777344 C 109.058594 94.085938 109.15625 94.253906 109.15625 94.757813 L 109.15625 96.171875 C 109.15625 96.664063 109.035156 96.851563 108.640625 97.179688 C 108.25 97.507813 108.09375 97.570313 107.617188 97.570313 L 107.023438 97.570313 C 106.546875 97.570313 106.390625 97.507813 106 97.179688 C 105.609375 96.851563 105.484375 96.664063 105.484375 96.171875 Z M 106.234375 96.171875 C 106.234375 96.328125 106.289063 96.429688 106.507813 96.617188 C 106.671875 96.757813 106.789063 96.820313 107.023438 96.820313 L 107.617188 96.820313 C 107.851563 96.820313 107.96875 96.757813 108.132813 96.617188 C 108.351563 96.429688 108.40625 96.328125 108.40625 96.171875 L 108.40625 94.757813 C 108.40625 94.601563 108.351563 94.496094 108.132813 94.308594 C 107.96875 94.167969 107.851563 94.105469 107.617188 94.105469 L 107.023438 94.105469 C 106.789063 94.105469 106.671875 94.167969 106.507813 94.308594 C 106.289063 94.496094 106.234375 94.601563 106.234375 94.757813 L 106.234375 96.171875 "/>
<path style=" stroke:none;fill-rule:evenodd;fill:rgb(2.69928%,30.599976%,63.499451%);fill-opacity:1;" d="M 110.285156 95.101563 C 110.285156 94.640625 110.371094 94.410156 110.730469 94.113281 L 111.285156 93.652344 C 111.636719 93.363281 111.816406 93.355469 112.253906 93.355469 L 113.441406 93.355469 C 113.691406 93.355469 113.960938 93.410156 113.960938 93.730469 C 113.960938 94.058594 113.660156 94.105469 113.441406 94.105469 L 112.121094 94.105469 C 111.972656 94.105469 111.824219 94.183594 111.691406 94.292969 L 111.238281 94.679688 C 111.121094 94.773438 111.035156 94.847656 111.035156 95 L 111.035156 95.929688 C 111.035156 96.078125 111.121094 96.15625 111.238281 96.25 L 111.691406 96.632813 C 111.824219 96.742188 111.972656 96.820313 112.121094 96.820313 L 113.441406 96.820313 C 113.660156 96.820313 113.960938 96.867188 113.960938 97.195313 C 113.960938 97.515625 113.691406 97.570313 113.441406 97.570313 L 112.253906 97.570313 C 111.816406 97.570313 111.636719 97.5625 111.285156 97.273438 L 110.730469 96.8125 C 110.371094 96.515625 110.285156 96.289063 110.285156 95.828125 L 110.285156 95.101563 "/>
<path style=" stroke:none;fill-rule:evenodd;fill:rgb(2.69928%,30.599976%,63.499451%);fill-opacity:1;" d="M 116.6875 96.820313 L 117.25 96.820313 C 117.5 96.820313 117.765625 96.875 117.765625 97.195313 C 117.765625 97.523438 117.46875 97.570313 117.25 97.570313 L 115.34375 97.570313 C 115.125 97.570313 114.828125 97.523438 114.828125 97.195313 C 114.828125 96.875 115.09375 96.820313 115.34375 96.820313 L 115.9375 96.820313 L 115.9375 94.105469 L 115.34375 94.105469 C 115.125 94.105469 114.828125 94.058594 114.828125 93.730469 C 114.828125 93.410156 115.09375 93.355469 115.34375 93.355469 L 116.132813 93.355469 C 116.5625 93.355469 116.6875 93.433594 116.6875 93.878906 Z M 115.554688 91.839844 C 115.554688 91.574219 115.703125 91.488281 115.90625 91.488281 L 116.335938 91.488281 C 116.539063 91.488281 116.6875 91.574219 116.6875 91.839844 L 116.6875 92.199219 C 116.6875 92.464844 116.539063 92.550781 116.335938 92.550781 L 115.90625 92.550781 C 115.703125 92.550781 115.554688 92.464844 115.554688 92.199219 L 115.554688 91.839844 "/>
<path style=" stroke:none;fill-rule:evenodd;fill:rgb(2.69928%,30.599976%,63.499451%);fill-opacity:1;" d="M 119.894531 94.105469 C 119.675781 94.105469 119.378906 94.058594 119.378906 93.730469 C 119.378906 93.410156 119.644531 93.355469 119.894531 93.355469 L 120.925781 93.355469 C 121.316406 93.355469 121.597656 93.394531 121.894531 93.691406 C 122.183594 93.980469 122.222656 94.210938 122.230469 94.585938 L 122.308594 97.132813 C 122.316406 97.351563 122.207031 97.570313 121.957031 97.570313 C 121.761719 97.570313 121.566406 97.40625 121.574219 97.195313 L 121.058594 97.460938 C 120.847656 97.570313 120.839844 97.570313 120.597656 97.570313 L 119.878906 97.570313 C 119.542969 97.570313 119.300781 97.53125 119.023438 97.304688 C 118.714844 97.046875 118.636719 96.773438 118.636719 96.382813 L 118.636719 96.054688 C 118.636719 95.695313 118.722656 95.46875 119.003906 95.21875 C 119.261719 94.992188 119.550781 94.9375 119.878906 94.9375 L 121.488281 94.9375 L 121.488281 94.765625 C 121.488281 94.199219 121.363281 94.105469 120.824219 94.105469 Z M 119.886719 95.6875 C 119.683594 95.6875 119.386719 95.742188 119.386719 96.015625 L 119.386719 96.515625 C 119.386719 96.765625 119.691406 96.820313 119.871094 96.820313 L 120.699219 96.820313 L 121.527344 96.390625 L 121.527344 96.226563 C 121.527344 95.8125 121.410156 95.6875 120.996094 95.6875 L 119.886719 95.6875 "/>
<path style=" stroke:none;fill-rule:evenodd;fill:rgb(2.69928%,30.599976%,63.499451%);fill-opacity:1;" d="M 125.195313 96.820313 L 125.757813 96.820313 C 126.007813 96.820313 126.273438 96.875 126.273438 97.195313 C 126.273438 97.523438 125.976563 97.570313 125.757813 97.570313 L 123.851563 97.570313 C 123.632813 97.570313 123.335938 97.523438 123.335938 97.195313 C 123.335938 96.875 123.601563 96.820313 123.851563 96.820313 L 124.445313 96.820313 L 124.445313 92.558594 L 123.851563 92.558594 C 123.632813 92.558594 123.335938 92.511719 123.335938 92.183594 C 123.335938 91.863281 123.601563 91.808594 123.851563 91.808594 L 124.640625 91.808594 C 125.070313 91.808594 125.195313 91.886719 125.195313 92.332031 L 125.195313 96.820313 "/>
<path style=" stroke:none;fill-rule:evenodd;fill:rgb(2.69928%,30.599976%,63.499451%);fill-opacity:1;" d="M 128.515625 97.570313 C 128.203125 97.570313 128.078125 97.570313 127.84375 97.367188 L 127.523438 97.085938 C 127.226563 96.820313 127.140625 96.648438 127.140625 96.242188 L 127.140625 94.792969 C 127.140625 94.398438 127.195313 94.160156 127.507813 93.894531 L 127.773438 93.671875 C 128.128906 93.363281 128.296875 93.355469 128.605469 93.355469 L 129.289063 93.355469 C 129.660156 93.355469 129.832031 93.394531 130.121094 93.628906 L 130.425781 93.871094 C 130.769531 94.144531 130.816406 94.433594 130.816406 94.847656 L 130.816406 95.453125 C 130.816406 95.882813 130.746094 96.007813 130.300781 96.007813 L 127.890625 96.007813 L 127.890625 96.257813 C 127.890625 96.328125 127.945313 96.421875 128.003906 96.476563 L 128.1875 96.679688 C 128.289063 96.789063 128.4375 96.820313 128.6875 96.820313 L 130.300781 96.820313 C 130.550781 96.820313 130.816406 96.875 130.816406 97.195313 C 130.816406 97.523438 130.519531 97.570313 130.300781 97.570313 Z M 127.890625 95.257813 L 130.066406 95.257813 L 130.066406 94.804688 C 130.066406 94.664063 130.074219 94.542969 129.972656 94.453125 L 129.683594 94.199219 C 129.589844 94.113281 129.441406 94.105469 129.324219 94.105469 L 128.6875 94.105469 C 128.550781 94.105469 128.433594 94.105469 128.304688 94.195313 L 128.046875 94.382813 C 127.953125 94.453125 127.890625 94.507813 127.890625 94.726563 L 127.890625 95.257813 "/>
<path style=" stroke:none;fill-rule:evenodd;fill:rgb(2.69928%,30.599976%,63.499451%);fill-opacity:1;" d="M 58.152344 108.613281 L 60.34375 108.613281 C 61.492188 108.613281 62.015625 109.320313 62.015625 110.421875 C 62.015625 110.875 61.914063 111.289063 61.5 111.65625 C 61.945313 112.078125 62.015625 112.492188 62.015625 113.070313 C 62.015625 114.09375 61.335938 114.699219 60.34375 114.699219 L 58.152344 114.699219 Z M 58.933594 111.265625 L 60.34375 111.265625 C 60.90625 111.265625 61.234375 111.015625 61.234375 110.421875 C 61.234375 109.765625 61.054688 109.398438 60.34375 109.398438 L 58.933594 109.398438 L 58.933594 113.917969 L 60.34375 113.917969 C 60.90625 113.917969 61.234375 113.664063 61.234375 113.070313 C 61.234375 112.414063 61.054688 112.046875 60.34375 112.046875 L 58.933594 112.046875 L 58.933594 113.917969 L 58.933594 111.265625 "/>
<path style=" stroke:none;fill-rule:evenodd;fill:rgb(2.69928%,30.599976%,63.499451%);fill-opacity:1;" d="M 67.238281 110.8125 C 67.386719 111.117188 67.441406 111.34375 67.441406 111.679688 C 67.441406 112.054688 67.339844 112.289063 67.183594 112.609375 L 66.464844 114.050781 C 66.277344 114.425781 65.964844 114.699219 65.511719 114.699219 C 65.058594 114.699219 64.746094 114.425781 64.554688 114.050781 L 63.835938 112.609375 C 63.679688 112.289063 63.578125 112.054688 63.578125 111.679688 C 63.578125 111.34375 63.632813 111.117188 63.78125 110.8125 L 64.566406 109.257813 C 64.753906 108.890625 65.074219 108.613281 65.511719 108.613281 C 65.949219 108.613281 66.269531 108.890625 66.457031 109.257813 Z M 65.777344 109.632813 C 65.714844 109.507813 65.675781 109.398438 65.511719 109.398438 C 65.347656 109.398438 65.308594 109.507813 65.246094 109.632813 L 64.539063 111.046875 C 64.421875 111.273438 64.359375 111.421875 64.359375 111.679688 C 64.359375 111.882813 64.40625 112.023438 64.492188 112.195313 L 65.246094 113.679688 C 65.300781 113.789063 65.355469 113.917969 65.511719 113.917969 C 65.667969 113.917969 65.722656 113.789063 65.777344 113.679688 L 66.527344 112.195313 C 66.613281 112.023438 66.660156 111.882813 66.660156 111.679688 C 66.660156 111.421875 66.597656 111.273438 66.480469 111.046875 L 65.777344 109.632813 "/>
<path style=" stroke:none;fill-rule:evenodd;fill:rgb(2.69928%,30.599976%,63.499451%);fill-opacity:1;" d="M 70.273438 114.699219 C 69.882813 114.699219 69.578125 114.605469 69.300781 114.300781 C 69.042969 114.011719 69.003906 113.726563 69.003906 113.367188 L 69.003906 109.007813 C 69.003906 108.757813 69.113281 108.613281 69.394531 108.613281 C 69.675781 108.613281 69.789063 108.757813 69.789063 109.007813 L 69.789063 113.367188 C 69.789063 113.808594 69.921875 113.917969 70.273438 113.917969 L 71.601563 113.917969 C 71.953125 113.917969 72.085938 113.808594 72.085938 113.367188 L 72.085938 109.007813 C 72.085938 108.757813 72.195313 108.613281 72.476563 108.613281 C 72.757813 108.613281 72.867188 108.757813 72.867188 109.007813 L 72.867188 113.367188 C 72.867188 113.726563 72.828125 114.011719 72.570313 114.300781 C 72.296875 114.605469 71.992188 114.699219 71.601563 114.699219 L 70.273438 114.699219 "/>
<path style=" stroke:none;fill-rule:evenodd;fill:rgb(2.69928%,30.599976%,63.499451%);fill-opacity:1;" d="M 76.535156 114.699219 C 75.949219 114.699219 75.613281 114.464844 75.363281 113.957031 L 74.644531 112.5 C 74.511719 112.234375 74.429688 111.984375 74.429688 111.679688 C 74.429688 111.335938 74.492188 111.125 74.652344 110.8125 L 75.371094 109.363281 C 75.636719 108.824219 75.972656 108.613281 76.574219 108.613281 L 77.902344 108.613281 C 78.074219 108.613281 78.292969 108.707031 78.292969 109.007813 C 78.292969 109.289063 78.082031 109.398438 77.902344 109.398438 L 76.597656 109.398438 C 76.261719 109.398438 76.207031 109.429688 76.058594 109.726563 L 75.378906 111.085938 C 75.277344 111.296875 75.214844 111.4375 75.214844 111.679688 C 75.214844 111.898438 75.285156 112.03125 75.378906 112.21875 L 76.042969 113.570313 C 76.199219 113.894531 76.277344 113.917969 76.628906 113.917969 L 77.902344 113.917969 C 78.074219 113.917969 78.292969 114.011719 78.292969 114.304688 C 78.292969 114.589844 78.082031 114.699219 77.902344 114.699219 L 76.535156 114.699219 "/>
<path style=" stroke:none;fill-rule:evenodd;fill:rgb(2.69928%,30.599976%,63.499451%);fill-opacity:1;" d="M 80.640625 112.046875 L 80.640625 114.304688 C 80.640625 114.558594 80.53125 114.699219 80.25 114.699219 C 79.96875 114.699219 79.859375 114.558594 79.859375 114.304688 L 79.859375 109.007813 C 79.859375 108.757813 79.96875 108.613281 80.25 108.613281 C 80.53125 108.613281 80.640625 108.757813 80.640625 109.007813 L 80.640625 111.265625 L 82.9375 111.265625 L 82.9375 109.007813 C 82.9375 108.757813 83.046875 108.613281 83.328125 108.613281 C 83.609375 108.613281 83.71875 108.757813 83.71875 109.007813 L 83.71875 114.304688 C 83.71875 114.558594 83.609375 114.699219 83.328125 114.699219 C 83.046875 114.699219 82.9375 114.558594 82.9375 114.304688 L 82.9375 112.046875 L 80.640625 112.046875 "/>
<path style=" stroke:none;fill-rule:evenodd;fill:rgb(2.69928%,30.599976%,63.499451%);fill-opacity:1;" d="M 88.753906 113.917969 C 88.960938 113.917969 89.148438 114.027344 89.148438 114.304688 C 89.148438 114.589844 88.960938 114.699219 88.753906 114.699219 L 85.285156 114.699219 L 85.285156 108.613281 L 88.753906 108.613281 C 88.960938 108.613281 89.148438 108.722656 89.148438 109.007813 C 89.148438 109.289063 88.960938 109.398438 88.753906 109.398438 L 86.066406 109.398438 L 86.066406 111.265625 L 87.214844 111.265625 C 87.417969 111.265625 87.605469 111.375 87.605469 111.65625 C 87.605469 111.9375 87.417969 112.046875 87.214844 112.046875 L 86.066406 112.046875 L 86.066406 113.917969 L 88.753906 113.917969 "/>
<path style=" stroke:none;fill-rule:evenodd;fill:rgb(2.69928%,30.599976%,63.499451%);fill-opacity:1;" d="M 94.296875 113.164063 C 94.457031 113.367188 94.574219 113.546875 94.574219 113.816406 C 94.574219 114.402344 94.128906 114.699219 93.585938 114.699219 L 91.867188 114.699219 C 91.570313 114.699219 91.3125 114.644531 91.078125 114.449219 C 90.867188 114.277344 90.710938 113.992188 90.710938 113.71875 C 90.710938 113.46875 90.851563 113.25 91.125 113.25 C 91.351563 113.25 91.492188 113.4375 91.492188 113.648438 C 91.492188 113.886719 91.617188 113.917969 91.835938 113.917969 L 93.53125 113.917969 C 93.59375 113.917969 93.789063 113.941406 93.789063 113.820313 C 93.789063 113.757813 93.679688 113.644531 93.648438 113.59375 L 90.96875 110.148438 C 90.804688 109.9375 90.710938 109.78125 90.710938 109.507813 C 90.710938 109.195313 90.859375 108.925781 91.125 108.757813 C 91.34375 108.613281 91.523438 108.613281 91.773438 108.613281 L 93.429688 108.613281 C 93.726563 108.613281 93.976563 108.675781 94.207031 108.871094 C 94.40625 109.050781 94.574219 109.34375 94.574219 109.617188 C 94.574219 109.867188 94.449219 110.070313 94.164063 110.070313 C 93.929688 110.070313 93.789063 109.921875 93.789063 109.703125 C 93.789063 109.4375 93.65625 109.398438 93.414063 109.398438 L 91.757813 109.398438 C 91.671875 109.398438 91.492188 109.375 91.492188 109.507813 C 91.492188 109.578125 91.578125 109.671875 91.609375 109.71875 L 94.296875 113.164063 "/>
<path style=" stroke:none;fill-rule:evenodd;fill:rgb(2.69928%,30.599976%,63.499451%);fill-opacity:1;" d="M 98.984375 111.1875 C 99.304688 111.1875 99.453125 111.3125 99.453125 111.664063 C 99.453125 112.015625 99.304688 112.140625 98.984375 112.140625 L 97.152344 112.140625 C 96.832031 112.140625 96.683594 112.015625 96.683594 111.664063 C 96.683594 111.3125 96.832031 111.1875 97.152344 111.1875 L 98.984375 111.1875 "/>
<path style=" stroke:none;fill-rule:evenodd;fill:rgb(2.69928%,30.599976%,63.499451%);fill-opacity:1;" d="M 102.328125 109.398438 L 102.039063 109.398438 C 101.78125 109.398438 101.5625 109.300781 101.5625 109.007813 C 101.5625 108.722656 101.773438 108.613281 102.015625 108.613281 L 103.320313 108.613281 C 103.929688 108.613281 104.238281 108.863281 104.503906 109.398438 L 105.191406 110.773438 C 105.347656 111.09375 105.425781 111.320313 105.425781 111.679688 C 105.425781 111.992188 105.339844 112.257813 105.199219 112.539063 L 104.488281 113.964844 C 104.214844 114.519531 103.859375 114.699219 103.25 114.699219 L 101.953125 114.699219 C 101.75 114.699219 101.5625 114.589844 101.5625 114.304688 C 101.5625 114.027344 101.75 113.917969 101.953125 113.917969 L 102.328125 113.917969 Z M 103.109375 113.917969 L 103.257813 113.917969 C 103.589844 113.917969 103.664063 113.878906 103.808594 113.589844 L 104.496094 112.195313 C 104.578125 112.015625 104.644531 111.882813 104.644531 111.6875 C 104.644531 111.421875 104.558594 111.273438 104.449219 111.046875 L 103.800781 109.726563 C 103.632813 109.390625 103.5625 109.398438 103.203125 109.398438 L 103.109375 109.398438 L 103.109375 113.917969 "/>
<path style=" stroke:none;fill-rule:evenodd;fill:rgb(2.69928%,30.599976%,63.499451%);fill-opacity:1;" d="M 108.253906 114.699219 C 107.863281 114.699219 107.558594 114.605469 107.285156 114.300781 C 107.027344 114.011719 106.988281 113.726563 106.988281 113.367188 L 106.988281 109.007813 C 106.988281 108.757813 107.097656 108.613281 107.378906 108.613281 C 107.660156 108.613281 107.769531 108.757813 107.769531 109.007813 L 107.769531 113.367188 C 107.769531 113.808594 107.902344 113.917969 108.253906 113.917969 L 109.585938 113.917969 C 109.9375 113.917969 110.070313 113.808594 110.070313 113.367188 L 110.070313 109.007813 C 110.070313 108.757813 110.179688 108.613281 110.460938 108.613281 C 110.742188 108.613281 110.851563 108.757813 110.851563 109.007813 L 110.851563 113.367188 C 110.851563 113.726563 110.8125 114.011719 110.554688 114.300781 C 110.28125 114.605469 109.976563 114.699219 109.585938 114.699219 L 108.253906 114.699219 "/>
<path style=" stroke:none;fill-rule:evenodd;fill:rgb(2.69928%,30.599976%,63.499451%);fill-opacity:1;" d="M 115.261719 111.1875 C 115.582031 111.1875 115.730469 111.3125 115.730469 111.664063 C 115.730469 112.015625 115.582031 112.140625 115.261719 112.140625 L 113.429688 112.140625 C 113.109375 112.140625 112.960938 112.015625 112.960938 111.664063 C 112.960938 111.3125 113.109375 111.1875 113.429688 111.1875 L 115.261719 111.1875 "/>
<path style=" stroke:none;fill-rule:evenodd;fill:rgb(2.69928%,30.599976%,63.499451%);fill-opacity:1;" d="M 118.621094 114.304688 C 118.621094 114.558594 118.515625 114.699219 118.230469 114.699219 C 117.949219 114.699219 117.839844 114.558594 117.839844 114.304688 L 117.839844 108.613281 L 120.46875 108.613281 C 121.085938 108.613281 121.703125 109.050781 121.703125 109.75 L 121.703125 110.289063 C 121.703125 111.023438 121.09375 111.398438 120.46875 111.398438 L 119.75 111.398438 L 121.507813 113.917969 C 121.59375 114.03125 121.703125 114.183594 121.703125 114.332031 C 121.703125 114.550781 121.523438 114.699219 121.304688 114.699219 C 121.148438 114.699219 121.046875 114.605469 120.960938 114.480469 L 118.804688 111.398438 L 118.621094 111.398438 Z M 118.621094 110.617188 L 120.359375 110.617188 C 120.578125 110.617188 120.921875 110.601563 120.921875 110.289063 L 120.921875 109.75 C 120.921875 109.4375 120.601563 109.398438 120.367188 109.398438 L 118.621094 109.398438 L 118.621094 110.617188 "/>
<path style=" stroke:none;fill-rule:evenodd;fill:rgb(2.69928%,30.599976%,63.499451%);fill-opacity:1;" d="M 124.050781 112.046875 L 124.050781 114.304688 C 124.050781 114.558594 123.941406 114.699219 123.65625 114.699219 C 123.378906 114.699219 123.265625 114.558594 123.265625 114.304688 L 123.265625 109.007813 C 123.265625 108.757813 123.378906 108.613281 123.65625 108.613281 C 123.941406 108.613281 124.050781 108.757813 124.050781 109.007813 L 124.050781 111.265625 L 126.347656 111.265625 L 126.347656 109.007813 C 126.347656 108.757813 126.457031 108.613281 126.738281 108.613281 C 127.019531 108.613281 127.128906 108.757813 127.128906 109.007813 L 127.128906 114.304688 C 127.128906 114.558594 127.019531 114.699219 126.738281 114.699219 C 126.457031 114.699219 126.347656 114.558594 126.347656 114.304688 L 126.347656 112.046875 L 124.050781 112.046875 "/>
<path style=" stroke:none;fill-rule:evenodd;fill:rgb(2.69928%,30.599976%,63.499451%);fill-opacity:1;" d="M 132.351563 110.8125 C 132.503906 111.117188 132.554688 111.34375 132.554688 111.679688 C 132.554688 112.054688 132.453125 112.289063 132.296875 112.609375 L 131.578125 114.050781 C 131.390625 114.425781 131.078125 114.699219 130.625 114.699219 C 130.171875 114.699219 129.859375 114.425781 129.671875 114.050781 L 128.953125 112.609375 C 128.796875 112.289063 128.695313 112.054688 128.695313 111.679688 C 128.695313 111.34375 128.746094 111.117188 128.898438 110.8125 L 129.679688 109.257813 C 129.867188 108.890625 130.1875 108.613281 130.625 108.613281 C 131.0625 108.613281 131.382813 108.890625 131.570313 109.257813 Z M 130.890625 109.632813 C 130.828125 109.507813 130.789063 109.398438 130.625 109.398438 C 130.460938 109.398438 130.421875 109.507813 130.359375 109.632813 L 129.65625 111.046875 C 129.539063 111.273438 129.476563 111.421875 129.476563 111.679688 C 129.476563 111.882813 129.523438 112.023438 129.609375 112.195313 L 130.359375 113.679688 C 130.414063 113.789063 130.46875 113.917969 130.625 113.917969 C 130.78125 113.917969 130.835938 113.789063 130.890625 113.679688 L 131.640625 112.195313 C 131.726563 112.023438 131.773438 111.882813 131.773438 111.679688 C 131.773438 111.421875 131.710938 111.273438 131.59375 111.046875 L 130.890625 109.632813 "/>
<path style=" stroke:none;fill-rule:evenodd;fill:rgb(2.69928%,30.599976%,63.499451%);fill-opacity:1;" d="M 137.199219 109.007813 C 137.199219 108.757813 137.308594 108.613281 137.589844 108.613281 C 137.871094 108.613281 137.980469 108.757813 137.980469 109.007813 L 137.980469 114.699219 L 136.949219 114.699219 L 134.910156 110.007813 L 134.917969 110.007813 L 134.902344 110.007813 L 134.902344 114.304688 C 134.902344 114.558594 134.792969 114.699219 134.511719 114.699219 C 134.230469 114.699219 134.121094 114.558594 134.121094 114.304688 L 134.121094 108.613281 L 135.152344 108.613281 L 137.191406 113.359375 L 137.183594 113.359375 L 137.199219 113.359375 L 137.199219 109.007813 "/>
<path style=" stroke:none;fill-rule:evenodd;fill:rgb(2.69928%,30.599976%,63.499451%);fill-opacity:1;" d="M 143.019531 113.917969 C 143.222656 113.917969 143.410156 114.027344 143.410156 114.304688 C 143.410156 114.589844 143.222656 114.699219 143.019531 114.699219 L 139.546875 114.699219 L 139.546875 108.613281 L 143.019531 108.613281 C 143.222656 108.613281 143.410156 108.722656 143.410156 109.007813 C 143.410156 109.289063 143.222656 109.398438 143.019531 109.398438 L 140.328125 109.398438 L 140.328125 111.265625 L 141.476563 111.265625 C 141.679688 111.265625 141.867188 111.375 141.867188 111.65625 C 141.867188 111.9375 141.679688 112.046875 141.476563 112.046875 L 140.328125 112.046875 L 140.328125 113.917969 L 143.019531 113.917969 "/>
<path style=" stroke:none;fill-rule:evenodd;fill:rgb(2.69928%,30.599976%,63.499451%);fill-opacity:1;" d="M 129.496094 108.03125 C 129.394531 108.179688 129.316406 108.289063 129.113281 108.289063 C 128.933594 108.289063 128.777344 108.140625 128.777344 107.953125 C 128.777344 107.820313 128.847656 107.703125 128.910156 107.585938 L 130.183594 105.160156 C 130.277344 104.972656 130.355469 104.800781 130.597656 104.800781 C 130.847656 104.800781 130.917969 104.972656 131.019531 105.160156 L 132.292969 107.585938 C 132.355469 107.703125 132.417969 107.820313 132.417969 107.953125 C 132.417969 108.140625 132.261719 108.289063 132.082031 108.289063 C 131.886719 108.289063 131.808594 108.179688 131.707031 108.03125 L 130.597656 106.410156 L 129.496094 108.03125 "/>
<path style=" stroke:none;fill-rule:evenodd;fill:rgb(2.69928%,30.599976%,63.499451%);fill-opacity:1;" d="M 65.816406 80.707031 C 65.820313 80.582031 65.835938 80.386719 65.867188 80.261719 C 65.949219 79.917969 66.226563 79.839844 66.460938 79.839844 L 66.757813 79.839844 C 66.992188 79.839844 67.230469 79.917969 67.148438 80.261719 C 67.117188 80.386719 67.039063 80.582031 66.988281 80.707031 L 66.503906 81.902344 C 66.40625 82.152344 66.308594 82.363281 66.003906 82.363281 C 65.699219 82.363281 65.703125 82.152344 65.722656 81.902344 L 65.816406 80.707031 "/>
<path style=" stroke:none;fill-rule:evenodd;fill:rgb(2.69928%,30.599976%,63.499451%);fill-opacity:1;" d="M 64.804688 91.980469 C 64.839844 91.921875 64.894531 91.824219 64.945313 91.761719 C 65.085938 91.589844 65.304688 91.550781 65.472656 91.550781 L 65.691406 91.550781 C 65.863281 91.550781 66.019531 91.589844 65.878906 91.761719 C 65.832031 91.824219 65.730469 91.921875 65.660156 91.980469 L 65.039063 92.578125 C 64.910156 92.703125 64.789063 92.808594 64.566406 92.808594 C 64.34375 92.808594 64.394531 92.703125 64.46875 92.578125 L 64.804688 91.980469 "/>
<path style=" stroke:none;fill-rule:evenodd;fill:rgb(2.69928%,30.599976%,63.499451%);fill-opacity:1;" d="M 93.425781 91.980469 C 93.460938 91.921875 93.515625 91.824219 93.566406 91.761719 C 93.707031 91.589844 93.925781 91.550781 94.09375 91.550781 L 94.3125 91.550781 C 94.484375 91.550781 94.640625 91.589844 94.5 91.761719 C 94.453125 91.824219 94.347656 91.921875 94.28125 91.980469 L 93.65625 92.578125 C 93.53125 92.703125 93.410156 92.808594 93.1875 92.808594 C 92.964844 92.808594 93.015625 92.703125 93.089844 92.578125 L 93.425781 91.980469 "/>
</g>
</svg>
