<svg width="300" height="300" viewBox="0 0 300 300" fill="none" xmlns="http://www.w3.org/2000/svg">
<path d="M200 50H225C231.63 50 237.989 52.6339 242.678 57.3223C247.366 62.0107 250 68.3696 250 75V250C250 256.63 247.366 262.989 242.678 267.678C237.989 272.366 231.63 275 225 275H75C68.3696 275 62.0107 272.366 57.3223 267.678C52.6339 262.989 50 256.63 50 250V75C50 68.3696 52.6339 62.0107 57.3223 57.3223C62.0107 52.6339 68.3696 50 75 50H100" stroke="black" stroke-width="25" stroke-linecap="round" stroke-linejoin="round"/>
<path d="M150 137.5H200M150 200H200M100 137.5H100.125M100 200H100.125M187.5 25H112.5C109.185 25 106.005 26.317 103.661 28.6612C101.317 31.0054 100 34.1848 100 37.5V62.5C100 65.8152 101.317 68.9946 103.661 71.3388C106.005 73.683 109.185 75 112.5 75H187.5C190.815 75 193.995 73.683 196.339 71.3388C198.683 68.9946 200 65.8152 200 62.5V37.5C200 34.1848 198.683 31.0054 196.339 28.6612C193.995 26.317 190.815 25 187.5 25V25Z" stroke="black" stroke-width="25" stroke-linecap="round" stroke-linejoin="round"/>
</svg>
