<?xml version="1.0" encoding="utf-8"?>
<!-- Generator: Adobe Illustrator 24.3.0, SVG Export Plug-In . SVG Version: 6.00 Build 0)  -->
<svg version="1.1" id="Logo_AMU_SE" xmlns="http://www.w3.org/2000/svg" xmlns:xlink="http://www.w3.org/1999/xlink" x="0px"
	 y="0px"  width="396" height="136" viewBox="0 0 703.2 252.5" style="enable-background:new 0 0 703.2 252.5;" xml:space="preserve">
<style type="text/css">
	.st0{fill:#FFFFFF;}
</style>
<g>
	<g>
		<g>
			<path class="st0" d="M249.4,132.1v38.4c0,3.6,1.8,4.7,5.2,4.7c3.9,0,12.4-2.3,18.2-5.4V132h5.7v47.6h-5l-0.3-4.3
				c-5.1,2.4-13.6,5.3-19.4,5.3c-7.4,0-10-4.2-10-10.7V132L249.4,132.1L249.4,132.1z"/>
			<path class="st0" d="M325.5,179.6v-38.4c0-3.6-1.8-4.7-5.2-4.7c-3.9,0-12.4,2.3-18.2,5.4v37.9h-5.7v-47.6h5l0.3,4.3
				c5.1-2.4,13.6-5.3,19.4-5.3c7.4,0,10,4.2,10,10.7v37.9L325.5,179.6L325.5,179.6z"/>
			<path class="st0" d="M346.1,142.4v-10.5h5.7v10.5H346.1z M346.1,179.6v-31.7h5.7v31.7H346.1z"/>
			<path class="st0" d="M388,179.6h-8.7l-16.2-47.6h5.8l14.7,43.5l14.8-43.5h5.8L388,179.6z"/>
			<path class="st0" d="M429.5,175.6c4.8,0,10.4-0.9,15-2.2l1,4.6c-4.4,1.6-10.6,2.7-16.4,2.7c-13.4,0-17.7-6.9-17.7-17.3v-14.9
				c0-9.8,4.4-17.3,17.8-17.3s17.3,7.5,17.3,17.3v9.1h-29.4v6C417.1,172,420.1,175.6,429.5,175.6z M417.1,152.5H441v-4.3
				c0-8-2.9-12.2-11.7-12.2c-8.9,0-12.1,4.2-12.1,12.2L417.1,152.5L417.1,152.5z"/>
			<path class="st0" d="M481.2,136.7c-5,2.2-10.4,5.8-15,8.8v34.2h-5.7v-47.6h5.1l0.3,7.3c5.1-3.3,10.2-6.6,14.7-8.2L481.2,136.7z"
				/>
			<path class="st0" d="M504.8,180.6c-4.7,0-10.4-0.9-14-2.4l0.9-4.6c4,1.3,9.1,2,12.6,2c8.8,0,10.5-1.6,10.5-7.7
				c0-6.8-0.2-7.5-11.1-10c-11.9-2.8-12.9-5.8-12.9-14.4c0-8,3.8-12.2,15.6-12.2c4.4,0,9.8,0.6,13.5,1.6l-0.6,4.7
				c-3.8-0.8-9.4-1.4-13.3-1.4c-8.3,0-9.5,2.2-9.5,7.4c0,6.6,0.3,7.3,9.2,9.5c14,3.5,14.8,5.8,14.8,14.7
				C520.6,176.2,517.5,180.6,504.8,180.6z"/>
			<path class="st0" d="M534.5,142.4v-10.5h5.7v10.5H534.5z M534.5,179.6v-31.7h5.7v31.7H534.5z"/>
			<path class="st0" d="M581,179.1c-2.8,1-5.4,1.5-8.9,1.5c-7.5,0-10.7-2.8-10.7-10.3v-33.4h-9.2v-4.8h9.2v-9.6l5.7-0.8v10.4H580
				l-0.6,4.8H567v32.8c0,4.2,0.6,6,5.4,6c2.7,0,4.5-0.1,7.4-1L581,179.1z"/>
			<path class="st0" d="M607.1,175.6c4.8,0,10.4-0.9,15-2.2l0.9,4.6c-4.4,1.6-10.6,2.7-16.4,2.7c-13.4,0-17.7-6.9-17.7-17.3v-14.9
				c0-9.8,4.4-17.3,17.8-17.3c13.4,0,17.3,7.5,17.3,17.3v9.1h-29.4v6C594.7,172,597.6,175.6,607.1,175.6z M594.7,152.5h23.9v-4.3
				c0-8-2.9-12.2-11.8-12.2s-12.1,4.2-12.1,12.2V152.5L594.7,152.5z"/>
		</g>
		<path class="st0" d="M600.6,123.3c4.4-1.4,9.6-3.1,14.4-5l1.7,4.8c-4.8,1.8-10.2,3.5-14.5,4.7L600.6,123.3z"/>
	</g>
	<g>
		<g>
			<g>
				<path class="st0" d="M161.8,112.4h-10l-6.3-18.6h-32.8l-6.2,18.6h-10l26.1-77.1h13.4L161.8,112.4z M129,42.5l-13.7,42.7h27.6
					L129,42.5z"/>
				<path class="st0" d="M171.9,47V33h9.7v14H171.9z M171.9,112.4V56.1h9.7v56.5h-9.7V112.4z"/>
				<path class="st0" d="M190.9,112.4L209.5,84L191.2,56h10l13.4,20.8L228.1,56h10L219.7,84l18.7,28.4h-10.2l-13.6-20.9l-13.5,21
					h-10.3L190.9,112.4L190.9,112.4z"/>
			</g>
			<g>
				<path class="st0" d="M315.2,49.9l-1.5,62.6h-9.6l2.7-77.1h12.6L341.7,95l22.3-59.7h12.6l2.7,77.1h-9.6l-1.5-62.6l-19.7,52.6H335
					L315.2,49.9z"/>
				<path class="st0" d="M431.1,112.4h-8.2l-0.6-4.2c-5,3.5-11.4,5.3-18.4,5.3c-10.5,0-15-6.2-15-16.3c0-11.7,5.9-15.9,17.3-15.9h15
					v-8.8c0-7-3.1-9.5-12.2-9.5c-5.4,0-10.7,0.6-15.1,1.5l-1-7.7c5.3-1.4,10.7-2.1,16.7-2.1c16.2,0,21.5,6.2,21.5,18.4V112.4
					L431.1,112.4z M421.3,89.7h-14.4c-6,0-8.2,1.8-8.2,7.5c0,5.8,1,8.1,8,8.1c4.8,0,10.3-1.8,14.5-4.6L421.3,89.7L421.3,89.7z"/>
				<path class="st0" d="M471,63.8c-5.3,2.5-11.4,6.5-16.2,9.7v38.9h-9.7V56.1h8.4l0.6,7.9c4.2-3.2,9.9-6.7,15.6-9L471,63.8z"/>
				<path class="st0" d="M495.3,113.6c-5.8,0-13.4-1.3-18-3l1.3-7.6c4.8,1.4,11.2,2.3,16.2,2.3c8.9,0,10.4-1.6,10.4-7.6
					c0-6-0.5-6.7-11.8-9.5c-14-3.5-15.2-6.3-15.2-18.1c0-10.4,4.6-15.2,19.5-15.2c5.4,0,11.3,0.7,16,2l-0.7,8
					c-4.7-0.9-11-1.6-15.6-1.6c-8.3,0-9.5,2-9.5,7c0,6.2,0.1,7.4,9.6,9.7c16.2,4,17.5,6,17.5,17.3
					C514.8,108.3,511.5,113.6,495.3,113.6z"/>
				<path class="st0" d="M548.4,105.3c5.5,0,11.7-1,17.9-2.7l1.3,7.7c-5.3,2-12.8,3.2-20,3.2c-16.7,0-22.4-8-22.4-20.8v-17
					c0-11.7,5.3-21.1,22.2-21.1c16.7,0,21.2,9.6,21.2,21.4v11.8H535v4.7C534.9,101.7,537.4,105.3,548.4,105.3z M534.9,79.9h24.2
					v-4.6c0-7.9-2.7-12.2-11.8-12.2S535,67.4,535,75.3L534.9,79.9L534.9,79.9z"/>
				<path class="st0" d="M580.2,47V33h9.7v14H580.2z M580.2,112.4V56.1h9.7v56.5h-9.7V112.4z"/>
				<path class="st0" d="M607.3,112.4V33l9.7-1.4v80.9L607.3,112.4L607.3,112.4z"/>
				<path class="st0" d="M634.5,112.4V33l9.7-1.4v80.9L634.5,112.4L634.5,112.4z"/>
				<path class="st0" d="M678,105.3c5.5,0,11.7-1,17.9-2.7l1.3,7.7c-5.3,2-12.8,3.2-20,3.2c-16.7,0-22.4-8-22.4-20.8v-17
					c0-11.7,5.3-21.1,22.2-21.1c16.7,0,21.2,9.6,21.2,21.4v11.8h-33.6v4.7C664.6,101.7,667,105.3,678,105.3z M664.6,79.9h24.2v-4.6
					c0-7.9-2.7-12.2-11.8-12.2c-9.1,0-12.4,4.4-12.4,12.2L664.6,79.9L664.6,79.9z"/>
			</g>
		</g>
		<path class="st0" d="M291.7,94.6l-15.2-8.8c0,0-0.2-0.1-0.7-0.3c0.2-0.1,0.5-0.2,0.7-0.3l15.2-8.8c0.7-0.3,0.9-1,1-1.5
			c0.1-0.6,0.1-1,0.1-1.5c0-0.7,0-1.2-0.1-1.2v-0.3l-0.3-0.2c-0.1,0-1.6-1.4-3.2-1.4c-0.3,0-0.6,0.1-0.9,0.2L273,79.2
			c-0.2,0.1-0.5,0.2-0.7,0.3c0-0.2,0-0.6,0-0.8V46.5c-0.1-1.3-1-1.8-1.7-2.3c-0.7-0.5-1.4-0.8-1.4-0.8l-0.3-0.1l-0.3,0.1
			c0,0-0.7,0.3-1.4,0.8c-0.7,0.5-1.6,1-1.7,2.3v32.1c0,0.2,0,0.6,0,0.8c-0.2-0.1-0.5-0.2-0.7-0.3l-15.2-8.8
			c-0.3-0.2-0.7-0.2-0.9-0.2c-1.7,0.1-3.2,1.4-3.2,1.4l-0.3,0.2V72c0,0-0.1,0.5-0.1,1.2c0,0.5,0,1,0.1,1.5s0.3,1.2,1,1.5l15.2,8.8
			c0.2,0.1,0.5,0.2,0.7,0.3c-0.5,0.2-0.7,0.3-0.7,0.3L246,94.4c-0.7,0.3-0.9,1-1,1.5c-0.1,0.6-0.1,1-0.1,1.5c0,0.7,0,1.2,0.1,1.2
			v0.3l0.3,0.2c0.1,0,1.6,1.4,3.2,1.4l0,0c0.3,0,0.6-0.1,0.9-0.2l15.2-8.8l0,0c0,0,0.2-0.1,0.7-0.3c0,0.5,0,0.8,0,0.8v17.7
			c0.1,1.3,1,1.8,1.7,2.3c0.7,0.5,1.4,0.7,1.4,0.8l0.3,0.1l0.3-0.1c0,0,0.7-0.3,1.4-0.8c0.7-0.5,1.6-1,1.7-2.3V92l0,0
			c0,0,0-0.3,0-0.8c0.5,0.2,0.7,0.3,0.7,0.3l15.2,8.8c0.3,0.2,0.7,0.2,0.9,0.2c1.7-0.1,3.2-1.4,3.2-1.4l0.3-0.2v-0.3
			c0,0,0.1-0.5,0.1-1.2c0-0.5,0-1-0.1-1.5C292.6,95.6,292.4,95,291.7,94.6z"/>
	</g>
	<g>
		<path class="st0" d="M5,126.3c0-12.5,1-24.1,3.2-34.9c2.2-10.9,5.4-21.5,9.8-32s9.7-21,16.2-31.5c3.8-6.5,7.3-10.9,9.7-13.9
			c2.5-3.1,5.2-6.3,8.9-6.3c4,0,6,1.2,6,3.3c0,0.8-1.8,5.2-5.7,13.4s-7.4,16.7-10.7,25.7c-3.3,9-6.5,20.2-9.2,33.6
			c-2.9,13.4-4.3,27.6-4.3,42.6c0,14.8,1.4,28.9,4.2,42.1s6.8,24.7,10.4,34.4c3.6,9.7,6.3,18.5,9.9,26.1c3.6,7.7,5.4,11.9,5.4,12.6
			c0,2.2-2.1,3.3-6,3.3c-3.8,0-6.3-3.8-8.9-6.7c-2.5-2.9-5.8-7.5-9.7-13.9C27.7,213.6,22.3,203.1,18,193c-4.3-10-7.5-20.6-9.7-31.4
			C6,150.7,5,138.9,5,126.3z"/>
	</g>
	<g>
		<g>
			<path class="st0" d="M96.2,233.6l0.9-3.2c3,0.9,5.9,1.5,8.7,1.5c5.2,0,6.5-1.4,7.2-5.3c0.2-1,0.3-1.8,0.3-2.5
				c0-2.1-1.3-2.5-5.9-3.8c-5.7-1.5-7.3-3.2-7.3-6.6c0-0.9,0.1-2.1,0.3-3.2c1.2-6.6,3.8-8.2,11.4-8.2c2.4,0,5.9,0.5,8.4,1.2
				l-0.7,3.5c-2.8-0.6-6-0.9-8-0.9c-5.4,0-6.5,0.9-7.2,4.7c-0.2,1.2-0.3,2.1-0.3,2.7c0,2.1,1.3,2.7,5.7,3.8c5.9,1.6,7.6,3.1,7.6,6.3
				c0,0.8-0.1,2.1-0.3,3.3c-1,5.9-2.9,8.8-11.7,8.8C102.7,235.3,98.9,234.7,96.2,233.6z"/>
			<path class="st0" d="M132.8,226.4l1.3-6.8c1-5.8,4.3-8.7,11.1-8.7c5.4,0,8.2,3,8.2,7c0,0.3,0,0.9-0.1,1.6L152,227
				c-0.9,5.3-3.7,8.4-11.1,8.4C134.1,235.3,131.9,231.5,132.8,226.4z M149.2,219.5c0.1-0.6,0.1-1,0.1-1.4c0-2.5-1.5-3.8-4.8-3.8
				c-3.9,0-5.9,1.8-6.5,5.5l-1.3,6.8c-0.6,3.2,0.2,5.3,4.6,5.3c4,0,5.9-1.7,6.5-5.3L149.2,219.5z"/>
			<path class="st0" d="M183.6,215.1c-1.6-0.6-3.5-0.8-5.1-0.8c-3.8,0-5.3,1.3-6.1,5.8l-1.5,8.8c0,0.3-0.1,0.7-0.1,1
				c0,1.5,0.8,2.1,2.8,2.1c2.1,0,5-0.7,7.3-1.6l0.6,3.2c-2.4,1-5.2,1.8-8.3,1.8c-4.5,0-6.3-2.1-6.3-5.3c0-0.3,0-1,0.2-1.8l1.5-8.8
				c1.2-6.5,3.9-8.7,10.2-8.7c1.7,0,4,0.3,5.7,1L183.6,215.1z"/>
			<path class="st0" d="M200.6,211.6l4-0.6l-4.2,23.8h-3.9L200.6,211.6z M202.3,201.7l4-0.6l-1,6l-4,0.6L202.3,201.7z"/>
			<path class="st0" d="M235.1,234.8h-3.3l0.1-2.9c-2.7,2.3-5.8,3.3-8.8,3.3c-3.6,0-5-2-5-4.7c0-0.6,0.1-1.3,0.2-1.8l1.6-9.4
				c1-5.7,3.1-8.7,10.6-8.7c2.9,0,6.1,0.7,8.4,1.6L235.1,234.8z M234.6,214.9c-1.3-0.3-2.9-0.6-4.5-0.6c-3.6,0-5.4,1.2-6.2,5.8
				l-1.5,8.5c-0.1,0.6-0.2,1.3-0.2,1.6c0,1.2,0.5,1.7,2,1.7c3,0,5.5-1.6,8.3-4.2L234.6,214.9z"/>
			<path class="st0" d="M258.5,201.7l4-0.6l-5.9,33.7h-3.9L258.5,201.7z"/>
			<path class="st0" d="M278.7,228.6c-0.1,0.6-0.1,0.9-0.1,1c0,1.5,0.7,2.4,3.2,2.4c2.4,0,5.4-0.9,8.7-2.4l0.9,3
				c-3,1.6-6.1,2.9-10,2.9c-4.7,0-6.6-2.2-6.6-5.4c0-0.6,0-1.4,0.2-2.2l1.4-8c1-5.9,3.7-9,10.4-9c3.9,0,6.7,1.8,6.7,5.3
				c0,3.9-1.8,5.9-8.4,8.2c-2.9,0.9-3.8,1.3-5.8,1.8L278.7,228.6z M289.7,216.6c0-1.5-1.2-2.5-3.3-2.5c-3.7,0-5.3,1.4-6,5.2
				l-0.6,3.2c1.3-0.3,2.1-0.6,4.4-1.3C288,220.1,289.7,218.6,289.7,216.6z"/>
			<path class="st0" d="M337.6,216.7c0-0.3,0.1-0.7,0.1-0.8c0-0.9-0.5-1.3-1.6-1.3c-2.3,0-6.3,1.8-8.9,3.6l-3,16.7h-3.9l3.2-18.1
				c0-0.3,0.1-0.7,0.1-0.8c0-0.9-0.5-1.3-1.6-1.3c-2.3,0-6,1.7-8.9,3.6l-2.9,16.7h-3.9l4.2-23.2l3.5-0.6l-0.3,3.3
				c2.3-1.6,7.2-3.6,9.9-3.6c2.7,0,3.9,1.4,4.2,3.6c2.5-1.8,7.2-3.6,9.9-3.6c3,0,4.2,1.6,4.2,4.2c0,0.6,0,1.3-0.2,2.1l-3.1,17.9
				h-3.9L337.6,216.7z"/>
			<path class="st0" d="M360.1,228.6c-0.1,0.6-0.1,0.9-0.1,1c0,1.5,0.7,2.4,3.2,2.4c2.4,0,5.4-0.9,8.7-2.4l0.9,3
				c-3,1.6-6.1,2.9-10,2.9c-4.7,0-6.6-2.2-6.6-5.4c0-0.6,0-1.4,0.2-2.2l1.4-8c1-5.9,3.7-9,10.4-9c3.9,0,6.7,1.8,6.7,5.3
				c0,3.9-1.8,5.9-8.4,8.2c-2.9,0.9-3.8,1.3-5.8,1.8L360.1,228.6z M371.1,216.6c0-1.5-1.2-2.5-3.3-2.5c-3.7,0-5.3,1.4-6,5.2
				l-0.6,3.2c1.3-0.3,2.1-0.6,4.4-1.3C369.5,220.1,371.1,218.6,371.1,216.6z"/>
			<path class="st0" d="M409.1,215c0,0.6,0,1.3-0.2,2.1l-3.1,17.9h-3.9l3.2-18.1c0-0.3,0.1-0.7,0.1-0.8c0-0.9-0.5-1.3-1.6-1.3
				c-2.3,0-6,1.7-8.9,3.6l-3,16.7h-3.9l4.2-23.2l3.5-0.6l-0.3,3.3c2.3-1.6,7.2-3.6,9.9-3.6C407.8,210.8,409.1,212.4,409.1,215z"/>
			<path class="st0" d="M425.3,231.6c0-0.2,0-0.6,0.1-1l2.8-15.9H424l0.6-3.3h4.2l1-5.8l4-0.6l-1.2,6.3h6.5l-0.7,3.3h-6.3l-2.8,15.8
				c0,0.3,0,0.3,0,0.6c0,0.7,0.3,1,1.4,1c1.3,0,2.8-0.3,4.4-1l0.9,2.8c-2.1,1-4,1.6-6.3,1.6C426.5,235.3,425.3,233.7,425.3,231.6z"
				/>
		</g>
		<g>
			<path class="st0" d="M479.7,228.6c-0.1,0.6-0.1,0.9-0.1,1c0,1.5,0.7,2.4,3.2,2.4c2.4,0,5.4-0.9,8.7-2.4l0.9,3
				c-3,1.6-6.1,2.9-10,2.9c-4.7,0-6.6-2.2-6.6-5.4c0-0.6,0-1.4,0.2-2.2l1.4-8c1-5.9,3.7-9,10.4-9c3.9,0,6.7,1.8,6.7,5.3
				c0,3.9-1.8,5.9-8.4,8.2c-2.9,0.9-3.8,1.3-5.8,1.8L479.7,228.6z M490.8,216.6c0-1.5-1.2-2.5-3.3-2.5c-3.7,0-5.3,1.4-6,5.2
				l-0.6,3.2c1.3-0.3,2.1-0.6,4.4-1.3C489.1,220.1,490.8,218.6,490.8,216.6z"/>
			<path class="st0" d="M528.7,215c0,0.6,0,1.3-0.2,2.1l-3.1,17.9h-3.9l3.2-18.1c0-0.3,0.1-0.7,0.1-0.8c0-0.9-0.5-1.3-1.6-1.3
				c-2.3,0-6,1.7-8.9,3.6l-2.9,16.7h-3.9l4.2-23.2l3.5-0.6l-0.3,3.3c2.3-1.6,7.2-3.6,9.9-3.6C527.4,210.8,528.7,212.4,528.7,215z"/>
			<path class="st0" d="M559.4,238.4c-0.9,5-2.9,6.5-8.3,6.5c-3.1,0-7.3-0.9-9.7-2l0.8-3c3.2,1.2,6.2,1.7,9,1.7c3,0,3.8-0.9,4.2-3.5
				l1.2-6.8c-2.7,2.1-5.7,3-8.7,3c-3.6,0-5-2-5-4.7c0-0.6,0.1-1.3,0.2-1.8l1.5-8.3c1-5.7,3.3-8.8,10.7-8.8c2.3,0,5.9,0.6,8.4,1.7
				L559.4,238.4z M559.6,214.9c-1.3-0.3-3.1-0.6-4.7-0.6c-3.9,0-5.4,1.3-6.2,5.9l-1.4,7.5c-0.1,0.6-0.2,1.2-0.2,1.5
				c0,1.2,0.5,1.7,2,1.7c2.5,0,5.9-1.7,8.4-3.8L559.6,214.9z"/>
			<path class="st0" d="M594.7,234.8h-3.2l0.1-2.9c-2.7,2.3-5.8,3.3-8.8,3.3c-3.6,0-5-2-5-4.7c0-0.6,0.1-1.3,0.2-1.8l1.6-9.4
				c1-5.7,3.1-8.7,10.6-8.7c2.9,0,6.1,0.7,8.4,1.6L594.7,234.8z M594.4,214.9c-1.3-0.3-2.9-0.6-4.5-0.6c-3.6,0-5.4,1.2-6.2,5.8
				l-1.5,8.5c-0.1,0.6-0.2,1.3-0.2,1.6c0,1.2,0.5,1.7,2,1.7c2.9,0,5.5-1.6,8.3-4.2L594.4,214.9z"/>
			<path class="st0" d="M629,238.4c-0.9,5-2.9,6.5-8.3,6.5c-3.1,0-7.3-0.9-9.7-2l0.8-3c3.2,1.2,6.2,1.7,9,1.7c3,0,3.8-0.9,4.2-3.5
				l1.2-6.8c-2.7,2.1-5.7,3-8.7,3c-3.6,0-5-2-5-4.7c0-0.6,0.1-1.3,0.2-1.8l1.5-8.3c1-5.7,3.3-8.8,10.7-8.8c2.3,0,5.9,0.6,8.4,1.7
				L629,238.4z M629.3,214.9c-1.3-0.3-3.1-0.6-4.7-0.6c-3.9,0-5.4,1.3-6.2,5.9l-1.4,7.5c-0.1,0.6-0.2,1.2-0.2,1.5
				c0,1.2,0.5,1.7,2,1.7c2.5,0,5.9-1.7,8.4-3.8L629.3,214.9z"/>
			<path class="st0" d="M651.7,228.6c-0.1,0.6-0.1,0.9-0.1,1c0,1.5,0.7,2.4,3.2,2.4c2.4,0,5.4-0.9,8.7-2.4l0.9,3
				c-3,1.6-6.1,2.9-10,2.9c-4.7,0-6.6-2.2-6.6-5.4c0-0.6,0-1.4,0.2-2.2l1.4-8c1-5.9,3.7-9,10.4-9c3.9,0,6.7,1.8,6.7,5.3
				c0,3.9-1.8,5.9-8.4,8.2c-2.9,0.9-3.8,1.3-5.8,1.8L651.7,228.6z M662.6,216.6c0-1.5-1.2-2.5-3.2-2.5c-3.7,0-5.4,1.4-6,5.2
				l-0.6,3.2c1.3-0.3,2.1-0.6,4.4-1.3C661,220.1,662.6,218.6,662.6,216.6z M657,205.7c2.3-1.2,4.7-2.5,7.2-4.3l1.5,2.7
				c-2.4,1.7-4.2,2.7-7.3,4.2L657,205.7z"/>
			<path class="st0" d="M683.5,228.6c-0.1,0.6-0.1,0.9-0.1,1c0,1.5,0.7,2.4,3.2,2.4c2.4,0,5.4-0.9,8.7-2.4l0.9,3
				c-3,1.6-6.1,2.9-10,2.9c-4.7,0-6.6-2.2-6.6-5.4c0-0.6,0-1.4,0.2-2.2l1.4-8c1-5.9,3.7-9,10.4-9c3.9,0,6.7,1.8,6.7,5.3
				c0,3.9-1.8,5.9-8.4,8.2c-2.9,0.9-3.8,1.3-5.8,1.8L683.5,228.6z M694.5,216.6c0-1.5-1.2-2.5-3.2-2.5c-3.7,0-5.4,1.4-6,5.2
				l-0.6,3.2c1.3-0.3,2.1-0.6,4.4-1.3C692.9,220.1,694.5,218.6,694.5,216.6z"/>
		</g>
	</g>
</g>
</svg>
