<?xml version="1.0" encoding="utf-8"?>
<!-- Generator: Adobe Illustrator 26.3.1, SVG Export Plug-In . SVG Version: 6.00 Build 0)  -->
<svg version="1.1" id="Calque_1" xmlns="http://www.w3.org/2000/svg" xmlns:xlink="http://www.w3.org/1999/xlink" x="0px" y="0px"
	 viewBox="0 0 841.89 595.28" style="enable-background:new 0 0 841.89 595.28;" xml:space="preserve">
<style type="text/css">
	.st0{fill:#FFFFFF;}
	.st1{fill:#FFFFFF;stroke:#FFFFFF;stroke-miterlimit:10;}
</style>
<g>
	<g>
		<path class="st0" d="M502.42,246.32c3.76-1.75,6.36-5.44,8.86-8.61c2.81-3.56,5.46-7.24,7.94-11.03c-0.86-0.5-1.73-1.01-2.59-1.51
			c-3.47,7.44-7.38,14.66-11.73,21.62c-1.03,1.64,1.57,3.15,2.59,1.51c4.35-6.96,8.27-14.18,11.73-21.62
			c0.81-1.73-1.52-3.15-2.59-1.51c-2.34,3.58-4.82,7.07-7.47,10.43c-2.33,2.96-4.74,6.51-8.25,8.14
			C499.16,244.54,500.68,247.13,502.42,246.32L502.42,246.32z"/>
	</g>
</g>
<g>
	<path class="st0" d="M343.04,292.23c-2.5-1.81-4.9-3.76-7.18-5.83c-0.3-0.27-0.62-0.58-0.66-0.99c-0.03-0.34,0.14-0.67,0.33-0.96
		c1.25-1.98,3.08-3.59,5.21-4.57c1.88,3.5,5.27,6.24,9.17,6.99c3.9,0.75,8.23-0.67,10.65-3.82c0.79-1.03,1.51-2.31,2.77-2.63
		c2.39-0.6,4.18,2.69,6.64,2.73c-1.34,2.79-3.39,5.17-4.94,7.85c-5.05,8.72-4.29,19.49-3.37,29.52c-7.86-0.1-15.71-0.21-23.57-0.31
		c1.39-9.32,2.78-18.63,4.17-27.95"/>
</g>
<g>
	<path class="st0" d="M397.91,240.26c-2.12,3.28-4.62,6.33-7.42,9.05c2.59,1.92,5.3,3.99,6.52,6.98c1.63,4,0.19,8.5-0.93,12.67
		c-1.62,6.02-2.55,12.22-2.77,18.44c8.45,0.34,16.91,0.41,25.36,0.22c0.51-0.01,1.08-0.05,1.45-0.4c0.42-0.41,0.42-1.06,0.39-1.65
		c-0.31-6.37-0.99-12.71-2.03-19c-0.59-3.6-1.05-7.96,1.77-10.28c1.79-1.48,4.51-1.68,5.95-3.5c1.1-1.4,1.11-3.42,0.47-5.09
		s-1.82-3.05-2.99-4.4c-3.96,1.76-7.29,5.25-11.61,5.61c-3.04,0.26-6.03-1.16-8.33-3.17c-2.29-2.02-4-4.6-5.67-7.15"/>
</g>
<g>
	<path class="st0" d="M436.86,267.57c-1.66,1.89-2.97,4.09-3.83,6.46c-0.15,0.41-0.28,0.88-0.1,1.27c0.24,0.51,0.88,0.65,1.4,0.88
		c2.26,0.99,2.59,4.01,2.58,6.48c-0.01,4.95-0.03,9.9-0.04,14.84c4.8,0.1,9.6-0.11,14.36-0.64c0.86-0.1,1.83-0.27,2.31-0.99
		c0.35-0.54,0.32-1.24,0.28-1.88c-0.26-3.77-0.51-7.55-0.77-11.32c-0.17-2.44-0.09-5.38,1.99-6.66c1.49-0.92,3.97-1.06,4.11-2.8
		c0.05-0.63-0.28-1.22-0.6-1.76c-1.18-2-2.37-4-3.55-6.01c-2.67-0.31-4.34,3.01-6.91,3.79c-3.74,1.14-6.92-3.37-10.81-3.72"/>
</g>
<g>
	<path class="st0" d="M471.96,245.95c-2.35,2.66-4.69,5.32-7.04,7.98c3.36,1.24,5.91,4.17,7.28,7.48c1.37,3.31,1.66,6.97,1.52,10.55
		c-0.22,5.35-1.38,10.66-3.42,15.6c6.9-0.26,13.79-0.52,20.69-0.77c-0.01-6,0.52-12.01,1.56-17.92c0.37-2.08,0.82-4.21,2.01-5.95
		c1.46-2.14,3.82-3.43,5.87-5c1.76-1.35,3.33-2.94,4.65-4.72c0.3-0.4,0.6-0.87,0.52-1.37c-0.06-0.36-0.3-0.66-0.53-0.93
		c-1.64-1.94-3.29-3.89-4.93-5.83c-3.77,1.26-7.04,3.92-9.04,7.36c-0.51,0.88-0.95,1.82-1.71,2.5c-1.75,1.57-4.59,1.14-6.54-0.17
		c-1.95-1.32-3.3-3.32-4.91-5.03c-1.61-1.71-3.75-3.23-6.09-3.07"/>
</g>
<path class="st1" d="M352.96,271.3c-3.13-1.39-6.3,0.88-7.16,3.96c-0.45,1.6-0.37,3.32-0.24,4.96c0.08,0.9,0.23,1.77,0.86,2.46
	c0.6,0.66,1.47,0.98,2.29,1.28c2.97,1.13,6.55,1.28,9.21-0.7c2.68-2,3.35-5.35,2.01-8.36c-1.48-3.32-5.08-4.87-8.51-5.14
	c-0.81-0.06-1.5,0.73-1.5,1.5c0,0.86,0.69,1.44,1.5,1.5c1.87,0.15,4.04,0.91,5.21,2.42c0.59,0.76,0.95,1.7,1,2.54
	c0.05,0.9-0.16,1.71-0.66,2.35c-1.21,1.54-3.33,1.99-5.31,1.62c-0.6-0.11-1.18-0.27-1.75-0.47c-0.32-0.11-1.12-0.38-1.24-0.52
	c0.05,0.06-0.09-0.3-0.09-0.3c-0.04-0.27-0.04-0.54-0.06-0.81c-0.04-0.66-0.08-1.33-0.05-1.99c0.04-1.11,0.32-2.29,1.02-3
	c0.31-0.32,0.67-0.55,1.01-0.66c0.1-0.03,0.21-0.06,0.31-0.08c0.11-0.02,0.1-0.02-0.01-0.01c0.08-0.01,0.16-0.01,0.24-0.01
	c0.03,0,0.35,0.03,0.19,0c-0.2-0.03,0.45,0.16,0.21,0.05c0.74,0.33,1.61,0.22,2.05-0.54C353.87,272.71,353.71,271.63,352.96,271.3
	L352.96,271.3z"/>
<path class="st1" d="M409.02,237.3c0.39-0.05,0.78-0.07,1.17-0.05c0.07,0,0.15,0.01,0.22,0.02c0.25,0.02-0.21-0.04,0.04,0.01
	c0.22,0.04,0.43,0.09,0.64,0.15c0.56,0.17,1.07,0.46,1.49,0.89c0.06,0.07,0.12,0.13,0.18,0.2c0.16,0.18-0.11-0.17,0.02,0.02
	c0.09,0.13,0.18,0.27,0.26,0.41c0.03,0.06,0.23,0.54,0.14,0.27c0.07,0.19,0.13,0.39,0.18,0.59c0.01,0.07,0.03,0.13,0.04,0.2
	c-0.06-0.27-0.01-0.06,0,0.01c0.01,0.18,0,0.36,0.01,0.54c0,0.06-0.04,0.29,0.01,0.01c-0.02,0.09-0.03,0.18-0.05,0.27
	c-0.04,0.17-0.1,0.34-0.16,0.5c0.11-0.3-0.07,0.12-0.12,0.2c-0.05,0.09-0.32,0.44-0.12,0.2c-0.22,0.25-0.45,0.49-0.71,0.7
	c0.24-0.2-0.14,0.09-0.21,0.14c-0.13,0.08-0.26,0.16-0.39,0.23c-0.13,0.07-0.27,0.14-0.41,0.21c-0.26,0.13-0.06,0.03,0,0.01
	c-0.1,0.04-0.2,0.08-0.31,0.12c-0.31,0.11-0.63,0.21-0.95,0.29c-0.17,0.04-0.34,0.08-0.52,0.11c-0.09,0.02-0.17,0.03-0.26,0.05
	c-0.04,0.01-0.4,0.06-0.19,0.03c0.17-0.02-0.27,0.02-0.35,0.03c-0.19,0.01-0.38,0.01-0.56,0c-0.09,0-0.25-0.07-0.01,0
	c-0.08-0.02-0.18-0.05-0.26-0.07c0.03,0.01,0.19,0.11,0.05,0.02c-0.1-0.06-0.23-0.18-0.08-0.04c-0.21-0.19-0.06-0.05-0.01,0
	c-0.19-0.19-0.01,0.06-0.04-0.06c-0.05-0.2-0.11-0.39-0.14-0.59c0.01,0.07,0.02,0.28,0.01-0.01c-0.01-0.11-0.02-0.23-0.02-0.34
	c-0.01-0.19-0.02-0.39-0.02-0.58c0-0.17,0.01-0.35,0.02-0.52c0.01-0.29,0-0.05-0.01,0.01c0.02-0.1,0.04-0.21,0.06-0.31
	c0.02-0.08,0.06-0.16,0.07-0.24c0.02-0.18-0.08,0.23,0.02-0.03c0.08-0.21,0.03-0.06-0.03,0.01c0.06-0.07,0.32-0.27,0.06-0.09
	c0.64-0.45,1-1.33,0.54-2.05c-0.41-0.63-1.37-1.02-2.05-0.54c-1.04,0.73-1.47,1.74-1.62,2.98c-0.11,0.93-0.06,2,0.18,2.9
	c0.34,1.23,1.29,2.2,2.57,2.44c1.07,0.2,2.17,0.05,3.22-0.19c1.91-0.44,3.78-1.41,4.91-3.06c1.24-1.81,1.17-4.29,0-6.12
	c-1.36-2.13-3.97-3.22-6.46-2.9c-0.78,0.1-1.54,0.62-1.5,1.5C407.55,236.53,408.19,237.41,409.02,237.3L409.02,237.3z"/>
<path class="st1" d="M449.01,254.92c-2.6-0.56-4.78,1.48-5.3,3.92c-0.24,1.16-0.25,2.36-0.2,3.54c0.04,1.01,0.17,2.04,0.57,2.98
	c0.43,1.04,1.16,1.86,2.21,2.29c1.23,0.51,2.54,0.26,3.7-0.32c1.01-0.51,1.89-1.3,2.67-2.11c0.86-0.89,1.62-1.86,2.08-3.01
	c0.91-2.28-0.03-5.3-2.56-6c-0.76-0.21-1.67,0.26-1.85,1.05c-0.18,0.79,0.24,1.62,1.05,1.85c0.08,0.02,0.16,0.04,0.24,0.07
	c-0.05-0.02-0.29-0.1-0.03,0.01c0.03,0.01,0.19,0.13,0.04,0.02c-0.15-0.12,0.04,0.04,0.07,0.08c0.03,0.03,0.2,0.23,0.08,0.08
	c-0.11-0.14,0.01,0.02,0.03,0.05c0.04,0.07,0.08,0.15,0.12,0.21c0.14,0.22-0.01-0.11,0.02,0.04c0.03,0.14,0.08,0.29,0.12,0.43
	c0.07,0.27,0.01,0.04,0.01-0.02c0.01,0.08,0.01,0.17,0.02,0.25c0,0.08-0.03,0.47,0,0.31c0.03-0.21-0.02,0.08-0.03,0.12
	c-0.03,0.13-0.07,0.25-0.11,0.37c-0.01,0.03-0.1,0.26-0.02,0.07c-0.03,0.07-0.07,0.14-0.1,0.21c-0.08,0.16-0.17,0.32-0.27,0.47
	c-0.06,0.09-0.12,0.17-0.18,0.26c-0.01,0.02-0.17,0.22-0.05,0.07c-0.13,0.17-0.27,0.33-0.41,0.48c-0.27,0.29-0.54,0.58-0.83,0.85
	c-0.13,0.13-0.27,0.25-0.41,0.38c-0.08,0.07-0.16,0.14-0.25,0.21c-0.39,0.33,0.09-0.06-0.15,0.11c-0.15,0.11-0.31,0.21-0.47,0.31
	c-0.04,0.02-0.54,0.29-0.34,0.2c-0.16,0.07-0.33,0.12-0.5,0.16c-0.04,0.01-0.34,0.05-0.16,0.03c0.18-0.01-0.2-0.01-0.23-0.01
	c0.31,0.01-0.23-0.07-0.13-0.03c0.12,0.04-0.4-0.25-0.23-0.13c0.12,0.09-0.15-0.15-0.2-0.21c0.21,0.23-0.08-0.16-0.14-0.25
	c-0.03-0.05-0.06-0.11-0.08-0.17c0.12,0.27,0.03,0.07,0.01,0c-0.05-0.17-0.1-0.33-0.14-0.5c-0.04-0.15-0.06-0.31-0.09-0.46
	c-0.04-0.17,0,0.04,0.01,0.07c-0.02-0.13-0.03-0.27-0.04-0.4c-0.06-0.75-0.07-1.52-0.03-2.28c0.03-0.77,0.13-1.51,0.6-2.17
	c-0.13,0.18,0.01-0.01,0.04-0.04c0.09-0.09,0.17-0.17,0.26-0.26c0.18-0.16-0.16,0.1,0.04-0.03c0.1-0.07,0.2-0.13,0.31-0.18
	c0.06-0.03,0.25-0.08,0.03-0.01c0.09-0.03,0.18-0.05,0.27-0.07c-0.34,0.09,0.01,0,0.01,0c0.05,0,0.09,0,0.14,0
	c-0.17-0.03-0.16-0.03,0.02,0.01c0.77,0.16,1.66-0.23,1.85-1.05C450.23,256.01,449.83,255.1,449.01,254.92L449.01,254.92z"/>
<path class="st1" d="M486.58,234.71c-2.59,0.47-4.59,2.64-5.34,5.09c-0.79,2.59-0.01,5.49,1.95,7.36c2.14,2.03,5.62,2.56,8.12,0.85
	c2.3-1.58,3.28-4.66,2.38-7.31c-1.05-3.09-4.34-5.02-7.55-4.7c-0.81,0.08-1.5,0.63-1.5,1.5c0,0.75,0.69,1.58,1.5,1.5
	c1.8-0.18,3.57,0.51,4.43,2.02c0.04,0.08,0.25,0.53,0.17,0.33c0.09,0.24,0.14,0.49,0.21,0.73c0.01,0.04,0.05,0.29,0.02,0.05
	c0.01,0.1,0.02,0.2,0.03,0.31c0.02,0.28,0.01,0.56-0.02,0.84c-0.03,0.27,0.09-0.32-0.03,0.13c-0.03,0.1-0.04,0.2-0.07,0.3
	c-0.03,0.1-0.05,0.2-0.09,0.29c0.01-0.04-0.17,0.42-0.09,0.24c-0.13,0.29-0.43,0.71-0.61,0.89c-0.57,0.57-1.43,0.88-2.18,0.9
	c-0.56,0.02-0.68,0-1.23-0.17c-0.32-0.1-0.25-0.07-0.54-0.22c-0.09-0.05-0.19-0.1-0.28-0.16c0.01,0.01-0.38-0.25-0.22-0.13
	c-0.19-0.14-0.36-0.31-0.53-0.48c-0.09-0.1-0.18-0.19-0.27-0.3c-0.01-0.01-0.16-0.22-0.06-0.08c-0.14-0.2-0.27-0.4-0.38-0.61
	c-0.06-0.12-0.13-0.24-0.18-0.36c0.09,0.21-0.09-0.23-0.09-0.24c-0.28-0.82-0.3-1.52-0.16-2.2c0.2-0.9,0.6-1.69,1.14-2.27
	c0.18-0.19,0.37-0.38,0.58-0.54c-0.05,0.04-0.2,0.13,0.04-0.02c0.12-0.08,0.24-0.16,0.36-0.23c0.08-0.05,0.17-0.09,0.25-0.14
	c0.29-0.16-0.12,0.02,0.17-0.07c0.28-0.09,0.55-0.17,0.84-0.22c0.8-0.14,1.25-1.11,1.05-1.85
	C488.19,234.92,487.38,234.57,486.58,234.71L486.58,234.71z"/>
<g>
	<g>
		<path class="st0" d="M390.41,242.16c-3.28-3.32-6.11-7.03-8.87-10.78c-1.4-1.9-2.8-3.8-4.18-5.71c-1.3-1.78-2.53-3.59-2.9-5.8
			c-0.84,0.49-1.67,0.97-2.51,1.46c3.49,3.88,6.99,7.76,10.48,11.64c1.57,1.74,3.1,3.53,4.84,5.1c1.8,1.62,3.86,2.89,5.74,4.41
			c1.49,1.2,3.63-0.91,2.12-2.12c-1.83-1.47-3.84-2.71-5.59-4.27c-1.8-1.6-3.38-3.45-4.99-5.24c-3.49-3.88-6.99-7.76-10.48-11.64
			c-1.1-1.22-2.73,0.11-2.51,1.46c0.38,2.25,1.55,4.21,2.86,6.05c1.49,2.08,3.01,4.12,4.53,6.18c2.91,3.96,5.88,7.89,9.34,11.39
			C389.65,245.65,391.77,243.53,390.41,242.16L390.41,242.16z"/>
	</g>
</g>
<g>
	<g>
		<path class="st0" d="M430.11,243.42c8.59-5.03,14.87-13.65,16.97-23.39c0.41-1.88-2.49-2.69-2.89-0.8
			c-1.94,9.01-7.63,16.93-15.59,21.6C426.93,241.8,428.44,244.4,430.11,243.42L430.11,243.42z"/>
	</g>
</g>
<g>
	<g>
		<path class="st0" d="M434.54,265.24c-2.69-2.54-5.39-5.09-8.08-7.63c-0.57-0.54-1.56-0.61-2.12,0c-0.54,0.58-0.61,1.55,0,2.12
			c2.69,2.54,5.39,5.09,8.08,7.63c0.57,0.54,1.56,0.61,2.12,0C435.08,266.78,435.15,265.82,434.54,265.24L434.54,265.24z"/>
	</g>
</g>
<g>
	<g>
		<path class="st0" d="M462.58,266.71c2.42-1.21,4.61-2.92,6.37-4.97c0.51-0.59,0.63-1.54,0-2.12c-0.56-0.52-1.58-0.64-2.12,0
			c-0.83,0.97-1.76,1.84-2.75,2.64c-0.16,0.13,0.22-0.17,0.06-0.05c-0.07,0.05-0.14,0.1-0.2,0.15c-0.12,0.09-0.25,0.18-0.37,0.27
			c-0.26,0.19-0.53,0.36-0.81,0.54c-0.55,0.34-1.11,0.66-1.69,0.95c-0.7,0.35-0.96,1.4-0.54,2.05
			C460.99,266.89,461.82,267.08,462.58,266.71L462.58,266.71z"/>
	</g>
</g>
<g>
	<g>
		<path class="st0" d="M470.12,245.78c-2.36-4.08-5.67-7.55-8.31-11.45c-2.55-3.78-4.73-7.95-5.1-12.57c-0.15-1.9-3.1-1.94-3,0
			c0.27,5.06,2.7,9.46,5.84,13.32c3.14,3.85,6.74,7.67,10.7,10.68c1.54,1.17,3.03-1.44,1.51-2.59c-3.51-2.67-6.68-6.17-9.53-9.52
			c-2.86-3.37-5.3-7.36-5.54-11.88c-1,0-2,0-3,0c0.4,4.89,2.39,9.33,5.05,13.39c2.73,4.17,6.27,7.82,8.77,12.14
			C468.49,248.97,471.09,247.46,470.12,245.78L470.12,245.78z"/>
	</g>
</g>
<g>
	<g>
		<path class="st0" d="M335.39,277.98c-6.6-5.83-10.47-14.3-10.49-23.12c-0.01-1.93-3.01-1.93-3,0c0.03,9.56,4.2,18.9,11.37,25.24
			C334.71,281.38,336.84,279.27,335.39,277.98L335.39,277.98z"/>
	</g>
</g>
<g>
	<g>
		<path class="st0" d="M371.21,278.92c6.2-5.89,10.41-13.75,11.82-22.18c0.32-1.89-2.57-2.7-2.89-0.8
			c-1.33,7.97-5.19,15.29-11.05,20.86C367.68,278.13,369.81,280.25,371.21,278.92L371.21,278.92z"/>
	</g>
</g>
<g>
	<g>
		<path class="st0" d="M472.78,288.37c-2.95,15.8-6.63,31.45-11.03,46.91c-0.45,1.59,1.99,2.72,2.74,1.16
			c3.71-7.76,7.43-15.52,11.14-23.29c3.45-7.22,6.88-14.61,7.96-22.62c-0.98-0.13-1.96-0.27-2.95-0.4
			c1.26,16.91,3.76,33.73,7.51,50.27c0.4,1.76,2.79,1.18,2.95-0.4c1.77-17.84,2.43-35.77,2-53.69c-0.01-0.59-0.45-1.35-1.1-1.45
			c-5.3-0.8-10.64-1.06-15.99-0.68c-1.91,0.14-1.93,3.14,0,3c5.07-0.36,10.17-0.19,15.19,0.57c-0.37-0.48-0.73-0.96-1.1-1.45
			c0.44,17.92-0.23,35.85-2,53.69c0.98-0.13,1.96-0.27,2.95-0.4c-3.69-16.29-6.16-32.82-7.4-49.47c-0.12-1.56-2.7-2.18-2.95-0.4
			c-1.07,7.92-4.44,15.18-7.86,22.32c-3.65,7.62-7.29,15.25-10.94,22.87c0.91,0.39,1.83,0.77,2.74,1.16
			c4.4-15.46,8.08-31.11,11.03-46.91C476.02,287.28,473.13,286.47,472.78,288.37L472.78,288.37z"/>
	</g>
</g>
<g>
	<g>
		<path class="st0" d="M400.69,286.2c-4.81,19.22-9.83,38.39-15.05,57.51c-0.4,1.46,1.44,2.5,2.51,1.46
			c13.45-13.05,12.57-33.46,22.02-48.75c-0.93-0.25-1.86-0.5-2.8-0.76c0.5,8.96,1.02,18.16,4.16,26.65
			c3.12,8.44,9.44,15.02,13.1,23.17c0.69,1.54,3.29,0.45,2.74-1.16c-4.96-14.59-4-30.18-5.91-45.27c-0.27-2.15-0.59-4.3-0.99-6.43
			c-0.2-1.04-0.41-2.07-0.65-3.09c-0.12-0.51-0.24-1.03-0.37-1.54c-0.06-0.22-0.11-0.44-0.17-0.66c-0.04-0.15-0.08-0.29-0.12-0.44
			c-0.09-0.56-0.35-0.35-0.79,0.63c-0.39-0.05-0.77-0.1-1.16-0.15c-0.17-0.29-0.34-0.58-0.51-0.87c0.37-0.48,0.73-0.96,1.1-1.45
			c-0.05,0.02-0.09,0.04-0.14,0.05c-1.78,0.69-1.01,3.6,0.8,2.89c0.05-0.02,0.09-0.04,0.14-0.05c0.65-0.25,1.07-0.73,1.1-1.45
			c0.09-1.79-2.22-2.57-3.24-1.12c-0.5,0.71-0.39,1.52-0.19,2.32c0.28,1.1,0.57,2.19,0.81,3.29c0.97,4.36,1.54,8.8,1.94,13.25
			c0.79,8.8,0.98,17.65,2.18,26.42c0.67,4.91,1.69,9.77,3.28,14.47c0.91-0.39,1.83-0.77,2.74-1.16c-3.55-7.9-9.77-14.28-12.8-22.46
			c-3.06-8.26-3.57-17.14-4.06-25.85c-0.08-1.47-1.99-2.06-2.8-0.76c-4.87,7.89-7.03,16.97-9.7,25.74
			c-2.47,8.12-5.63,16.36-11.85,22.4c0.84,0.49,1.67,0.97,2.51,1.46c5.23-19.11,10.24-38.28,15.05-57.51
			C404.05,285.12,401.16,284.32,400.69,286.2L400.69,286.2z"/>
	</g>
</g>
<g>
	<g>
		<path class="st0" d="M439.55,298.13c0.15,6.85,0.3,13.7,0.46,20.55c0.07,3.22,0.17,6.46-0.42,9.65c-0.6,3.27-1.53,6.45-1.83,9.77
			c-0.15,1.66,2.01,1.79,2.8,0.76c2.03-2.67,2.95-5.93,3.76-9.13c0.8-3.15,1.52-6.53,3.6-9.12c-0.71,0-1.41,0-2.12,0
			c1.2,1.12,0.43,3.56,0.49,5.02c0.08,1.83,0.53,3.61,1.28,5.27c1.57,3.46,4.45,6.11,7.98,7.48c1.36,0.52,2.17-1.15,1.69-2.2
			c-1.37-3.02-2.74-6.07-3.37-9.34c-0.66-3.4-0.37-6.96-0.28-10.4c0.18-7.08,0.37-14.16,0.55-21.24c0.05-1.93-2.95-1.93-3,0
			c-0.19,7.41-0.38,14.82-0.57,22.23c-0.09,3.49-0.25,7,0.46,10.44c0.71,3.44,2.19,6.66,3.63,9.83c0.56-0.73,1.13-1.47,1.69-2.2
			c-3.22-1.25-5.7-4.13-6.65-7.43c-0.47-1.63-0.39-3.2-0.32-4.88c0.08-1.73-0.14-3.46-1.46-4.69c-0.54-0.51-1.6-0.65-2.12,0
			c-2.2,2.75-3.24,6-4.1,9.36c-0.85,3.33-1.61,6.72-3.74,9.51c0.93,0.25,1.86,0.5,2.8,0.76c0.29-3.28,1.31-6.42,1.84-9.66
			c0.52-3.24,0.47-6.49,0.4-9.76c-0.15-6.85-0.3-13.7-0.46-20.55C442.51,296.2,439.51,296.2,439.55,298.13L439.55,298.13z"/>
	</g>
</g>
<g>
	<g>
		<path class="st0" d="M342.6,323.98c0.16,17.7-2.76,35.3-8.58,52.01c-0.46,1.33,1.12,2.23,2.2,1.69c3.27-1.61,5.27-4.74,6.79-7.93
			c1.92-4.04,3.62-8.21,5.35-12.34c3.64-8.69,7.05-17.47,10.26-26.32c-0.96,0-1.93,0-2.89,0c2.58,14.68,5.7,30.64,17.4,41.03
			c0.77,0.69,2.29,0.52,2.51-0.66c0.84-4.5-0.64-8.69-2.48-12.74c-1.83-4.05-3.62-8.04-4.91-12.3c-2.6-8.61-3.59-17.62-2.98-26.6
			c0.05-0.78-0.73-1.54-1.5-1.5c-6.6,0.35-13.2,0.69-19.8,1.04c-1.92,0.1-1.93,3.1,0,3c6.6-0.35,13.2-0.69,19.8-1.04
			c-0.5-0.5-1-1-1.5-1.5c-0.6,8.76,0.31,17.63,2.7,26.08c1.19,4.22,2.79,8.29,4.64,12.26c1.8,3.86,3.95,8.12,3.13,12.5
			c0.84-0.22,1.67-0.44,2.51-0.66c-11.3-10.03-14.13-25.54-16.63-39.7c-0.28-1.59-2.44-1.25-2.89,0c-3.04,8.4-6.27,16.73-9.7,24.97
			c-1.66,4-3.35,8-5.14,11.96c-1.39,3.08-3.01,6.31-6.18,7.87c0.73,0.56,1.47,1.13,2.2,1.69c5.9-16.94,8.84-34.87,8.69-52.81
			C345.58,322.05,342.58,322.05,342.6,323.98L342.6,323.98z"/>
	</g>
</g>
</svg>
