<?xml version="1.0" encoding="utf-8"?>
<!-- Generator: Adobe Illustrator 26.3.1, SVG Export Plug-In . SVG Version: 6.00 Build 0)  -->
<svg version="1.1" id="Calque_1" xmlns="http://www.w3.org/2000/svg" xmlns:xlink="http://www.w3.org/1999/xlink" x="0px" y="0px"
	 viewBox="0 0 595.28 841.89" style="enable-background:new 0 0 595.28 841.89;" xml:space="preserve">
<style type="text/css">
	.st0{fill:#77B9C1;}
	.st1{fill:#AADBE6;}
	.st2{fill:#55A8B0;}
	.st3{fill:#61B4C3;}
	.st4{fill:#91C8CB;}
	.st5{fill:#2EA7BD;}
	.st6{fill:#68ACB5;}
	.st7{fill:#85BCBE;}
	.st8{fill:#6A9EA5;}
	.st9{fill:#D2EBF3;}
	.st10{fill:#D9EEF5;}
	.st11{fill:#CFEAF1;}
	.st12{fill:#DAEEF3;}
	.st13{fill:#C9E7EF;}
	.st14{fill:#D9EEF3;}
	.st15{fill:#D0EAF1;}
	.st16{fill:#C8E7F0;}
	.st17{fill:#95C2C5;}
	.st18{fill:#8DC6CC;}
	.st19{fill:#CDE9F0;}
	.st20{fill:#C2E4ED;}
	.st21{fill:#B2DEEE;}
	.st22{fill:#D8EDF5;}
	.st23{fill:#DEF0F6;}
	.st24{fill:#599EA2;}
	.st25{fill:#FAF8F8;}
	.st26{fill:#18375F;}
</style>
<g>
	<g>
		<path class="st0" d="M304,252.5c-1.13-6.49,3.08-9.42,8.19-9.8c4.83-0.35,8.25,2.85,9.41,8.12c1.01,4.62,0.54,9.6,9.02,8.56
			c6.82-0.84,9.88,9.2,7.32,20.49c-0.07,0.49-0.15,0.97-0.21,1.46c-4.37,3.42-1.14,11.81-8.61,13.2c-2.05-1.65-2.13-4.23-3.07-6.41
			c-0.95-2.2-1.86-5.02-4.84-4.47c-3.47,0.65-3.49,3.89-3.38,6.64c0.13,3.36,2.04,4.94,5.47,4.55c2.29-0.26,4.67-1.76,6.8,0.45
			c1.16,6.45-3.55,7.39-7.98,8.23c-3.64,0.69-7.67,0.19-9.78,4.28c-1.68,1.88-3.47,3.65-5.7,4.89c-4.34,2.64-10.43-0.92-14.13,4.03
			c-2.12,2.12-4.1,4.54-7.64,3.59c-0.63-0.83-1-1.76-1.09-2.8c1.22-4.9,2.51-9.79,4.68-14.39c0.75-0.69,1.64-1.13,2.63-1.36
			c1.02-0.08,2.02,0.04,3.03,0.21c3.45,0.6,7.52,3.95,10.09-0.61c2.71-4.81-1.31-7.38-4.8-9.72c-1.18-0.95-2.03-2.12-2.37-3.62
			c0.05-0.33,0.07-0.68,0.17-1c1.05-3.53,6.79-7.86,1.56-10.4c-5.45-2.64-3.86,5.67-7.07,7.66c-4.35,0.61-4.53-2.91-5.58-5.59
			c0.08-5.2,1.99-10.23,1.55-15.5c0.34-0.91,0.88-1.69,1.61-2.33c1.25,1.12,2.9,2.01,3.68,3.4c1.99,3.57,5.28,3.42,8.12,2.52
			c3.73-1.18,0.26-4.06,0.62-6.17c0.49-2.86-1.4-6.33,2.39-8.23c1.67,1.38,2.35,3.36,3.24,5.23c1.03,2.19,2.13,4.9,5.19,3.81
			c3.15-1.12,3.59-4.06,2.78-6.94c-0.94-3.32-3.26-4.22-6.45-2.86C307.3,252.29,305.82,253.41,304,252.5z"/>
		<path class="st1" d="M306.01,311.32c1.3-1.45,2.6-2.9,3.89-4.36c4.86,2.56,5.52,7.16,4.52,11.62c-1.66,7.38-0.62,14.4,1.19,21.46
			c0.51,1.14,0.83,2.41,1.83,3.18c2.06-1.38,2.13-4.61,4.95-5.17c0.99-0.08,1.83,0.23,2.54,0.89c-2.73,7.07-1.56,15.64-8.15,21.23
			c-5.63,2.48-9.37-2.04-13.87-3.69c-6.03-4.89-9.98-10.91-11.44-18.82c-0.99-5.34-3.64-10.24-8.59-13.33
			c-2.53-0.25-4.12-1.48-4.3-4.16c2.01-2.05,4.16-1.89,6.38-0.38c2.18-1.28,4.36-2.56,6.54-3.84c0.81,0.54,1.45,1.24,1.96,2.07
			c3.55,4.27,0.52,11.39,6.37,14.67c1.06-0.09,1.72,2.54,1.72,1.4c-0.03-4.13-0.59-8.3-0.87-12.46c-0.18-2.71-0.62-6.33,3.32-6.38
			c4.3-0.05,2.83,3.86,3.15,6.37c0.13,1.02,0.04,2.08,0.11,2.61C307.82,320.17,306.52,315.78,306.01,311.32z"/>
		<path class="st2" d="M284.95,319.79c-2.13,0.13-4.25,0.25-6.38,0.38c-1.56-1.94-3.12-3.88-4.67-5.82
			c-0.36-1.97-2.69-2.65-3.06-4.63c-2.05-9.77-2.78-10.16-10.94-5.87c-0.96,0.28-1.84,0.12-2.65-0.47
			c-3.17-5.79-0.04-9.4,4.46-12.35c2.75-1.8,5.73-3.25,8.6-4.86c3.32,1.9,2.54,9.05,8.57,7.17c3.79-1.18,1.1-5.05-4.7-6.05
			c-1.36-0.23-2.75-0.24-3.97-0.98c2.09-4.68,5.58-7.96,3.02-14.87c-3.31-8.91,6.08-14.56,16.05-10.59
			c-0.06,0.94-0.12,1.89-0.19,2.83c-2.56,1.91-7.58,0.13-8.13,4.71c-0.54,4.53,2.27,7.52,6.27,9.39c1.47,2.03,2.95,4.07,4.42,6.1
			c3.12-0.42,4.35,1.86,5.66,4c0.8,0.68,1.6,1.37,2.4,2.05c-0.8,3.35-2,6.42-5.56,7.8c-1.26,0.13-2.2-0.54-3.13-1.24
			c0.28,1.38,1.7,1.24,2.56,1.92c1.04,2.21,0.06,3.6-1.82,4.63c-0.78,0.01-1.56,0.02-2.33,0.03c-11.32,2.13-12.05,4.33-4.47,13.54
			C284.95,317.68,284.95,318.74,284.95,319.79z"/>
		<path class="st3" d="M305.61,371.03c2.42-2.3,4.85-2.3,7.29-0.02"/>
		<path class="st4" d="M324.93,338.94c-0.63,0.03-1.26,0.05-1.89,0.08c-2.03-7.67,5.77-37.65,10.97-42.23
			c2.44-0.78,5.05-0.86,7.47-1.73c5.21-0.65,8.44-3.47,9.49-8.69c0.81-1.84,1.83-3.49,3.76-4.34c2.72,2.91,3.1,6.78,1.71,9.85
			c-3.28,7.26-6.25,14.56-8.49,22.21c-0.53,1.8-2.54,4.49-3.91,4.52C330.58,318.9,329.32,330.35,324.93,338.94z"/>
		<path class="st5" d="M312.9,371.01c-2.43,0.01-4.86,0.01-7.29,0.02c-3.3-3.56-4.65-8.08-6.19-12.51c-0.5-4,1.71-3.77,4.39-2.81
			c2.07,1.48,6.81-6.53,7.06,2.17c0.1,3.49,4.4,0.2,5.91,2.31C313.04,362.91,316.49,368.22,312.9,371.01z"/>
		<path class="st6" d="M303.8,355.7c-1.9,0.25-3.5,0.98-4.39,2.81c-8.03-10.17-9.67-23.44-16.55-34.18
			c2.34-2.89,4.28-1.88,5.55,0.87c1.61,3.49,3.54,7.05,4.15,10.77C293.88,344.07,298.32,350.12,303.8,355.7z"/>
		<path class="st7" d="M257.25,303.38c0.71-0.13,1.42-0.27,2.14-0.4c3.89,2.67,8.16,4.56,12.56,6.19c0.65,1.73,1.3,3.45,1.95,5.18
			C266.36,313.72,256.56,316.53,257.25,303.38z"/>
		<path class="st8" d="M354.74,282.03c-0.58,1.33-1.16,2.66-1.75,3.99c-5.15-0.9-10.5-0.38-15.51-2.23
			c-0.95-1.43-0.88-2.76,0.4-3.97c0,0,0.05,0.03,0.05,0.04C344.03,276.82,349.69,277.03,354.74,282.03z"/>
		<path class="st9" d="M337.89,279.83c-0.05,1.44-0.1,2.87-0.15,4.31c0.11,0.52,0.23,1.04,0.35,1.57c0.1,4.64,2.03,9.73-3.18,13.08
			c-3.32,0.72-5.25,3.88-4.75,6.12c2.85,12.59-5.16,22.69-7.12,34.12c-4.25,1.19,0.55,9.15-6.27,8.42
			c-3.4-10.02,3.77-19.55,1.08-27.99c-0.51,6.88,1.04,15.68-3.69,23.48c-3.31-7.74-5.42-15.61-2.28-23.94
			c1.68-4.44-1.32-8.02-1.97-12.02c1.16-5.98,5.64-6,10.27-5.7c4.89,0.32,9.01-0.37,9.15-6.61l0.03-0.04
			C334.08,290.78,329.96,281.82,337.89,279.83z"/>
		<path class="st9" d="M306.01,311.32c4.08,5.35,1.45,11.28,2.22,18.4c-3.25-4.76-0.47-9.56-4.69-14.22c0,10.34,0,19.16,0,28.14
			c-7.22-1.55-2.56-8.08-5.65-11.03c-3.97-4.12-2.05-10.83-6.47-14.75c0.06-0.63,0.08-1.27,0.07-1.91c0.7-2.87-0.68-7.54,5.49-5.15
			C299.66,311.84,302.98,311.2,306.01,311.32z"/>
		<path class="st10" d="M329.32,294.66c-9.65,5.87-13.52,5.32-14.51-2.27c-0.75-5.74-0.24-13.27,6.32-13.15
			c8.72,0.15,7.61,8.98,8.22,15.38C329.35,294.62,329.32,294.66,329.32,294.66z"/>
		<path class="st11" d="M304,252.5c4.66-3.36,9.61-10.49,14.07-0.29c2.5,5.7,0.7,11.88-5.63,13.4c-5.9,1.41-7.15-4.53-8.25-9.09
			c-0.32-1.31-0.09-2.75-0.1-4.14C304.08,252.38,304,252.5,304,252.5z"/>
		<path class="st12" d="M291.75,303.06c0.57-1.35,1.14-2.7,1.7-4.05c-0.78-0.48-1.02-0.91-0.71-1.29c0.29-0.35,0.58-0.53,0.88-0.53
			c2.92-1.66,1.9-6.63,6.07-7.25c3.98,0.33,7.96,0.81,8.51,5.9c0.41,3.82,1.03,8.11-2.95,10.43
			C300,309.35,296.11,304.82,291.75,303.06z"/>
		<path class="st13" d="M287.22,277.79c-0.63,3.97-2.25,3.35-4.44,1.04c-3.65-3.84-7.13-7.9-5.05-13.6c0.92-2.52,3.21-4.58,6.58-3.4
			c1.61,0.57,3.19,1.23,4.78,1.85C292.36,268.91,289.22,273.28,287.22,277.79z"/>
		<path class="st13" d="M284.95,316.62c-5.44,2.12-6.68-1.95-7.75-5.59c-1.2-4.06,0.18-7.22,3.9-9.72c3.7-2.49,6.3-2.35,8.32,1.77
			C289.97,308.27,289.25,313.04,284.95,316.62z"/>
		<path class="st14" d="M297.3,287.89c-3.02,0.28-4.03-2.31-5.66-4c-0.14-1.4-0.37-2.8-0.39-4.2c-0.04-4.33,1.38-7.69,6.27-8.13
			c3.2-0.29,5.8,1.22,6.18,4.41c0.46,3.83,2.6,8.68-3.72,10.28C299.01,286.5,298.19,287.33,297.3,287.89z"/>
		<path class="st15" d="M335.42,272.04c0.37,3.87-1.84,8.94-4.37,7.88c-3.34-1.4-8.11-4.78-7.79-9.81c0.21-3.29,2.09-7.03,6.52-6.53
			C334.63,264.12,335.16,268.14,335.42,272.04z"/>
		<path class="st16" d="M308.02,288.5c0-5.76,0.05-10.06-0.02-14.36c-0.03-1.85-1.59-4.27,1.82-4.64c2.66-0.29,5.87-1.32,7.87-0.24
			c2.25,1.21,1.43,4.55-0.45,6.28C313.6,278.88,313.98,284.73,308.02,288.5z"/>
		<path class="st17" d="M314.16,342.93c3.75-11.88,1.64-24.54,3.37-36.68c1.12,0.1,2.25,0.2,3.37,0.3
			c-1.38,13.63-2.76,27.26-4.14,40.89C314.77,346.59,314.58,344.7,314.16,342.93z"/>
		<path class="st18" d="M291.42,317.86c7.6,2.53,4.19,9.89,6.47,14.75C291.09,329.73,293.94,322.62,291.42,317.86z"/>
		<path class="st19" d="M270.21,286.32c1.97-0.71,3.89-1.61,5.91-2.08c4.88-1.13,7.28,1.97,8.46,5.9c1.66,5.51-3.48,6.55-6.59,7.81
			c-4.35,1.76-6.21-1.84-7.07-5.49c-0.48-2.03-0.42-4.18-0.61-6.28C270.31,286.18,270.21,286.32,270.21,286.32z"/>
		<path class="st20" d="M271.95,309.17c-6.4,2.44-10.71,0.61-12.56-6.19c0.95-4.32,3.13-7.54,7.91-5.31
			C271.99,299.85,275.08,303.45,271.95,309.17z"/>
		<path class="st21" d="M293.63,297.19c-0.03,0.61-0.09,1.21-0.17,1.81c-4.21-0.7-7.17-2.53-5.81-7.42c0.28-1,1.9-2.45,2.73-2.34
			C295.86,289.93,290.68,295.25,293.63,297.19z"/>
		<path class="st22" d="M337.73,284.14c5.41-2.01,10.92-4.76,15.26,1.89c0.14,7.25-1.87,12.32-10.66,10.54
			c-6.14-2.81-6.22-3.02-4.49-12.55L337.73,284.14z"/>
		<path class="st23" d="M346.01,308.11c-0.69,3.72-2.6,7.26-7.05,7.33c-4.48,0.07-5.3-3.6-5.31-7.41c-0.01-4.86,2.55-7.07,7.17-6.76
			C344.65,301.53,346.17,304.06,346.01,308.11z"/>
		<path class="st24" d="M337.85,284.01c0.53,4.53-0.71,9.7,4.49,12.56c-1.82,2.92-4.66,2.44-7.43,2.22
			C336.71,294.03,333.27,288.22,337.85,284.01z"/>
	</g>
	<g>
		<g>
			<path class="st25" d="M299.81,463.11c-2.47,9.29-4.93,18.58-7.4,27.88c-0.43,1.62-0.86,3.32-0.46,4.94
				c0.43,1.77,1.77,3.15,2.97,4.52c7.64,8.72,11.41,20.71,10.14,32.24c0.73-6.01,1.47-12.03,2.2-18.04
				c0.78-6.42,1.39-13.57-2.49-18.75c-1.2-1.6-2.87-3.12-2.93-5.12c-0.03-1.01,0.36-1.98,0.75-2.91c2.2-5.25,4.39-10.5,6.59-15.75
				c6.47,9.74,10.79,20.91,12.56,32.47c2.17,14.14,0.55,28.57,1.13,42.87c3.36-2.58,4.34-7.15,4.91-11.34
				c3.32-24.22,0.81-49.22-7.27-72.29c-0.48-1.37-1.01-2.79-2.07-3.8c-2.64-2.53-6.95-1.33-10.34,0.03"/>
			<g>
				<path class="st26" d="M298.36,462.71c-1.4,5.29-2.81,10.57-4.21,15.86c-0.72,2.72-1.45,5.45-2.17,8.17
					c-0.64,2.4-1.56,4.89-1.68,7.39c-0.12,2.44,1,4.39,2.52,6.19c1.44,1.7,2.88,3.35,4.11,5.22c2.46,3.72,4.3,7.81,5.46,12.12
					c1.32,4.9,1.7,9.98,1.17,15.02c-0.2,1.93,2.77,1.88,3,0c0.56-4.55,1.11-9.1,1.67-13.65c0.48-3.92,1.1-7.87,1.12-11.83
					c0.02-3.64-0.52-7.38-2.32-10.59c-0.89-1.58-2.23-2.81-3.16-4.36c-1.12-1.88,0.08-3.77,0.83-5.57
					c1.98-4.73,3.95-9.45,5.93-14.18c-0.91,0.12-1.83,0.24-2.74,0.36c5.26,7.96,9.08,16.78,11.25,26.08
					c2.34,10.06,2.38,20.39,2.23,30.67c-0.09,5.94-0.22,11.89,0.01,17.83c0.05,1.39,1.56,1.86,2.56,1.06
					c4.93-3.94,5.3-11.23,5.91-17.01c0.77-7.23,1.02-14.52,0.77-21.78c-0.51-14.66-3.06-29.28-7.61-43.22
					c-1.09-3.33-2.01-7.43-5.6-8.9c-3.13-1.28-6.71-0.18-9.69,1c-1.78,0.7-1,3.6,0.8,2.89c2.28-0.9,5.34-2.13,7.78-1.13
					c1.34,0.55,2.01,1.81,2.51,3.1c0.6,1.54,1.09,3.14,1.6,4.71c2.05,6.41,3.68,12.96,4.87,19.58c2.41,13.34,3.04,27.01,1.89,40.51
					c-0.29,3.45-0.6,6.95-1.3,10.35c-0.6,2.96-1.61,5.83-4.05,7.78c0.85,0.35,1.71,0.71,2.56,1.06
					c-0.41-10.74,0.37-21.48-0.12-32.21c-0.46-10.1-2.32-20.02-6.15-29.39c-2.07-5.07-4.61-9.91-7.63-14.48
					c-0.77-1.16-2.25-0.82-2.74,0.36c-1.76,4.2-3.51,8.4-5.27,12.6c-0.82,1.96-2.07,4.08-2.12,6.24c-0.04,1.84,0.95,3.37,2.05,4.75
					c1.14,1.44,2.22,2.82,2.85,4.56c0.63,1.71,0.94,3.52,1.05,5.33c0.23,3.98-0.35,7.95-0.83,11.88c-0.64,5.2-1.27,10.4-1.91,15.6
					c1,0,2,0,3,0c0.92-8.79-0.95-17.79-5.17-25.54c-1.06-1.95-2.28-3.81-3.64-5.58c-1.26-1.64-2.97-3.13-3.95-4.96
					c-1.21-2.28,0.01-5.08,0.62-7.38c0.7-2.64,1.4-5.29,2.1-7.93c1.57-5.93,3.15-11.86,4.72-17.78
					C301.75,461.64,298.86,460.84,298.36,462.71L298.36,462.71z"/>
			</g>
		</g>
		<g>
			<path class="st26" d="M295.73,407.53c-4.31,2.2-8.62,4.4-12.93,6.6c6.37,6.5,9.69,15.5,10.89,24.52
				c1.2,9.02,0.46,18.18-0.29,27.25c10.32,0.74,20.71,0.48,30.97-0.79c-1.73-10.18-3.46-20.36-5.19-30.54
				c-0.4-2.34-0.79-4.79-0.09-7.06c1.63-5.32,8.58-7.81,9.76-13.25c0.13-0.61,0.17-1.31-0.2-1.81c-0.38-0.52-1.07-0.69-1.69-0.87
				c-2.95-0.86-5.57-2.8-7.25-5.37c-2.34,4.12-7,6.83-11.75,6.82c-4.74-0.01-9.39-2.74-11.71-6.87"/>
		</g>
		<g>
			<g>
				<path class="st26" d="M309.21,393.05c-3.62-0.97-7.55,1.12-9.17,4.43c-1.71,3.49-0.57,7.6,2.32,10.1
					c2.98,2.58,6.99,3.14,10.55,1.45c3.31-1.57,5.75-5.16,5.3-8.9c-0.5-4.17-4.12-7.84-8.44-7.73c-1.93,0.05-1.93,3.05,0,3
					c2.49-0.06,4.62,1.84,5.29,4.17c0.7,2.44-0.55,4.9-2.6,6.26c-2.22,1.47-4.93,1.61-7.21,0.18c-2.01-1.26-3.54-3.75-2.92-6.17
					c0.65-2.56,3.43-4.62,6.08-3.91C310.28,396.44,311.07,393.55,309.21,393.05L309.21,393.05z"/>
			</g>
		</g>
		<g>
			<g>
				<path class="st26" d="M291.52,405.58c-1.28-3.52-2.09-7.19-2.3-10.93c-0.1-1.81-0.19-3.71,0.25-5.48
					c0.42-1.68,1.4-3.05,2.55-4.31c5.24-5.79,10.83-11.3,16.24-16.93c-0.79-0.61-1.57-1.21-2.36-1.82
					c-2.46,3.57-4.83,7.22-7.41,10.7c-2.13,2.86-5.19,4.96-7.1,7.98c-4.01,6.35-1.23,15.1,3.73,20.05c1.37,1.37,3.49-0.76,2.12-2.12
					c-4.6-4.59-6.82-12.74-2.03-17.98c1.08-1.18,2.3-2.22,3.4-3.39c1.19-1.27,2.24-2.68,3.24-4.1c2.25-3.18,4.43-6.41,6.64-9.62
					c0.97-1.41-1.19-3.03-2.36-1.82c-2.98,3.1-5.95,6.2-8.93,9.3c-2.8,2.91-5.88,5.71-8.37,8.89c-2.47,3.15-2.84,6.77-2.61,10.66
					c0.23,4.01,1.05,7.95,2.41,11.72C289.28,408.18,292.18,407.4,291.52,405.58L291.52,405.58z"/>
			</g>
		</g>
		<g>
			<g>
				<path class="st26" d="M323.85,403.99c1.31-7.41,0.02-14.93-1.35-22.24c-0.57-3.06-1.39-6.22-3.23-8.79
					c-1.93-2.69-4.82-4.38-7.08-6.74c-0.61,0.79-1.21,1.57-1.82,2.36c12.05,7.98,15.21,23.21,17.77,36.44
					c0.37,1.89,3.26,1.09,2.89-0.8c-2.73-14.12-6.35-29.75-19.15-38.23c-1.45-0.96-2.97,1.15-1.82,2.36
					c2.03,2.12,4.67,3.64,6.48,5.96c1.84,2.35,2.52,5.37,3.06,8.24c1.27,6.73,2.56,13.81,1.35,20.64
					C320.63,405.08,323.52,405.9,323.85,403.99L323.85,403.99z"/>
			</g>
		</g>
	</g>
</g>
</svg>
