<?xml version="1.0" encoding="utf-8"?>
<!-- Generator: Adobe Illustrator 26.3.1, SVG Export Plug-In . SVG Version: 6.00 Build 0)  -->
<svg version="1.1" id="Calque_1" xmlns="http://www.w3.org/2000/svg" xmlns:xlink="http://www.w3.org/1999/xlink" x="0px" y="0px"
	 viewBox="0 0 117 312.6" style="enable-background:new 0 0 117 312.6;" xml:space="preserve">
<style type="text/css">
	.st0{fill:#77B9C1;}
	.st1{fill:#AADBE6;}
	.st2{fill:#55A8B0;}
	.st3{fill:#61B4C3;}
	.st4{fill:#91C8CB;}
	.st5{fill:#2EA7BD;}
	.st6{fill:#68ACB5;}
	.st7{fill:#85BCBE;}
	.st8{fill:#6A9EA5;}
	.st9{fill:#D2EBF3;}
	.st10{fill:#D9EEF5;}
	.st11{fill:#CFEAF1;}
	.st12{fill:#DAEEF3;}
	.st13{fill:#C9E7EF;}
	.st14{fill:#D9EEF3;}
	.st15{fill:#D0EAF1;}
	.st16{fill:#C8E7F0;}
	.st17{fill:#95C2C5;}
	.st18{fill:#8DC6CC;}
	.st19{fill:#CDE9F0;}
	.st20{fill:#C2E4ED;}
	.st21{fill:#B2DEEE;}
	.st22{fill:#D8EDF5;}
	.st23{fill:#DEF0F6;}
	.st24{fill:#599EA2;}
	.st25{fill:#FAF8F8;}
	.st26{fill:#18375F;}
</style>
<g>
	<g>
		<path class="st0" d="M58,16.2c-1.1-6.5,3.1-9.4,8.2-9.8c4.8-0.4,8.2,2.9,9.4,8.1c1,4.6,0.5,9.6,9,8.6c6.8-0.8,9.9,9.2,7.3,20.5
			c-0.1,0.5-0.1,1-0.2,1.5c-4.4,3.4-1.1,11.8-8.6,13.2c-2-1.6-2.1-4.2-3.1-6.4c-1-2.2-1.9-5-4.8-4.5c-3.5,0.6-3.5,3.9-3.4,6.6
			c0.1,3.4,2,4.9,5.5,4.5c2.3-0.3,4.7-1.8,6.8,0.5c1.2,6.5-3.5,7.4-8,8.2c-3.6,0.7-7.7,0.2-9.8,4.3c-1.7,1.9-3.5,3.6-5.7,4.9
			c-4.3,2.6-10.4-0.9-14.1,4c-2.1,2.1-4.1,4.5-7.6,3.6c-0.6-0.8-1-1.8-1.1-2.8c1.2-4.9,2.5-9.8,4.7-14.4c0.8-0.7,1.6-1.1,2.6-1.4
			c1-0.1,2,0,3,0.2c3.5,0.6,7.5,4,10.1-0.6c2.7-4.8-1.3-7.4-4.8-9.7c-1.2-1-2-2.1-2.4-3.6c0-0.3,0.1-0.7,0.2-1
			c1-3.5,6.8-7.9,1.6-10.4c-5.5-2.6-3.9,5.7-7.1,7.7c-4.4,0.6-4.5-2.9-5.6-5.6c0.1-5.2,2-10.2,1.5-15.5c0.3-0.9,0.9-1.7,1.6-2.3
			c1.2,1.1,2.9,2,3.7,3.4c2,3.6,5.3,3.4,8.1,2.5c3.7-1.2,0.3-4.1,0.6-6.2c0.5-2.9-1.4-6.3,2.4-8.2c1.7,1.4,2.4,3.4,3.2,5.2
			c1,2.2,2.1,4.9,5.2,3.8c3.1-1.1,3.6-4.1,2.8-6.9c-0.9-3.3-3.3-4.2-6.5-2.9C61.3,16,59.8,17.1,58,16.2z"/>
		<path class="st1" d="M60,75c1.3-1.5,2.6-2.9,3.9-4.4c4.9,2.6,5.5,7.2,4.5,11.6c-1.7,7.4-0.6,14.4,1.2,21.5
			c0.5,1.1,0.8,2.4,1.8,3.2c2.1-1.4,2.1-4.6,5-5.2c1-0.1,1.8,0.2,2.5,0.9c-2.7,7.1-1.6,15.6-8.1,21.2c-5.6,2.5-9.4-2-13.9-3.7
			c-6-4.9-10-10.9-11.4-18.8c-1-5.3-3.6-10.2-8.6-13.3c-2.5-0.2-4.1-1.5-4.3-4.2c2-2,4.2-1.9,6.4-0.4c2.2-1.3,4.4-2.6,6.5-3.8
			c0.8,0.5,1.5,1.2,2,2.1C51,86,48,93.1,53.8,96.4c1.1-0.1,1.7,2.5,1.7,1.4c0-4.1-0.6-8.3-0.9-12.5C54.5,82.6,54.1,79,58,79
			c4.3,0,2.8,3.9,3.1,6.4c0.1,1,0,2.1,0.1,2.6C61.8,83.9,60.5,79.5,60,75z"/>
		<path class="st2" d="M39,83.5c-2.1,0.1-4.2,0.2-6.4,0.4C31,82,29.5,80,27.9,78.1c-0.4-2-2.7-2.6-3.1-4.6c-2-9.8-2.8-10.2-10.9-5.9
			c-1,0.3-1.8,0.1-2.6-0.5c-3.2-5.8,0-9.4,4.5-12.4c2.8-1.8,5.7-3.2,8.6-4.9c3.3,1.9,2.5,9,8.6,7.2c3.8-1.2,1.1-5-4.7-6
			c-1.4-0.2-2.8-0.2-4-1c2.1-4.7,5.6-8,3-14.9c-3.3-8.9,6.1-14.6,16-10.6c-0.1,0.9-0.1,1.9-0.2,2.8c-2.6,1.9-7.6,0.1-8.1,4.7
			c-0.5,4.5,2.3,7.5,6.3,9.4c1.5,2,3,4.1,4.4,6.1c3.1-0.4,4.4,1.9,5.7,4c0.8,0.7,1.6,1.4,2.4,2c-0.8,3.4-2,6.4-5.6,7.8
			c-1.3,0.1-2.2-0.5-3.1-1.2c0.3,1.4,1.7,1.2,2.6,1.9c1,2.2,0.1,3.6-1.8,4.6c-0.8,0-1.6,0-2.3,0c-11.3,2.1-12,4.3-4.5,13.5
			C39,81.4,39,82.5,39,83.5z"/>
		<path class="st3" d="M59.6,134.8c2.4-2.3,4.9-2.3,7.3,0"/>
		<path class="st4" d="M78.9,102.7c-0.6,0-1.3,0-1.9,0.1c-2-7.7,5.8-37.6,11-42.2c2.4-0.8,5-0.9,7.5-1.7c5.2-0.6,8.4-3.5,9.5-8.7
			c0.8-1.8,1.8-3.5,3.8-4.3c2.7,2.9,3.1,6.8,1.7,9.9c-3.3,7.3-6.2,14.6-8.5,22.2c-0.5,1.8-2.5,4.5-3.9,4.5
			C84.6,82.6,83.3,94.1,78.9,102.7z"/>
		<path class="st5" d="M66.9,134.7c-2.4,0-4.9,0-7.3,0c-3.3-3.6-4.6-8.1-6.2-12.5c-0.5-4,1.7-3.8,4.4-2.8c2.1,1.5,6.8-6.5,7.1,2.2
			c0.1,3.5,4.4,0.2,5.9,2.3C67,126.6,70.5,131.9,66.9,134.7z"/>
		<path class="st6" d="M57.8,119.4c-1.9,0.2-3.5,1-4.4,2.8c-8-10.2-9.7-23.4-16.5-34.2c2.3-2.9,4.3-1.9,5.5,0.9
			c1.6,3.5,3.5,7,4.1,10.8C47.9,107.8,52.3,113.8,57.8,119.4z"/>
		<path class="st7" d="M11.2,67.1c0.7-0.1,1.4-0.3,2.1-0.4c3.9,2.7,8.2,4.6,12.6,6.2c0.6,1.7,1.3,3.5,2,5.2
			C20.4,77.4,10.6,80.3,11.2,67.1z"/>
		<path class="st8" d="M108.7,45.8c-0.6,1.3-1.2,2.7-1.8,4c-5.1-0.9-10.5-0.4-15.5-2.2c-1-1.4-0.9-2.8,0.4-4c0,0,0,0,0,0
			C98,40.5,103.7,40.8,108.7,45.8z"/>
		<path class="st9" d="M91.9,43.6c0,1.4-0.1,2.9-0.1,4.3c0.1,0.5,0.2,1,0.4,1.6c0.1,4.6,2,9.7-3.2,13.1c-3.3,0.7-5.2,3.9-4.8,6.1
			C87,81.2,79,91.3,77,102.8c-4.2,1.2,0.5,9.1-6.3,8.4c-3.4-10,3.8-19.5,1.1-28c-0.5,6.9,1,15.7-3.7,23.5
			c-3.3-7.7-5.4-15.6-2.3-23.9c1.7-4.4-1.3-8-2-12c1.2-6,5.6-6,10.3-5.7c4.9,0.3,9-0.4,9.1-6.6l0,0C88.1,54.5,84,45.5,91.9,43.6z"/>
		<path class="st9" d="M60,75c4.1,5.4,1.5,11.3,2.2,18.4c-3.2-4.8-0.5-9.6-4.7-14.2c0,10.3,0,19.2,0,28.1c-7.2-1.5-2.6-8.1-5.6-11
			c-4-4.1-2-10.8-6.5-14.8c0.1-0.6,0.1-1.3,0.1-1.9c0.7-2.9-0.7-7.5,5.5-5.1C53.7,75.6,57,74.9,60,75z"/>
		<path class="st10" d="M83.3,58.4c-9.6,5.9-13.5,5.3-14.5-2.3c-0.8-5.7-0.2-13.3,6.3-13.1C83.9,43.1,82.7,51.9,83.3,58.4
			C83.4,58.3,83.3,58.4,83.3,58.4z"/>
		<path class="st11" d="M58,16.2c4.7-3.4,9.6-10.5,14.1-0.3c2.5,5.7,0.7,11.9-5.6,13.4c-5.9,1.4-7.1-4.5-8.2-9.1
			c-0.3-1.3-0.1-2.8-0.1-4.1C58.1,16.1,58,16.2,58,16.2z"/>
		<path class="st12" d="M45.8,66.8c0.6-1.4,1.1-2.7,1.7-4c-0.8-0.5-1-0.9-0.7-1.3c0.3-0.4,0.6-0.5,0.9-0.5c2.9-1.7,1.9-6.6,6.1-7.2
			c4,0.3,8,0.8,8.5,5.9c0.4,3.8,1,8.1-3,10.4C54,73.1,50.1,68.5,45.8,66.8z"/>
		<path class="st13" d="M41.2,41.5c-0.6,4-2.2,3.4-4.4,1c-3.6-3.8-7.1-7.9-5-13.6c0.9-2.5,3.2-4.6,6.6-3.4c1.6,0.6,3.2,1.2,4.8,1.9
			C46.4,32.6,43.2,37,41.2,41.5z"/>
		<path class="st13" d="M39,80.3c-5.4,2.1-6.7-2-7.8-5.6c-1.2-4.1,0.2-7.2,3.9-9.7c3.7-2.5,6.3-2.4,8.3,1.8C44,72,43.2,76.8,39,80.3
			z"/>
		<path class="st14" d="M51.3,51.6c-3,0.3-4-2.3-5.7-4c-0.1-1.4-0.4-2.8-0.4-4.2c0-4.3,1.4-7.7,6.3-8.1c3.2-0.3,5.8,1.2,6.2,4.4
			c0.5,3.8,2.6,8.7-3.7,10.3C53,50.2,52.2,51.1,51.3,51.6z"/>
		<path class="st15" d="M89.4,35.8c0.4,3.9-1.8,8.9-4.4,7.9c-3.3-1.4-8.1-4.8-7.8-9.8c0.2-3.3,2.1-7,6.5-6.5
			C88.6,27.8,89.2,31.9,89.4,35.8z"/>
		<path class="st16" d="M62,52.2c0-5.8,0-10.1,0-14.4c0-1.9-1.6-4.3,1.8-4.6c2.7-0.3,5.9-1.3,7.9-0.2c2.2,1.2,1.4,4.5-0.5,6.3
			C67.6,42.6,68,48.5,62,52.2z"/>
		<path class="st17" d="M68.2,106.7c3.8-11.9,1.6-24.5,3.4-36.7c1.1,0.1,2.2,0.2,3.4,0.3c-1.4,13.6-2.8,27.3-4.1,40.9
			C68.8,110.3,68.6,108.4,68.2,106.7z"/>
		<path class="st18" d="M45.4,81.6c7.6,2.5,4.2,9.9,6.5,14.8C45.1,93.5,47.9,86.3,45.4,81.6z"/>
		<path class="st19" d="M24.2,50c2-0.7,3.9-1.6,5.9-2.1c4.9-1.1,7.3,2,8.5,5.9c1.7,5.5-3.5,6.5-6.6,7.8c-4.4,1.8-6.2-1.8-7.1-5.5
			c-0.5-2-0.4-4.2-0.6-6.3C24.3,49.9,24.2,50,24.2,50z"/>
		<path class="st20" d="M26,72.9c-6.4,2.4-10.7,0.6-12.6-6.2c1-4.3,3.1-7.5,7.9-5.3C26,63.6,29.1,67.2,26,72.9z"/>
		<path class="st21" d="M47.6,60.9c0,0.6-0.1,1.2-0.2,1.8c-4.2-0.7-7.2-2.5-5.8-7.4c0.3-1,1.9-2.5,2.7-2.3
			C49.9,53.7,44.7,59,47.6,60.9z"/>
		<path class="st22" d="M91.7,47.9c5.4-2,10.9-4.8,15.3,1.9c0.1,7.2-1.9,12.3-10.7,10.5c-6.1-2.8-6.2-3-4.5-12.5L91.7,47.9z"/>
		<path class="st23" d="M100,71.8c-0.7,3.7-2.6,7.3-7,7.3c-4.5,0.1-5.3-3.6-5.3-7.4c0-4.9,2.5-7.1,7.2-6.8
			C98.6,65.3,100.2,67.8,100,71.8z"/>
		<path class="st24" d="M91.9,47.7c0.5,4.5-0.7,9.7,4.5,12.6c-1.8,2.9-4.7,2.4-7.4,2.2C90.7,57.8,87.3,51.9,91.9,47.7z"/>
	</g>
	<g>
		<g>
			<path class="st25" d="M53.8,226.8c-2.5,9.3-4.9,18.6-7.4,27.9c-0.4,1.6-0.9,3.3-0.5,4.9c0.4,1.8,1.8,3.1,3,4.5
				c7.6,8.7,11.4,20.7,10.1,32.2c0.7-6,1.5-12,2.2-18c0.8-6.4,1.4-13.6-2.5-18.8c-1.2-1.6-2.9-3.1-2.9-5.1c0-1,0.4-2,0.8-2.9
				c2.2-5.2,4.4-10.5,6.6-15.8c6.5,9.7,10.8,20.9,12.6,32.5c2.2,14.1,0.5,28.6,1.1,42.9c3.4-2.6,4.3-7.2,4.9-11.3
				c3.3-24.2,0.8-49.2-7.3-72.3c-0.5-1.4-1-2.8-2.1-3.8c-2.6-2.5-7-1.3-10.3,0"/>
			<g>
				<path class="st26" d="M52.4,226.4c-1.4,5.3-2.8,10.6-4.2,15.9c-0.7,2.7-1.5,5.5-2.2,8.2c-0.6,2.4-1.6,4.9-1.7,7.4
					c-0.1,2.4,1,4.4,2.5,6.2c1.4,1.7,2.9,3.4,4.1,5.2c2.5,3.7,4.3,7.8,5.5,12.1c1.3,4.9,1.7,10,1.2,15c-0.2,1.9,2.8,1.9,3,0
					c0.6-4.5,1.1-9.1,1.7-13.7c0.5-3.9,1.1-7.9,1.1-11.8c0-3.6-0.5-7.4-2.3-10.6c-0.9-1.6-2.2-2.8-3.2-4.4c-1.1-1.9,0.1-3.8,0.8-5.6
					c2-4.7,4-9.5,5.9-14.2c-0.9,0.1-1.8,0.2-2.7,0.4c5.3,8,9.1,16.8,11.2,26.1c2.3,10.1,2.4,20.4,2.2,30.7c-0.1,5.9-0.2,11.9,0,17.8
					c0,1.4,1.6,1.9,2.6,1.1c4.9-3.9,5.3-11.2,5.9-17c0.8-7.2,1-14.5,0.8-21.8c-0.5-14.7-3.1-29.3-7.6-43.2c-1.1-3.3-2-7.4-5.6-8.9
					c-3.1-1.3-6.7-0.2-9.7,1c-1.8,0.7-1,3.6,0.8,2.9c2.3-0.9,5.3-2.1,7.8-1.1c1.3,0.5,2,1.8,2.5,3.1c0.6,1.5,1.1,3.1,1.6,4.7
					c2,6.4,3.7,13,4.9,19.6c2.4,13.3,3,27,1.9,40.5c-0.3,3.5-0.6,7-1.3,10.3c-0.6,3-1.6,5.8-4,7.8c0.9,0.3,1.7,0.7,2.6,1.1
					c-0.4-10.7,0.4-21.5-0.1-32.2c-0.5-10.1-2.3-20-6.1-29.4c-2.1-5.1-4.6-9.9-7.6-14.5c-0.8-1.2-2.2-0.8-2.7,0.4
					c-1.8,4.2-3.5,8.4-5.3,12.6c-0.8,2-2.1,4.1-2.1,6.2c0,1.8,1,3.4,2,4.8c1.1,1.4,2.2,2.8,2.9,4.6c0.6,1.7,0.9,3.5,1,5.3
					c0.2,4-0.4,7.9-0.8,11.9c-0.6,5.2-1.3,10.4-1.9,15.6c1,0,2,0,3,0c0.9-8.8-1-17.8-5.2-25.5c-1.1-2-2.3-3.8-3.6-5.6
					c-1.3-1.6-3-3.1-4-5c-1.2-2.3,0-5.1,0.6-7.4c0.7-2.6,1.4-5.3,2.1-7.9c1.6-5.9,3.1-11.9,4.7-17.8
					C55.8,225.4,52.9,224.6,52.4,226.4L52.4,226.4z"/>
			</g>
		</g>
		<g>
			<path class="st26" d="M49.7,171.3c-4.3,2.2-8.6,4.4-12.9,6.6c6.4,6.5,9.7,15.5,10.9,24.5s0.5,18.2-0.3,27.2
				c10.3,0.7,20.7,0.5,31-0.8c-1.7-10.2-3.5-20.4-5.2-30.5c-0.4-2.3-0.8-4.8-0.1-7.1c1.6-5.3,8.6-7.8,9.8-13.2
				c0.1-0.6,0.2-1.3-0.2-1.8c-0.4-0.5-1.1-0.7-1.7-0.9c-3-0.9-5.6-2.8-7.2-5.4c-2.3,4.1-7,6.8-11.8,6.8c-4.7,0-9.4-2.7-11.7-6.9"/>
		</g>
		<g>
			<g>
				<path class="st26" d="M63.2,156.8c-3.6-1-7.5,1.1-9.2,4.4c-1.7,3.5-0.6,7.6,2.3,10.1c3,2.6,7,3.1,10.5,1.5
					c3.3-1.6,5.8-5.2,5.3-8.9c-0.5-4.2-4.1-7.8-8.4-7.7c-1.9,0-1.9,3,0,3c2.5-0.1,4.6,1.8,5.3,4.2c0.7,2.4-0.5,4.9-2.6,6.3
					c-2.2,1.5-4.9,1.6-7.2,0.2c-2-1.3-3.5-3.8-2.9-6.2c0.6-2.6,3.4-4.6,6.1-3.9C64.3,160.2,65.1,157.3,63.2,156.8L63.2,156.8z"/>
			</g>
		</g>
		<g>
			<g>
				<path class="st26" d="M45.5,169.3c-1.3-3.5-2.1-7.2-2.3-10.9c-0.1-1.8-0.2-3.7,0.2-5.5c0.4-1.7,1.4-3,2.5-4.3
					c5.2-5.8,10.8-11.3,16.2-16.9c-0.8-0.6-1.6-1.2-2.4-1.8c-2.5,3.6-4.8,7.2-7.4,10.7c-2.1,2.9-5.2,5-7.1,8c-4,6.4-1.2,15.1,3.7,20
					c1.4,1.4,3.5-0.8,2.1-2.1c-4.6-4.6-6.8-12.7-2-18c1.1-1.2,2.3-2.2,3.4-3.4c1.2-1.3,2.2-2.7,3.2-4.1c2.2-3.2,4.4-6.4,6.6-9.6
					c1-1.4-1.2-3-2.4-1.8c-3,3.1-6,6.2-8.9,9.3c-2.8,2.9-5.9,5.7-8.4,8.9c-2.5,3.1-2.8,6.8-2.6,10.7c0.2,4,1,8,2.4,11.7
					C43.3,171.9,46.2,171.1,45.5,169.3L45.5,169.3z"/>
			</g>
		</g>
		<g>
			<g>
				<path class="st26" d="M77.9,167.7c1.3-7.4,0-14.9-1.4-22.2c-0.6-3.1-1.4-6.2-3.2-8.8c-1.9-2.7-4.8-4.4-7.1-6.7
					c-0.6,0.8-1.2,1.6-1.8,2.4c12,8,15.2,23.2,17.8,36.4c0.4,1.9,3.3,1.1,2.9-0.8c-2.7-14.1-6.4-29.8-19.1-38.2
					c-1.5-1-3,1.1-1.8,2.4c2,2.1,4.7,3.6,6.5,6c1.8,2.4,2.5,5.4,3.1,8.2c1.3,6.7,2.6,13.8,1.4,20.6
					C74.6,168.8,77.5,169.6,77.9,167.7L77.9,167.7z"/>
			</g>
		</g>
	</g>
</g>
</svg>
