<?xml version="1.0" encoding="utf-8"?>
<!-- Generator: Adobe Illustrator 26.3.1, SVG Export Plug-In . SVG Version: 6.00 Build 0)  -->
<svg version="1.1" id="Calque_1" xmlns="http://www.w3.org/2000/svg" xmlns:xlink="http://www.w3.org/1999/xlink" x="0px" y="0px"
	 viewBox="0 0 608.57 128.57" style="enable-background:new 0 0 608.57 128.57;" xml:space="preserve">
<style type="text/css">
	.st0{fill:#142840;}
</style>
<g>
	<path class="st0" d="M184.68,33.54c-0.2-6.38-3.17-12.05-8.73-14.28c-6.96-2.79-14.56-2.1-20.66,3.3
		c-12.03,10.67-15.09,27.94-8.07,42.66c3.15,6.6,5.86,13.43,8.55,20.24c2.18,5.5,3.7,11.52-4.26,13.3
		c-6.91,1.54-8.06-3.93-8.55-9.18c-0.29-3.09-1.11-5.97-4.41-6.87c-2-0.55-2.96,1.5-4.01,2.86c-2.13,2.77-1.65,5.83,0.32,8.11
		c2.83,3.29,5.93,6.61,9.57,8.87c4.72,2.94,9.63,3.41,14.21-1.46c5.61-5.96,7.1-12.37,4.72-20.12c-3.27-10.62-6.52-21.26-7.76-30.87
		c0.07-8.17,2.12-14.22,5.42-19.89c2.55-4.38,6.12-6.54,10.94-3.64c4.65,2.8,3.53,7.04,1.59,10.84c-1.31,2.57-3.39,4.75-5.2,7.04
		c-1.69,2.14-3.58,4.45-1.3,6.99c2.23,2.48,5.41,2.53,8.06,0.72C181.58,47.74,184.93,41.48,184.68,33.54z"/>
	<path class="st0" d="M51.08,42.88c-3.74,0.6-5.38,2.17-4.91,5.66c0.5,3.75,3.12,4.46,6.46,3.82c10.06-1.92,18.1-11.06,18.3-20.85
		c0.2-10.34-6.55-15.75-16.44-13.17c-5.29,1.38-8.32,5.12-10.49,9.87c-9.73,21.31-19.5,42.59-29.23,63.9
		c-1.15,2.52-4.18,4.91-1.74,7.93c2.1,2.6,5.45,1.46,8.28,1.49c1.72,0.02,3.48-0.46,5.18-0.86c9.57-2.27,19.09-3.38,28.26,1.51
		c1.79,0.96,3.51,1.26,4.62-0.5c1.69-2.68-0.9-3.51-2.5-4.56c-9.25-6.06-18.92-7.2-29.16-2.58c-1.75,0.79-3.97,2.4-5.67,0.53
		c-1.66-1.82,0.04-3.87,0.93-5.61c5.19-10.21,8.66-21.17,13.42-31.52c5.35-11.63,9.19-24.22,18.35-33.81
		c1.74-1.82,3.33-4.57,6.53-3.23c2.46,1.04,2.79,3.63,3.24,5.93C66.34,36.23,62.53,41.04,51.08,42.88z"/>
	<path class="st0" d="M242.77,16.44c-3.84,0.07-2.23,3.29-2.32,5.35c-0.23,5.39-2.5,10.2-4.05,15.22
		c-5.7,18.42-12.25,36.59-16.35,55.47c-0.11,2.44-0.4,5,1.17,6.86c2.21,2.62,4.48,5.4,8.77,2.73c5.46-3.4-2.19-2.73-1.49-5.1
		c0.34-1.16-0.72-3.34-0.26-5c6.37-22.83,11.41-46.08,21.1-67.87c0.93-2.09,3.16-3.9,0.96-6.21
		C248.26,15.75,245.27,16.4,242.77,16.44z"/>
	<path class="st0" d="M423.06,19.18c-1.81-1.09-4.5-1.2-6.74-1c-3.59,0.33-1.39,2.91-1.45,4.67c-0.05,1.43-0.36,2.91-0.87,4.25
		c-4.27,11.2-8.94,22.25-12.84,33.57c-3.53,10.23-6.88,20.61-9.13,31.17c-2.18,10.25,2.41,14,12.19,11.3
		c3.19-0.97,6.3-2.04,7.35-6.95c-4.14,1.39-7.51,2.51-10.88,3.64c0.08,0.07,0.16,0.15,0.24,0.22c-0.09-0.06-0.17-0.14-0.24-0.22
		c-4.3-2.3-4.69-6.4-2.68-9.72c3.56-5.87,4.64-12.48,7.04-18.67c6.01-15.57,12.02-31.13,18.02-46.7
		C423.8,22.86,425.08,20.39,423.06,19.18z"/>
	<path class="st0" d="M547.19,61.25c0.37-2.93,2.39-4.91,4.18-7.06c3.86-4.64,4.3-13.22,13.82-11.35c1.62,0.32,2.94-2.68,3.23-4.73
		c0.32-2.27-1.09-4.84-2.97-4.74c-7.09,0.4-6.04-4.05-5.77-8.42c0.16-2.57-0.82-4.73-3.73-5.03c-2.46-0.25-3.83,1.52-4.37,3.56
		c-0.51,1.93-0.75,4.07-0.51,6.05c1.07,8.68-1.49,16.02-6.93,22.82c-3.99,4.99-8.87,9.35-11.62,15.29c-9.09,8-15.1,18.96-25.1,26.82
		c-3.88-12.75,1.11-23.45,5.2-34.28c3.09-8.18,7.97-15.7,9.05-24.63c1.18-9.72-2.91-14.47-12.64-14.45c-3.39,0-8.15-0.89-8.44,3.86
		c-0.31,5.05,4.34,5.72,8.28,5.38c6.37-0.55,7.22,2.42,5.19,7.41c-0.99,2.42-2.24,4.77-3.63,6.98
		c-11.07,17.48-17.12,35.87-10.81,56.69c0.69,2.28,0.77,4.85,3.57,5.42c2.79,0.57,3.74-1.77,5.32-3.57
		c9.41-10.73,19.08-21.25,28.65-31.84c0.94-0.97,1.93-1.92,2.05-3.22c3.1-0.93,5.15-3.19,7.12-5.56c-0.47,1.8,0.86,3.49,1.04,5.25
		c-5.06,7.17-7.21,15.52-9.55,23.78c-1.93,6.84,1,11.59,7.31,13.8c4.61,1.61,7.76-0.7,10.25-5.76c-4.6-0.07-7.97,3.01-10.56,0.03
		c-2.55-2.94-0.13-6.28,0.97-9.08c2.98-7.6,6.68-14.92,9.66-22.52c0.94-2.41,4.88-4.76,1.8-7.73
		C553.85,57.18,550.38,59.13,547.19,61.25z"/>
	<path class="st0" d="M593.33,64.31c-3.7-3.87-13.75-3.04-18.55,1.93c-6.21,6.43-10.72,14-13.09,22.66
		c-1.7,6.23,2.77,14.35,9.17,15.9c5.93,1.44,11.44,0.46,14.73-6.22c-6.5,3.5-11.89,1.58-15.09-3.49c-2.52-3.99,4.22-4.56,5.08-7.84
		c-4.04-0.06-4.08-1.97-2.83-5.21c2.43-6.27,8.61-12.14,16.5-14.8c1.16,8.84-6.91,12.28-10.32,18.28c0,0,0,0,0,0
		c4.82,2.09,6.65-2.36,9.45-4.46C595.16,75.98,597.28,68.44,593.33,64.31z"/>
	<path class="st0" d="M315.64,98.2c-8.77,2.76-5.81-4.11-5.7-7.57c0.22-6.77,2.48-13.2,4.72-19.57c5.55-15.76,12-31.14,19.25-46.19
		c1.13-2.35,3.2-4.96-0.6-6.53c-2.72-1.12-5.84-1.47-7.74,1.78c-1.02,1.74-1.88,3.6-2.59,5.49c-3.5,9.3-6.99,18.61-10.35,27.97
		c-1.24,3.46-2.07,5.42-7.13,4.94c-18.8-1.76-34.47,17.73-29.89,36.26c1.93,7.8,8.96,11.14,16.27,7.34
		c3.87-2.01,7.35-4.78,11.23-7.35c0.96,1.97,1.67,4.29,3.06,6.08c2.75,3.56,6.42,3.74,10.09,1.48c0.77-0.48,1.11-2.04,1.18-3.13
		C317.51,98.35,316.68,97.88,315.64,98.2z M307.96,72.48c-2.28,10.36-6.71,19.16-16.26,24.59c-1.98,1.12-4.17,2.48-6.58,1.14
		c-2.66-1.47-1.62-4.07-1.65-6.32c0.88-7,2.17-13.88,5.81-20.09c2.32-3.95,5.4-6.75,10.01-7.89
		C307.99,61.76,309.88,63.72,307.96,72.48z"/>
	<path class="st0" d="M454.7,64.22c-19.41-0.73-28.99,7.51-30.13,25.93c-0.66,10.57,7.05,17.68,16.32,14.56
		c3.57-1.2,6.31-3.62,9.76,0.47c1.65,1.96,4.43,0.78,6.06-1.29c0.95-1.21,1.38-3.17-0.23-3.74c-6.46-2.27-2.36-6.08-1.31-9.08
		c1.83-5.23,4.24-10.25,6.36-15.37C465.98,64.89,465.82,64.64,454.7,64.22z M453,74.93c-2.53,6.81-5.17,13.57-7.59,20.42
		c-1.48,4.17-4.76,4.79-8.39,4.55c-3.8-0.26-3.21-3.38-3.55-5.3c1.94-9.92,5.3-18.45,12.81-24.72c1.8-1.5,4.3-2.7,6.44-1.28
		C455.19,70.23,453.81,72.76,453,74.93z"/>
	<path class="st0" d="M199.89,59.43c-4.33,0.17-7.84,2.21-10.87,5.11c-6.61,6.32-10.22,13.98-10.84,23.22
		c-0.52,7.76,1.09,14.43,9.17,16.83c7.67,2.28,14.24-0.23,19.32-7.86c-5.55-0.77-8.14,3.09-12.01,3.33
		c-3.76,0.24-8.55,1.79-8.71-3.84c-0.12-4.19-3.77-11.37,5.92-11.25c5.03,0.06,9.47-2.8,13.99-4.85c5.79-2.63,10.3-7.14,8.53-13.48
		C212.59,60.13,206.08,59.19,199.89,59.43z M207.75,72.11c-4.32,4.55-9.96,6.8-16.03,7.89c-2.75,0.49-4.15-1.05-2.33-3.44
		c3.99-5.26,7.68-11.18,15.08-11.13c1.93-0.45,3.37-0.34,4.25,1.08C210.02,68.6,209.05,70.75,207.75,72.11z"/>
	<path class="st0" d="M87.71,59.25c-11.34,2.59-20.34,12.85-21.96,24.69c-1.29,9.43,1.76,15.54,10.03,18.01
		c7.9,2.37,13.31-1.62,17.51-8.99c-5.84-1.06-7.47,4.47-11.76,4.8c-4.91,0.38-8.05-1.07-8.9-6.06c-0.89-5.22,3.02-4.39,6.13-4.81
		c7.84-1.05,14.5-4.7,19.65-10.55c3.38-3.84,5.1-8.39,1.75-13.58C96.92,57.74,92.34,58.19,87.71,59.25z M90.05,76.73
		c-3.51,2.71-7.58,4.24-12.35,4.26c-4.1,0.77-3.99-1.39-2.53-4.32c1.82-3.66,4.14-6.89,7.16-9.74c4.36-4.12,9.9-6.27,13.45-1.22
		C98.87,70.11,93.68,73.93,90.05,76.73z"/>
	<path class="st0" d="M346.68,59.14c-5.46,1.18-10.93,2.81-13.81,8.2c-3.34,6.23-5.62,12.94-6.12,20.06
		c-0.39,5.55,1.02,10.78,6.1,13.71c4.83,2.78,9.81,1.29,14.02-1.81c2.68-1.98,8.91-3.14,5.92-7.59c-2.35-3.5-4.88,2.36-7.7,3.25
		c-0.78,0.24-1.32,1.15-2.06,1.61c-2.41,1.5-4.99,1.96-7.46,0.36c-2.78-1.8-1.64-4.68-1.69-7.24c-0.07-3.27,2.11-3.31,4.51-3.99
		c6.16-1.73,12.43-3.53,16.81-8.77c2.78-3.32,4.6-6.99,2.44-11.23C355.44,61.39,351.36,59.78,346.68,59.14z M350.39,74.12
		c-3.84,4.53-8.39,8.11-15.82,7.94c1.35-6.45,3.62-11.5,7.92-15.33c2.53-2.26,5.89-3.58,8.79-1.14
		C354.62,68.41,352.43,71.71,350.39,74.12z"/>
</g>
</svg>
