<?xml version="1.0" encoding="utf-8"?>
<!-- Generator: Adobe Illustrator 26.3.1, SVG Export Plug-In . SVG Version: 6.00 Build 0)  -->
<svg version="1.1" id="Calque_1" xmlns="http://www.w3.org/2000/svg" xmlns:xlink="http://www.w3.org/1999/xlink" x="0px" y="0px"
	 viewBox="0 0 608.57 128.57" style="enable-background:new 0 0 608.57 128.57;" xml:space="preserve">
<style type="text/css">
	.st0{fill:#1B213D;}
	.st1{fill:#192643;}
	.st2{fill:#17213A;}
	.st3{fill:#14192E;}
	.st4{fill:#172A47;}
	.st5{fill:#171E36;}
	.st6{fill:#17233C;}
	.st7{fill:#161C33;}
	.st8{fill:#16223A;}
	.st9{fill:#13172A;}
	.st10{fill:#142840;}
	.st11{fill:#172743;}
	.st12{fill:#152239;}
	.st13{fill:#FFFFFF;}
	.st14{fill:#3B535B;}
</style>
<g>
	<path class="st0" d="M155.59,50.11c1.24,9.6,4.49,20.25,7.76,30.87c2.39,7.75,0.89,14.17-4.72,20.12
		c-4.58,4.86-9.49,4.4-14.21,1.46c-3.63-2.27-6.74-5.58-9.57-8.87c-1.97-2.28-2.45-5.34-0.32-8.11c1.04-1.36,2-3.41,4.01-2.86
		c3.3,0.9,4.12,3.78,4.41,6.87c0.5,5.26,1.64,10.73,8.55,9.18c7.97-1.78,6.44-7.8,4.26-13.3c-2.69-6.81-5.4-13.64-8.55-20.24
		c-7.03-14.72-3.97-31.98,8.07-42.66c6.1-5.41,13.7-6.1,20.66-3.3c5.56,2.23,8.52,7.9,8.73,14.28c0.26,7.95-3.1,14.2-9.59,18.64
		c-2.65,1.81-5.83,1.76-8.06-0.72c-2.28-2.54-0.39-4.85,1.3-6.99c1.81-2.29,3.9-4.48,5.2-7.04c1.93-3.8,3.06-8.04-1.59-10.84
		c-4.82-2.9-8.39-0.75-10.94,3.64C157.72,35.88,155.66,41.94,155.59,50.11z"/>
	<path class="st1" d="M303.12,94.78c-3.88,2.57-7.36,5.34-11.23,7.35c-7.31,3.8-14.34,0.46-16.27-7.34
		c-4.58-18.53,11.09-38.03,29.89-36.26c5.06,0.47,5.88-1.48,7.13-4.94c3.36-9.36,6.85-18.67,10.35-27.97
		c0.71-1.89,1.58-3.75,2.59-5.49c1.9-3.24,5.02-2.9,7.74-1.78c3.79,1.57,1.73,4.18,0.6,6.53c-7.24,15.05-13.69,30.43-19.25,46.19
		c-2.25,6.37-4.51,12.81-4.72,19.57c-0.11,3.46-3.07,10.33,5.7,7.57c1.05-0.33,1.87,0.15,1.81,1c-0.07,1.09-0.41,2.66-1.18,3.13
		c-3.66,2.26-7.33,2.07-10.09-1.48C304.79,99.07,304.08,96.75,303.12,94.78z"/>
	<path class="st2" d="M70.92,31.52c-0.19,9.79-8.24,18.93-18.3,20.85c-3.34,0.64-5.96-0.08-6.46-3.82
		c-0.46-3.49,1.17-5.06,4.91-5.66c11.44-1.85,15.25-6.66,13.41-16.05c-0.45-2.29-0.78-4.89-3.24-5.93c-3.2-1.35-4.79,1.4-6.53,3.23
		c-9.16,9.58-13,22.18-18.35,33.81c-4.76,10.35-8.22,21.31-13.42,31.52c-0.88,1.74-2.59,3.79-0.93,5.61
		c1.71,1.87,3.93,0.26,5.67-0.53c10.24-4.62,19.91-3.48,29.16,2.58c1.6,1.05,4.19,1.88,2.5,4.56c-1.11,1.76-2.83,1.46-4.62,0.5
		c-9.16-4.89-18.68-3.78-28.26-1.51c-1.7,0.4-3.46,0.88-5.18,0.86c-2.83-0.03-6.18,1.11-8.28-1.49c-2.44-3.02,0.59-5.41,1.74-7.93
		c9.73-21.31,19.5-42.59,29.23-63.9c2.17-4.75,5.2-8.48,10.49-9.87C64.37,15.77,71.13,21.18,70.92,31.52z"/>
	<path class="st3" d="M537.13,71.44c-9.58,10.59-19.24,21.1-28.65,31.84c-1.57,1.8-2.53,4.14-5.32,3.57
		c-2.8-0.57-2.88-3.14-3.57-5.42c-6.3-20.82-0.26-39.21,10.81-56.69c1.4-2.21,2.65-4.56,3.63-6.98c2.04-4.99,1.18-7.96-5.19-7.41
		c-3.94,0.34-8.59-0.33-8.28-5.38c0.29-4.75,5.05-3.85,8.44-3.86c9.74-0.01,13.82,4.73,12.64,14.45
		c-1.08,8.93-5.95,16.45-9.05,24.63c-4.09,10.82-9.08,21.52-5.2,34.28c10-7.86,16-18.82,25.1-26.82c2.06-1.16,3.87-4.4,6.49-0.77
		C539.7,68.94,538.37,70.17,537.13,71.44z"/>
	<path class="st4" d="M424.56,90.15c1.15-18.42,10.72-26.65,30.13-25.93c11.13,0.42,11.29,0.67,6.83,11.48
		c-2.12,5.13-4.53,10.15-6.36,15.37c-1.05,3-5.15,6.81,1.31,9.08c1.61,0.57,1.19,2.53,0.23,3.74c-1.63,2.07-4.41,3.24-6.06,1.29
		c-3.45-4.09-6.19-1.67-9.76-0.47C431.62,107.82,423.91,100.71,424.56,90.15z"/>
	<path class="st5" d="M220.05,92.49c4.09-18.88,10.64-37.05,16.35-55.47c1.56-5.03,3.83-9.83,4.05-15.22
		c0.09-2.05-1.53-5.27,2.32-5.35c2.5-0.05,5.49-0.7,7.53,1.45c2.2,2.31-0.03,4.11-0.96,6.21c-9.69,21.79-14.73,45.04-21.1,67.87
		c-0.47,1.67,0.6,3.85,0.26,5c-0.69,2.37,6.96,1.71,1.49,5.1c-4.29,2.67-6.56-0.11-8.77-2.73
		C219.65,97.49,219.94,94.93,220.05,92.49z"/>
	<path class="st6" d="M206.68,96.73c-5.08,7.63-11.65,10.14-19.32,7.86c-8.08-2.4-9.69-9.07-9.17-16.83
		c0.62-9.24,4.22-16.9,10.84-23.22c3.03-2.9,6.54-4.93,10.87-5.11c6.18-0.24,12.7,0.7,14.5,7.21c1.76,6.34-2.74,10.85-8.53,13.48
		c-4.52,2.05-8.95,4.91-13.99,4.85c-9.69-0.12-6.04,7.06-5.92,11.25c0.16,5.62,4.95,4.08,8.71,3.84
		C198.54,99.81,201.13,95.96,206.68,96.73z"/>
	<path class="st7" d="M404.23,103.15c-9.78,2.7-14.37-1.04-12.19-11.3c2.25-10.56,5.6-20.94,9.13-31.17
		c3.9-11.32,8.57-22.38,12.84-33.57c0.51-1.34,0.82-2.82,0.87-4.25c0.07-1.76-2.14-4.34,1.45-4.67c2.24-0.21,4.93-0.1,6.74,1
		c2.01,1.21,0.74,3.68,0.01,5.57c-6,15.57-12.01,31.14-18.02,46.7c-2.39,6.19-3.48,12.8-7.04,18.67c-2.01,3.32-1.63,7.42,2.68,9.72
		C401.71,101.12,405.25,99.7,404.23,103.15z"/>
	<path class="st8" d="M93.29,92.96c-4.2,7.36-9.61,11.35-17.51,8.99c-8.27-2.48-11.32-8.59-10.03-18.01
		c1.62-11.83,10.62-22.1,21.96-24.69c4.64-1.06,9.21-1.51,12.45,3.51c3.35,5.19,1.63,9.74-1.75,13.58
		c-5.15,5.85-11.81,9.5-19.65,10.55c-3.11,0.42-7.02-0.4-6.13,4.81c0.85,4.99,3.99,6.44,8.9,6.06
		C85.82,97.43,87.45,91.9,93.29,92.96z"/>
	<path class="st9" d="M575.58,87.24c-0.85,3.27-7.59,3.85-5.08,7.84c3.19,5.07,8.59,6.98,15.09,3.49c-3.29,6.68-8.8,7.67-14.73,6.22
		c-6.39-1.55-10.87-9.67-9.17-15.9c2.37-8.67,6.87-16.24,13.09-22.66c4.8-4.97,14.85-5.8,18.55-1.93
		c3.95,4.14,1.83,11.67-4.95,16.76c-2.8,2.1-4.63,6.55-9.45,4.46c-0.94-6.18,6.31-7.99,7.34-15.48
		C580.19,75.62,574.37,78.98,575.58,87.24z"/>
	<path class="st10" d="M346.68,59.14c4.68,0.64,8.76,2.25,10.96,6.55c2.16,4.24,0.34,7.91-2.44,11.23
		c-4.39,5.24-10.65,7.03-16.81,8.77c-2.41,0.68-4.58,0.72-4.51,3.99c0.05,2.57-1.09,5.44,1.69,7.24c2.48,1.6,5.06,1.14,7.46-0.36
		c0.74-0.46,1.28-1.37,2.06-1.61c2.82-0.88,5.34-6.74,7.7-3.25c3,4.45-3.23,5.61-5.92,7.59c-4.21,3.11-9.19,4.6-14.02,1.81
		c-5.08-2.93-6.5-8.16-6.1-13.71c0.5-7.12,2.78-13.83,6.12-20.06C335.75,61.95,341.22,60.32,346.68,59.14z"/>
	<path class="st11" d="M538.62,68.39c-1.66-3.32-4.03-0.84-6.11-0.75c2.76-5.94,7.63-10.3,11.62-15.29c5.44-6.79,8-14.14,6.93-22.82
		c-0.24-1.97-0.01-4.11,0.51-6.05c0.54-2.04,1.91-3.81,4.37-3.56c2.91,0.29,3.88,2.46,3.73,5.03c-0.27,4.37-1.32,8.82,5.77,8.42
		c1.88-0.11,3.29,2.47,2.97,4.74c-0.29,2.05-1.61,5.05-3.23,4.73c-9.52-1.87-9.96,6.71-13.82,11.35c-1.87,2.25-4.02,4.3-4.24,7.47
		C544.76,64.5,542.5,67.47,538.62,68.39z"/>
	<path class="st12" d="M546.92,61.42c3.27-2.17,6.84-4.32,10.29-0.99c3.08,2.97-0.86,5.32-1.8,7.73c-2.97,7.6-6.67,14.92-9.66,22.52
		c-1.1,2.8-3.52,6.14-0.97,9.08c2.59,2.98,5.96-0.1,10.56-0.03c-2.49,5.06-5.64,7.38-10.25,5.76c-6.32-2.21-9.24-6.96-7.31-13.8
		c2.33-8.26,4.49-16.61,9.55-23.78C547.11,65.75,545.16,63.7,546.92,61.42z"/>
	<path class="st13" d="M575.58,87.24c-4.04-0.06-4.08-1.97-2.83-5.21c2.43-6.27,8.61-12.14,16.5-14.8
		c1.16,8.84-6.91,12.28-10.32,18.28C577.82,86.09,576.7,86.67,575.58,87.24z"/>
	<path class="st13" d="M546.92,61.42c0.08,2.17,3.85,4.1,0.42,6.49c-4.89-3.13-6.22,4.05-10.21,3.53c0.5-1.02,0.99-2.03,1.49-3.05
		c3.23-1.75,4.15-6.42,8.5-6.73C547.12,61.66,546.92,61.42,546.92,61.42z"/>
	<path class="st14" d="M404.23,103.15c-1.18-1.1-2.35-2.21-3.53-3.31c3.37-1.13,6.74-2.25,10.88-3.64
		C410.52,101.1,407.42,102.17,404.23,103.15z"/>
	<path class="st13" d="M283.47,91.9c0.88-7,2.17-13.88,5.81-20.09c2.32-3.95,5.4-6.75,10.01-7.89c8.7-2.16,10.6-0.2,8.67,8.57
		c-2.28,10.36-6.71,19.16-16.26,24.59c-1.98,1.12-4.17,2.48-6.58,1.14C282.46,96.74,283.49,94.15,283.47,91.9z"/>
	<path class="st13" d="M433.46,94.59c1.94-9.92,5.3-18.45,12.81-24.72c1.8-1.5,4.3-2.7,6.44-1.28c2.47,1.64,1.09,4.17,0.29,6.34
		c-2.53,6.81-5.17,13.57-7.59,20.42c-1.48,4.17-4.76,4.79-8.39,4.55C433.22,99.64,433.8,96.51,433.46,94.59z"/>
	<path class="st13" d="M204.48,65.43c1.93-0.45,3.37-0.34,4.25,1.08c1.3,2.09,0.32,4.24-0.97,5.61c-4.32,4.55-9.96,6.8-16.03,7.89
		c-2.75,0.49-4.15-1.05-2.33-3.44C193.39,71.3,197.07,65.38,204.48,65.43z"/>
	<path class="st13" d="M77.7,80.98c-4.1,0.77-3.99-1.39-2.53-4.32c1.82-3.66,4.14-6.89,7.16-9.74c4.36-4.12,9.9-6.27,13.45-1.22
		c3.1,4.41-2.1,8.22-5.73,11.02C86.53,79.44,82.47,80.97,77.7,80.98z"/>
	<path class="st13" d="M334.56,82.06c1.35-6.45,3.62-11.5,7.92-15.33c2.53-2.26,5.89-3.58,8.79-1.14c3.34,2.82,1.16,6.12-0.88,8.53
		C346.55,78.64,342,82.23,334.56,82.06z"/>
</g>
</svg>
