<?xml version="1.0" encoding="utf-8"?>
<!-- Generator: Adobe Illustrator 26.3.1, SVG Export Plug-In . SVG Version: 6.00 Build 0)  -->
<svg version="1.1" id="Calque_1" xmlns="http://www.w3.org/2000/svg" xmlns:xlink="http://www.w3.org/1999/xlink" x="0px" y="0px"
	 viewBox="0 0 231 167.6" style="enable-background:new 0 0 231 167.6;" xml:space="preserve">
<style type="text/css">
	.st0{fill:#18375F;}
	.st1{fill:#FFFFFF;}
</style>
<g>
	<g>
		<path class="st0" d="M198.4,36c3.8-1.8,6.4-5.4,8.9-8.6c2.8-3.6,5.5-7.2,7.9-11c-0.9-0.5-1.7-1-2.6-1.5
			c-3.5,7.4-7.4,14.7-11.7,21.6c-1,1.6,1.6,3.1,2.6,1.5c4.4-7,8.3-14.2,11.7-21.6c0.8-1.7-1.5-3.1-2.6-1.5
			c-2.3,3.6-4.8,7.1-7.5,10.4c-2.3,3-4.7,6.5-8.2,8.1C195.2,34.3,196.7,36.9,198.4,36L198.4,36z"/>
	</g>
</g>
<g>
	<path class="st0" d="M39,82c-2.5-1.8-4.9-3.8-7.2-5.8c-0.3-0.3-0.6-0.6-0.7-1c0-0.3,0.1-0.7,0.3-1c1.2-2,3.1-3.6,5.2-4.6
		c1.9,3.5,5.3,6.2,9.2,7c3.9,0.8,8.2-0.7,10.6-3.8c0.8-1,1.5-2.3,2.8-2.6c2.4-0.6,4.2,2.7,6.6,2.7c-1.3,2.8-3.4,5.2-4.9,7.9
		c-5,8.7-4.3,19.5-3.4,29.5c-7.9-0.1-15.7-0.2-23.6-0.3c1.4-9.3,2.8-18.6,4.2-28"/>
</g>
<g>
	<path class="st0" d="M93.9,30c-2.1,3.3-4.6,6.3-7.4,9.1c2.6,1.9,5.3,4,6.5,7c1.6,4,0.2,8.5-0.9,12.7c-1.6,6-2.5,12.2-2.8,18.4
		c8.5,0.3,16.9,0.4,25.4,0.2c0.5,0,1.1,0,1.5-0.4c0.4-0.4,0.4-1.1,0.4-1.6c-0.3-6.4-1-12.7-2-19c-0.6-3.6-1-8,1.8-10.3
		c1.8-1.5,4.5-1.7,6-3.5c1.1-1.4,1.1-3.4,0.5-5.1s-1.8-3.1-3-4.4c-4,1.8-7.3,5.2-11.6,5.6c-3,0.3-6-1.2-8.3-3.2
		c-2.3-2-4-4.6-5.7-7.1"/>
</g>
<g>
	<path class="st0" d="M132.9,57.3c-1.7,1.9-3,4.1-3.8,6.5c-0.1,0.4-0.3,0.9-0.1,1.3c0.2,0.5,0.9,0.6,1.4,0.9c2.3,1,2.6,4,2.6,6.5
		c0,5,0,9.9,0,14.8c4.8,0.1,9.6-0.1,14.4-0.6c0.9-0.1,1.8-0.3,2.3-1c0.4-0.5,0.3-1.2,0.3-1.9c-0.3-3.8-0.5-7.5-0.8-11.3
		c-0.2-2.4-0.1-5.4,2-6.7c1.5-0.9,4-1.1,4.1-2.8c0-0.6-0.3-1.2-0.6-1.8c-1.2-2-2.4-4-3.5-6c-2.7-0.3-4.3,3-6.9,3.8
		c-3.7,1.1-6.9-3.4-10.8-3.7"/>
</g>
<g>
	<path class="st0" d="M168,35.7c-2.4,2.7-4.7,5.3-7,8c3.4,1.2,5.9,4.2,7.3,7.5s1.7,7,1.5,10.5c-0.2,5.4-1.4,10.7-3.4,15.6
		c6.9-0.3,13.8-0.5,20.7-0.8c0-6,0.5-12,1.6-17.9c0.4-2.1,0.8-4.2,2-6c1.5-2.1,3.8-3.4,5.9-5c1.8-1.4,3.3-2.9,4.6-4.7
		c0.3-0.4,0.6-0.9,0.5-1.4c-0.1-0.4-0.3-0.7-0.5-0.9c-1.6-1.9-3.3-3.9-4.9-5.8c-3.8,1.3-7,3.9-9,7.4c-0.5,0.9-1,1.8-1.7,2.5
		c-1.8,1.6-4.6,1.1-6.5-0.2c-2-1.3-3.3-3.3-4.9-5c-1.6-1.7-3.8-3.2-6.1-3.1"/>
</g>
<path class="st0" d="M49,61c-3.1-1.4-6.3,0.9-7.2,4c-0.5,1.6-0.4,3.3-0.2,5c0.1,0.9,0.2,1.8,0.9,2.5c0.6,0.7,1.5,1,2.3,1.3
	c3,1.1,6.5,1.3,9.2-0.7c2.7-2,3.4-5.4,2-8.4c-1.5-3.3-5.1-4.9-8.5-5.1c-0.8-0.1-1.5,0.7-1.5,1.5c0,0.9,0.7,1.4,1.5,1.5
	c1.9,0.1,4,0.9,5.2,2.4c0.6,0.8,1,1.7,1,2.5c0,0.9-0.2,1.7-0.7,2.4c-1.2,1.5-3.3,2-5.3,1.6c-0.6-0.1-1.2-0.3-1.8-0.5
	c-0.3-0.1-1.1-0.4-1.2-0.5c0,0.1-0.1-0.3-0.1-0.3c0-0.3,0-0.5-0.1-0.8c0-0.7-0.1-1.3,0-2c0-1.1,0.3-2.3,1-3c0.3-0.3,0.7-0.5,1-0.7
	c0.1,0,0.2-0.1,0.3-0.1c0.1,0,0.1,0,0,0c0.1,0,0.2,0,0.2,0c0,0,0.4,0,0.2,0c-0.2,0,0.5,0.2,0.2,0c0.7,0.3,1.6,0.2,2-0.5
	C49.9,62.4,49.7,61.4,49,61L49,61z"/>
<path class="st0" d="M105,27c0.4-0.1,0.8-0.1,1.2-0.1c0.1,0,0.1,0,0.2,0c0.2,0-0.2,0,0,0c0.2,0,0.4,0.1,0.6,0.1
	c0.6,0.2,1.1,0.5,1.5,0.9c0.1,0.1,0.1,0.1,0.2,0.2c0.2,0.2-0.1-0.2,0,0c0.1,0.1,0.2,0.3,0.3,0.4c0,0.1,0.2,0.5,0.1,0.3
	c0.1,0.2,0.1,0.4,0.2,0.6c0,0.1,0,0.1,0,0.2c-0.1-0.3,0-0.1,0,0c0,0.2,0,0.4,0,0.5c0,0.1,0,0.3,0,0c0,0.1,0,0.2,0,0.3
	c0,0.2-0.1,0.3-0.2,0.5c0.1-0.3-0.1,0.1-0.1,0.2c0,0.1-0.3,0.4-0.1,0.2c-0.2,0.2-0.5,0.5-0.7,0.7c0.2-0.2-0.1,0.1-0.2,0.1
	c-0.1,0.1-0.3,0.2-0.4,0.2c-0.1,0.1-0.3,0.1-0.4,0.2c-0.3,0.1-0.1,0,0,0c-0.1,0-0.2,0.1-0.3,0.1c-0.3,0.1-0.6,0.2-1,0.3
	c-0.2,0-0.3,0.1-0.5,0.1c-0.1,0-0.2,0-0.3,0.1c0,0-0.4,0.1-0.2,0c0.2,0-0.3,0-0.4,0c-0.2,0-0.4,0-0.6,0c-0.1,0-0.2-0.1,0,0
	c-0.1,0-0.2-0.1-0.3-0.1c0,0,0.2,0.1,0,0c-0.1-0.1-0.2-0.2-0.1,0c-0.2-0.2-0.1-0.1,0,0c-0.2-0.2,0,0.1,0-0.1c0-0.2-0.1-0.4-0.1-0.6
	c0,0.1,0,0.3,0,0c0-0.1,0-0.2,0-0.3c0-0.2,0-0.4,0-0.6c0-0.2,0-0.4,0-0.5c0-0.3,0-0.1,0,0c0-0.1,0-0.2,0.1-0.3
	c0-0.1,0.1-0.2,0.1-0.2c0-0.2-0.1,0.2,0,0c0.1-0.2,0-0.1,0,0c0.1-0.1,0.3-0.3,0.1-0.1c0.6-0.4,1-1.3,0.5-2.1c-0.4-0.6-1.4-1-2-0.5
	c-1,0.7-1.5,1.7-1.6,3c-0.1,0.9-0.1,2,0.2,2.9c0.3,1.2,1.3,2.2,2.6,2.4c1.1,0.2,2.2,0.1,3.2-0.2c1.9-0.4,3.8-1.4,4.9-3.1
	c1.2-1.8,1.2-4.3,0-6.1c-1.4-2.1-4-3.2-6.5-2.9c-0.8,0.1-1.5,0.6-1.5,1.5C103.5,26.3,104.2,27.1,105,27L105,27z"/>
<path class="st0" d="M145,44.6c-2.6-0.6-4.8,1.5-5.3,3.9c-0.2,1.2-0.2,2.4-0.2,3.5c0,1,0.2,2,0.6,3c0.4,1,1.2,1.9,2.2,2.3
	c1.2,0.5,2.5,0.3,3.7-0.3c1-0.5,1.9-1.3,2.7-2.1c0.9-0.9,1.6-1.9,2.1-3c0.9-2.3,0-5.3-2.6-6c-0.8-0.2-1.7,0.3-1.9,1
	c-0.2,0.8,0.2,1.6,1,1.9c0.1,0,0.2,0,0.2,0.1c0,0-0.3-0.1,0,0c0,0,0.2,0.1,0,0c-0.1-0.1,0,0,0.1,0.1c0,0,0.2,0.2,0.1,0.1
	c-0.1-0.1,0,0,0,0c0,0.1,0.1,0.1,0.1,0.2c0.1,0.2,0-0.1,0,0c0,0.1,0.1,0.3,0.1,0.4c0.1,0.3,0,0,0,0c0,0.1,0,0.2,0,0.2
	c0,0.1,0,0.5,0,0.3c0-0.2,0,0.1,0,0.1c0,0.1-0.1,0.2-0.1,0.4c0,0-0.1,0.3,0,0.1c0,0.1-0.1,0.1-0.1,0.2c-0.1,0.2-0.2,0.3-0.3,0.5
	c-0.1,0.1-0.1,0.2-0.2,0.3c0,0-0.2,0.2,0,0.1c-0.1,0.2-0.3,0.3-0.4,0.5c-0.3,0.3-0.5,0.6-0.8,0.9c-0.1,0.1-0.3,0.2-0.4,0.4
	c-0.1,0.1-0.2,0.1-0.2,0.2c-0.4,0.3,0.1-0.1-0.1,0.1c-0.1,0.1-0.3,0.2-0.5,0.3c0,0-0.5,0.3-0.3,0.2c-0.2,0.1-0.3,0.1-0.5,0.2
	c0,0-0.3,0-0.2,0c0.2,0-0.2,0-0.2,0c0.3,0-0.2-0.1-0.1,0c0.1,0-0.4-0.2-0.2-0.1c0.1,0.1-0.1-0.1-0.2-0.2c0.2,0.2-0.1-0.2-0.1-0.2
	c0,0-0.1-0.1-0.1-0.2c0.1,0.3,0,0.1,0,0c0-0.2-0.1-0.3-0.1-0.5c0-0.1-0.1-0.3-0.1-0.5c0-0.2,0,0,0,0.1c0-0.1,0-0.3,0-0.4
	c-0.1-0.8-0.1-1.5,0-2.3c0-0.8,0.1-1.5,0.6-2.2c-0.1,0.2,0,0,0,0c0.1-0.1,0.2-0.2,0.3-0.3c0.2-0.2-0.2,0.1,0,0
	c0.1-0.1,0.2-0.1,0.3-0.2c0.1,0,0.2-0.1,0,0c0.1,0,0.2,0,0.3-0.1c-0.3,0.1,0,0,0,0c0,0,0.1,0,0.1,0c-0.2,0-0.2,0,0,0
	c0.8,0.2,1.7-0.2,1.9-1C146.2,45.7,145.8,44.8,145,44.6L145,44.6z"/>
<path class="st0" d="M182.6,24.4c-2.6,0.5-4.6,2.6-5.3,5.1c-0.8,2.6,0,5.5,2,7.4c2.1,2,5.6,2.6,8.1,0.9c2.3-1.6,3.3-4.7,2.4-7.3
	c-1-3.1-4.3-5-7.5-4.7c-0.8,0.1-1.5,0.6-1.5,1.5c0,0.8,0.7,1.6,1.5,1.5c1.8-0.2,3.6,0.5,4.4,2c0,0.1,0.2,0.5,0.2,0.3
	c0.1,0.2,0.1,0.5,0.2,0.7c0,0,0,0.3,0,0.1c0,0.1,0,0.2,0,0.3c0,0.3,0,0.6,0,0.8c0,0.3,0.1-0.3,0,0.1c0,0.1,0,0.2-0.1,0.3
	s0,0.2-0.1,0.3c0,0-0.2,0.4-0.1,0.2c-0.1,0.3-0.4,0.7-0.6,0.9c-0.6,0.6-1.4,0.9-2.2,0.9c-0.6,0-0.7,0-1.2-0.2
	c-0.3-0.1-0.2-0.1-0.5-0.2c-0.1-0.1-0.2-0.1-0.3-0.2c0,0-0.4-0.2-0.2-0.1c-0.2-0.1-0.4-0.3-0.5-0.5c-0.1-0.1-0.2-0.2-0.3-0.3
	c0,0-0.2-0.2-0.1-0.1c-0.1-0.2-0.3-0.4-0.4-0.6c-0.1-0.1-0.1-0.2-0.2-0.4c0.1,0.2-0.1-0.2-0.1-0.2c-0.3-0.8-0.3-1.5-0.2-2.2
	c0.2-0.9,0.6-1.7,1.1-2.3c0.2-0.2,0.4-0.4,0.6-0.5c0,0-0.2,0.1,0,0c0.1-0.1,0.2-0.2,0.4-0.2c0.1-0.1,0.2-0.1,0.2-0.1
	c0.3-0.2-0.1,0,0.2-0.1c0.3-0.1,0.5-0.2,0.8-0.2c0.8-0.1,1.2-1.1,1-1.9C184.2,24.6,183.4,24.3,182.6,24.4L182.6,24.4z"/>
<g>
	<g>
		<path class="st0" d="M86.4,31.9c-3.3-3.3-6.1-7-8.9-10.8c-1.4-1.9-2.8-3.8-4.2-5.7c-1.3-1.8-2.5-3.6-2.9-5.8
			c-0.8,0.5-1.7,1-2.5,1.5c3.5,3.9,7,7.8,10.5,11.6c1.6,1.7,3.1,3.5,4.8,5.1c1.8,1.6,3.9,2.9,5.7,4.4c1.5,1.2,3.6-0.9,2.1-2.1
			c-1.8-1.5-3.8-2.7-5.6-4.3c-1.8-1.6-3.4-3.4-5-5.2c-3.5-3.9-7-7.8-10.5-11.6C69,7.7,67.3,9,67.6,10.4c0.4,2.2,1.5,4.2,2.9,6.1
			c1.5,2.1,3,4.1,4.5,6.2c2.9,4,5.9,7.9,9.3,11.4C85.6,35.4,87.8,33.3,86.4,31.9L86.4,31.9z"/>
	</g>
</g>
<g>
	<g>
		<path class="st0" d="M126.1,33.1c8.6-5,14.9-13.6,17-23.4c0.4-1.9-2.5-2.7-2.9-0.8c-1.9,9-7.6,16.9-15.6,21.6
			C122.9,31.5,124.4,34.1,126.1,33.1L126.1,33.1z"/>
	</g>
</g>
<g>
	<g>
		<path class="st0" d="M130.5,55c-2.7-2.5-5.4-5.1-8.1-7.6c-0.6-0.5-1.6-0.6-2.1,0c-0.5,0.6-0.6,1.5,0,2.1c2.7,2.5,5.4,5.1,8.1,7.6
			c0.6,0.5,1.6,0.6,2.1,0C131.1,56.5,131.1,55.5,130.5,55L130.5,55z"/>
	</g>
</g>
<g>
	<g>
		<path class="st0" d="M158.6,56.4c2.4-1.2,4.6-2.9,6.4-5c0.5-0.6,0.6-1.5,0-2.1c-0.6-0.5-1.6-0.6-2.1,0c-0.8,1-1.8,1.8-2.8,2.6
			c-0.2,0.1,0.2-0.2,0.1,0c-0.1,0-0.1,0.1-0.2,0.1c-0.1,0.1-0.2,0.2-0.4,0.3c-0.3,0.2-0.5,0.4-0.8,0.5c-0.5,0.3-1.1,0.7-1.7,1
			c-0.7,0.4-1,1.4-0.5,2C157,56.6,157.8,56.8,158.6,56.4L158.6,56.4z"/>
	</g>
</g>
<g>
	<g>
		<path class="st0" d="M166.1,35.5c-2.4-4.1-5.7-7.6-8.3-11.4c-2.5-3.8-4.7-7.9-5.1-12.6c-0.1-1.9-3.1-1.9-3,0
			c0.3,5.1,2.7,9.5,5.8,13.3c3.1,3.9,6.7,7.7,10.7,10.7c1.5,1.2,3-1.4,1.5-2.6c-3.5-2.7-6.7-6.2-9.5-9.5c-2.9-3.4-5.3-7.4-5.5-11.9
			c-1,0-2,0-3,0c0.4,4.9,2.4,9.3,5,13.4c2.7,4.2,6.3,7.8,8.8,12.1C164.5,38.7,167.1,37.2,166.1,35.5L166.1,35.5z"/>
	</g>
</g>
<g>
	<g>
		<path class="st0" d="M31.4,67.7c-6.6-5.8-10.5-14.3-10.5-23.1c0-1.9-3-1.9-3,0c0,9.6,4.2,18.9,11.4,25.2
			C30.7,71.1,32.8,69,31.4,67.7L31.4,67.7z"/>
	</g>
</g>
<g>
	<g>
		<path class="st0" d="M67.2,68.6c6.2-5.9,10.4-13.8,11.8-22.2c0.3-1.9-2.6-2.7-2.9-0.8c-1.3,8-5.2,15.3-11,20.9
			C63.7,67.9,65.8,70,67.2,68.6L67.2,68.6z"/>
	</g>
</g>
<g>
	<path class="st1" d="M170.2,78.5c-2.9,15.8-6.6,31.5-11,46.9c3.6-7.5,7.2-15.1,10.8-22.7c3.5-7.3,7.1-14.8,8.1-22.9
		c1.2,16.8,3.7,33.5,7.5,49.9c1.8-17.8,2.5-35.8,2-53.7c-5.1-0.8-10.4-1-15.6-0.6"/>
	<g>
		<path class="st0" d="M168.8,78.1c-3,15.8-6.6,31.5-11,46.9c-0.5,1.6,2,2.7,2.7,1.2c3.7-7.8,7.4-15.5,11.1-23.3
			c3.5-7.2,6.9-14.6,8-22.6c-1-0.1-2-0.3-3-0.4c1.3,16.9,3.8,33.7,7.5,50.3c0.4,1.8,2.8,1.2,3-0.4c1.8-17.8,2.4-35.8,2-53.7
			c0-0.6-0.5-1.4-1.1-1.5c-5.3-0.8-10.6-1.1-16-0.7c-1.9,0.1-1.9,3.1,0,3c5.1-0.4,10.2-0.2,15.2,0.6c-0.4-0.5-0.7-1-1.1-1.5
			c0.4,17.9-0.2,35.9-2,53.7c1-0.1,2-0.3,3-0.4c-3.7-16.3-6.2-32.8-7.4-49.5c-0.1-1.6-2.7-2.2-3-0.4c-1.1,7.9-4.4,15.2-7.9,22.3
			c-3.6,7.6-7.3,15.2-10.9,22.9c0.9,0.4,1.8,0.8,2.7,1.2c4.4-15.5,8.1-31.1,11-46.9C172,77,169.1,76.2,168.8,78.1L168.8,78.1z"/>
	</g>
</g>
<g>
	<path class="st1" d="M98.1,76.3c-4.8,19.2-9.8,38.4-15,57.5c6.5-6.2,9.8-14.9,12.4-23.5c2.6-8.5,4.7-17.4,9.4-25
		c0.6,10.3,1.2,20.9,5.7,30.1c3.2,6.6,8.3,12.2,11.3,19c-6.3-18.4-3.1-38.9-8.3-57.6c-0.1-0.3-0.2-0.8,0.1-1s0.6,0.5,0.3,0.5"/>
	<g>
		<path class="st0" d="M96.7,75.9c-4.8,19.2-9.8,38.4-15,57.5c-0.4,1.5,1.4,2.5,2.5,1.5c13.5-13,12.6-33.5,22-48.8
			c-0.9-0.2-1.9-0.5-2.8-0.8c0.5,9,1,18.2,4.2,26.6c3.1,8.4,9.4,15,13.1,23.2c0.7,1.5,3.3,0.5,2.7-1.2c-5-14.6-4-30.2-5.9-45.3
			c-0.3-2.1-0.6-4.3-1-6.4c-0.2-1-0.4-2.1-0.6-3.1c-0.1-0.5-0.2-1-0.4-1.5c-0.1-0.2-0.1-0.4-0.2-0.7c0-0.1-0.1-0.3-0.1-0.4
			c-0.1-0.6-0.4-0.4-0.8,0.6c-0.4,0-0.8-0.1-1.2-0.1c-0.2-0.3-0.3-0.6-0.5-0.9c0.4-0.5,0.7-1,1.1-1.5c0,0-0.1,0-0.1,0
			c-1.8,0.7-1,3.6,0.8,2.9c0,0,0.1,0,0.1,0c0.6-0.2,1.1-0.7,1.1-1.5c0.1-1.8-2.2-2.6-3.2-1.1c-0.5,0.7-0.4,1.5-0.2,2.3
			c0.3,1.1,0.6,2.2,0.8,3.3c1,4.4,1.5,8.8,1.9,13.2c0.8,8.8,1,17.6,2.2,26.4c0.7,4.9,1.7,9.8,3.3,14.5c0.9-0.4,1.8-0.8,2.7-1.2
			c-3.5-7.9-9.8-14.3-12.8-22.5c-3.1-8.3-3.6-17.1-4.1-25.9c-0.1-1.5-2-2.1-2.8-0.8c-4.9,7.9-7,17-9.7,25.7
			c-2.5,8.1-5.6,16.4-11.9,22.4c0.8,0.5,1.7,1,2.5,1.5c5.2-19.1,10.2-38.3,15-57.5C100,74.8,97.2,74,96.7,75.9L96.7,75.9z"/>
	</g>
</g>
<g>
	<path class="st1" d="M137,87.9c0.2,7,0.3,14,0.5,21c0.1,2.6,0.1,5.3-0.2,8c-0.5,3.7-1.7,7.3-2,11c4.2-5.3,3.3-13.4,7.6-18.6
		c1.4,1.1,1,3.2,0.9,5c-0.3,5.3,3.2,10.6,8.1,12.4c-1.5-3.4-3.1-6.8-3.6-10.4c-0.4-2.5-0.3-5.1-0.3-7.7c0.2-7.9,0.4-15.8,0.6-23.7"
		/>
	<g>
		<path class="st0" d="M135.5,87.9c0.1,6.9,0.3,13.7,0.5,20.5c0.1,3.2,0.2,6.5-0.4,9.6c-0.6,3.3-1.5,6.5-1.8,9.8
			c-0.1,1.7,2,1.8,2.8,0.8c2-2.7,3-5.9,3.8-9.1c0.8-3.1,1.5-6.5,3.6-9.1c-0.7,0-1.4,0-2.1,0c1.2,1.1,0.4,3.6,0.5,5
			c0.1,1.8,0.5,3.6,1.3,5.3c1.6,3.5,4.5,6.1,8,7.5c1.4,0.5,2.2-1.1,1.7-2.2c-1.4-3-2.7-6.1-3.4-9.3c-0.7-3.4-0.4-7-0.3-10.4
			c0.2-7.1,0.4-14.2,0.5-21.2c0-1.9-3-1.9-3,0c-0.2,7.4-0.4,14.8-0.6,22.2c-0.1,3.5-0.2,7,0.5,10.4s2.2,6.7,3.6,9.8
			c0.6-0.7,1.1-1.5,1.7-2.2c-3.2-1.2-5.7-4.1-6.6-7.4c-0.5-1.6-0.4-3.2-0.3-4.9c0.1-1.7-0.1-3.5-1.5-4.7c-0.5-0.5-1.6-0.6-2.1,0
			c-2.2,2.8-3.2,6-4.1,9.4c-0.9,3.3-1.6,6.7-3.7,9.5c0.9,0.2,1.9,0.5,2.8,0.8c0.3-3.3,1.3-6.4,1.8-9.7c0.5-3.2,0.5-6.5,0.4-9.8
			c-0.1-6.9-0.3-13.7-0.5-20.5C138.5,85.9,135.5,85.9,135.5,87.9L135.5,87.9z"/>
	</g>
</g>
<g>
	<path class="st1" d="M40.1,113.7c0.2,17.8-2.8,35.6-8.6,52.4c3.5-1.6,5.4-5.5,7-9.1c5.3-12,10.2-24.2,14.7-36.6
		c1.3,7.3,2.6,14.7,5.1,21.7c2.5,7,6.3,13.7,11.9,18.6c1.1-5.1-1.7-10.1-3.9-14.9c-5.2-11.3-7.5-24-6.6-36.4
		c-6.6,0.4-13.2,0.7-19.8,1"/>
	<g>
		<path class="st0" d="M38.6,113.7c0.2,17.7-2.8,35.3-8.6,52c-0.5,1.3,1.1,2.2,2.2,1.7c3.3-1.6,5.3-4.7,6.8-7.9
			c1.9-4,3.6-8.2,5.4-12.3c3.6-8.7,7-17.5,10.3-26.3c-1,0-1.9,0-2.9,0c2.6,14.7,5.7,30.6,17.4,41c0.8,0.7,2.3,0.5,2.5-0.7
			c0.8-4.5-0.6-8.7-2.5-12.7c-1.8-4-3.6-8-4.9-12.3c-2.6-8.6-3.6-17.6-3-26.6c0-0.8-0.7-1.5-1.5-1.5c-6.6,0.4-13.2,0.7-19.8,1
			c-1.9,0.1-1.9,3.1,0,3c6.6-0.4,13.2-0.7,19.8-1c-0.5-0.5-1-1-1.5-1.5c-0.6,8.8,0.3,17.6,2.7,26.1c1.2,4.2,2.8,8.3,4.6,12.3
			c1.8,3.9,4,8.1,3.1,12.5c0.8-0.2,1.7-0.4,2.5-0.7c-11.3-10-14.1-25.5-16.6-39.7c-0.3-1.6-2.4-1.2-2.9,0c-3,8.4-6.3,16.7-9.7,25
			c-1.7,4-3.4,8-5.1,12c-1.4,3.1-3,6.3-6.2,7.9c0.7,0.6,1.5,1.1,2.2,1.7c5.9-16.9,8.8-34.9,8.7-52.8
			C41.6,111.8,38.6,111.8,38.6,113.7L38.6,113.7z"/>
	</g>
</g>
</svg>
