<svg width="64" height="64" viewBox="0 0 64 64" fill="none" xmlns="http://www.w3.org/2000/svg">
<path d="M32 2C15.432 2 2 15.432 2 32C2 48.569 15.432 62 32 62C48.568 62 62 48.568 62 32C62 15.432 48.568 2 32 2ZM56 32C56.006 37.3297 54.2303 42.5084 50.955 46.713L41.609 37.367V18.775C41.609 16.688 39.888 14.997 37.765 14.997H26.233C24.309 14.997 22.729 16.391 22.448 18.205L17.287 13.045C21.4913 9.76934 26.6702 7.99352 32 8C45.254 8 56 18.745 56 32ZM24.312 42.959V28.554L38.715 42.959H24.312V42.959ZM33.152 45.969C33.152 46.594 32.637 47.102 32 47.102C31.363 47.102 30.847 46.594 30.847 45.969C30.847 45.344 31.364 44.836 32 44.836C32.637 44.836 33.152 45.344 33.152 45.969ZM24.312 20.069V18.775H39.688V35.445L24.312 20.069V20.069ZM29.639 16.849C29.639 16.588 29.854 16.376 30.119 16.376H33.879C34.145 16.376 34.361 16.588 34.361 16.849C34.361 17.11 34.144 17.322 33.879 17.322H30.119C29.9927 17.3225 29.8714 17.2731 29.7815 17.1845C29.6915 17.0959 29.6403 16.9753 29.639 16.849V16.849ZM8 32C7.99336 26.6705 9.76921 21.4919 13.045 17.288L22.389 26.633V45.225C22.389 47.313 24.11 49.004 26.233 49.004H37.765C39.689 49.004 41.269 47.609 41.55 45.795L46.71 50.955C42.5067 54.2305 37.3288 56.0063 32 56C18.745 56 8 45.256 8 32Z" fill="#18375F"/>
</svg>
