<svg width="24" height="24" viewBox="0 0 24 24" fill="none" xmlns="http://www.w3.org/2000/svg">
<path d="M12 2C10.0222 2 8.08879 2.58649 6.44429 3.6853C4.7998 4.78412 3.51808 6.3459 2.7612 8.17317C2.00433 10.0004 1.80629 12.0111 2.19214 13.9509C2.578 15.8907 3.5304 17.6725 4.92893 19.0711C6.32745 20.4696 8.10928 21.422 10.0491 21.8079C11.9889 22.1937 13.9996 21.9957 15.8268 21.2388C17.6541 20.4819 19.2159 19.2002 20.3147 17.5557C21.4135 15.9112 22 13.9778 22 12C22 10.6868 21.7413 9.38642 21.2388 8.17317C20.7362 6.95991 19.9996 5.85752 19.0711 4.92893C18.1425 4.00035 17.0401 3.26375 15.8268 2.7612C14.6136 2.25866 13.3132 2 12 2ZM12 20C10.4177 20 8.87103 19.5308 7.55543 18.6518C6.23984 17.7727 5.21446 16.5233 4.60896 15.0615C4.00346 13.5997 3.84503 11.9911 4.15371 10.4393C4.4624 8.88743 5.22432 7.46197 6.34314 6.34315C7.46196 5.22433 8.88743 4.4624 10.4393 4.15372C11.9911 3.84504 13.5997 4.00346 15.0615 4.60896C16.5233 5.21447 17.7727 6.23984 18.6518 7.55544C19.5308 8.87103 20 10.4177 20 12C20 14.1217 19.1571 16.1566 17.6569 17.6569C16.1566 19.1571 14.1217 20 12 20Z" fill="#18375F"/>
<path d="M13.0038 8.05869C12.8702 7.92507 12.689 7.85 12.5 7.85C12.311 7.85 12.1298 7.92507 11.9962 8.05869C11.8626 8.19231 11.7875 8.37353 11.7875 8.5625V11.7875H8.5625C8.37353 11.7875 8.19231 11.8626 8.05869 11.9962C7.92507 12.1298 7.85 12.311 7.85 12.5C7.85 12.689 7.92507 12.8702 8.05869 13.0038C8.19231 13.1374 8.37353 13.2125 8.5625 13.2125H11.7875V16.4375C11.7875 16.6265 11.8626 16.8077 11.9962 16.9413C12.1298 17.0749 12.311 17.15 12.5 17.15C12.689 17.15 12.8702 17.0749 13.0038 16.9413C13.1374 16.8077 13.2125 16.6265 13.2125 16.4375V13.2125H16.4375C16.6265 13.2125 16.8077 13.1374 16.9413 13.0038C17.0749 12.8702 17.15 12.689 17.15 12.5C17.15 12.311 17.0749 12.1298 16.9413 11.9962C16.8077 11.8626 16.6265 11.7875 16.4375 11.7875H13.2125V8.5625C13.2125 8.37353 13.1374 8.19231 13.0038 8.05869Z" fill="#18375F" stroke="#18375F" stroke-width="0.3"/>
</svg>
