<svg width="24" height="24" viewBox="0 0 24 24" fill="none" xmlns="http://www.w3.org/2000/svg">
<path d="M12 2C10.0222 2 8.08879 2.58649 6.44429 3.6853C4.7998 4.78412 3.51808 6.3459 2.7612 8.17317C2.00433 10.0004 1.80629 12.0111 2.19214 13.9509C2.578 15.8907 3.5304 17.6725 4.92893 19.0711C6.32745 20.4696 8.10928 21.422 10.0491 21.8079C11.9889 22.1937 13.9996 21.9957 15.8268 21.2388C17.6541 20.4819 19.2159 19.2002 20.3147 17.5557C21.4135 15.9112 22 13.9778 22 12C22 10.6868 21.7413 9.38642 21.2388 8.17317C20.7362 6.95991 19.9996 5.85752 19.0711 4.92893C18.1425 4.00035 17.0401 3.26375 15.8268 2.7612C14.6136 2.25866 13.3132 2 12 2V2ZM12 20C10.4177 20 8.87103 19.5308 7.55543 18.6518C6.23984 17.7727 5.21446 16.5233 4.60896 15.0615C4.00346 13.5997 3.84503 11.9911 4.15371 10.4393C4.4624 8.88743 5.22432 7.46197 6.34314 6.34315C7.46196 5.22433 8.88743 4.4624 10.4393 4.15372C11.9911 3.84504 13.5997 4.00346 15.0615 4.60896C16.5233 5.21447 17.7727 6.23984 18.6518 7.55544C19.5308 8.87103 20 10.4177 20 12C20 14.1217 19.1571 16.1566 17.6569 17.6569C16.1566 19.1571 14.1217 20 12 20V20Z" fill="#18375F"/>
<path d="M10.6864 14.4091V10.3182C10.6864 10.2401 10.6608 10.1724 10.6078 10.1195C10.5548 10.0665 10.4872 10.0409 10.4091 10.0409H9.95455C9.87645 10.0409 9.80881 10.0665 9.75584 10.1195C9.70287 10.1724 9.67727 10.2401 9.67727 10.3182V14.4091C9.67727 14.4872 9.70287 14.5548 9.75584 14.6078C9.80881 14.6608 9.87645 14.6864 9.95455 14.6864H10.4091C10.4872 14.6864 10.5548 14.6608 10.6078 14.6078C10.6608 14.5548 10.6864 14.4872 10.6864 14.4091ZM12.5045 14.4091V10.3182C12.5045 10.2401 12.479 10.1724 12.426 10.1195C12.373 10.0665 12.3054 10.0409 12.2273 10.0409H11.7727C11.6946 10.0409 11.627 10.0665 11.574 10.1195C11.521 10.1724 11.4955 10.2401 11.4955 10.3182V14.4091C11.4955 14.4872 11.521 14.5548 11.574 14.6078C11.627 14.6608 11.6946 14.6864 11.7727 14.6864H12.2273C12.3054 14.6864 12.373 14.6608 12.426 14.6078C12.479 14.5548 12.5045 14.4872 12.5045 14.4091ZM14.3227 14.4091V10.3182C14.3227 10.2401 14.2971 10.1724 14.2442 10.1195C14.1912 10.0665 14.1235 10.0409 14.0455 10.0409H13.5909C13.5128 10.0409 13.4452 10.0665 13.3922 10.1195C13.3392 10.1724 13.3136 10.2401 13.3136 10.3182V14.4091C13.3136 14.4872 13.3392 14.5548 13.3922 14.6078C13.4452 14.6608 13.5128 14.6864 13.5909 14.6864H14.0455C14.1235 14.6864 14.1912 14.6608 14.2442 14.6078C14.2971 14.5548 14.3227 14.4872 14.3227 14.4091ZM8.86818 15.4602V8.77727H15.1318V15.4602C15.1318 15.559 15.1161 15.6488 15.0853 15.7302C15.053 15.8157 15.0212 15.873 14.9916 15.9065C14.9747 15.9258 14.9617 15.9385 14.9524 15.946C14.9502 15.9478 14.9485 15.9491 14.9471 15.95H9.05286C9.05154 15.9491 9.0498 15.9478 9.04762 15.946C9.03832 15.9385 9.02534 15.9258 9.00837 15.9065C8.97877 15.873 8.94702 15.8157 8.91466 15.7302C8.88388 15.6488 8.86818 15.559 8.86818 15.4602ZM13.5164 7.76818H10.4842L10.8005 7.01298C10.8251 6.98322 10.8525 6.96624 10.8832 6.95909H13.1239C13.1546 6.96623 13.182 6.98317 13.2065 7.01284L13.5164 7.76818ZM17.05 8.5V8.04545C17.05 7.96736 17.0244 7.89972 16.9714 7.84675C16.9185 7.79377 16.8508 7.76818 16.7727 7.76818H14.6114L14.1273 6.61332C14.1273 6.61323 14.1272 6.61313 14.1272 6.61304C14.0518 6.42714 13.9166 6.27067 13.7252 6.14306C13.5337 6.01544 13.3372 5.95 13.1364 5.95H10.8636C10.6628 5.95 10.4663 6.01544 10.2748 6.14306C10.0834 6.27067 9.94824 6.42714 9.87281 6.61304C9.87277 6.61313 9.87273 6.61323 9.8727 6.61332L9.38862 7.76818H7.22727C7.14918 7.76818 7.08154 7.79377 7.02857 7.84675C6.97559 7.89972 6.95 7.96736 6.95 8.04545V8.5C6.95 8.57809 6.97559 8.64574 7.02857 8.69871C7.08154 8.75168 7.14918 8.77727 7.22727 8.77727H7.85909V15.4886C7.85909 15.8917 7.97348 16.2381 8.20392 16.5249C8.43448 16.8119 8.7156 16.9591 9.04545 16.9591H14.9545C15.2851 16.9591 15.5663 16.8065 15.7966 16.5101C16.0265 16.2141 16.1409 15.8633 16.1409 15.4602V8.77727H16.7727C16.8508 8.77727 16.9185 8.75168 16.9714 8.69871C17.0244 8.64574 17.05 8.57809 17.05 8.5Z" fill="#18375F" stroke="#18375F" stroke-width="0.1"/>
</svg>