<svg width="300" height="300" viewBox="0 0 300 300" fill="none" xmlns="http://www.w3.org/2000/svg">
<path d="M152.75 25H147.25C140.62 25 134.261 27.6339 129.572 32.3223C124.884 37.0107 122.25 43.3696 122.25 50V52.25C122.246 56.6341 121.088 60.9399 118.894 64.7355C116.7 68.5311 113.547 71.683 109.75 73.875L104.375 77C100.575 79.1942 96.2634 80.3494 91.875 80.3494C87.4866 80.3494 83.1755 79.1942 79.375 77L77.5 76C71.7633 72.6908 64.948 71.793 58.55 73.5039C52.1521 75.2147 46.6944 79.3942 43.375 85.125L40.625 89.875C37.3158 95.6117 36.418 102.427 38.1289 108.825C39.8397 115.223 44.0192 120.681 49.75 124L51.625 125.25C55.4034 127.431 58.5452 130.564 60.7381 134.335C62.931 138.107 64.0987 142.387 64.125 146.75V153.125C64.1425 157.53 62.9956 161.862 60.8005 165.681C58.6055 169.501 55.4401 172.672 51.625 174.875L49.75 176C44.0192 179.319 39.8397 184.777 38.1289 191.175C36.418 197.573 37.3158 204.388 40.625 210.125L43.375 214.875C46.6944 220.606 52.1521 224.785 58.55 226.496C64.948 228.207 71.7633 227.309 77.5 224L79.375 223C83.1755 220.806 87.4866 219.651 91.875 219.651C96.2634 219.651 100.575 220.806 104.375 223L109.75 226.125C113.547 228.317 116.7 231.469 118.894 235.265C121.088 239.06 122.246 243.366 122.25 247.75V250C122.25 256.63 124.884 262.989 129.572 267.678C134.261 272.366 140.62 275 147.25 275H152.75C159.38 275 165.739 272.366 170.428 267.678C175.116 262.989 177.75 256.63 177.75 250V247.75C177.755 243.366 178.912 239.06 181.106 235.265C183.3 231.469 186.453 228.317 190.25 226.125L195.625 223C199.425 220.806 203.737 219.651 208.125 219.651C212.513 219.651 216.825 220.806 220.625 223L222.5 224C228.237 227.309 235.052 228.207 241.45 226.496C247.848 224.785 253.306 220.606 256.625 214.875L259.375 210C262.684 204.263 263.582 197.448 261.871 191.05C260.16 184.652 255.981 179.194 250.25 175.875L248.375 174.875C244.56 172.672 241.395 169.501 239.199 165.681C237.004 161.862 235.858 157.53 235.875 153.125V146.875C235.858 142.47 237.004 138.138 239.199 134.319C241.395 130.499 244.56 127.328 248.375 125.125L250.25 124C255.981 120.681 260.16 115.223 261.871 108.825C263.582 102.427 262.684 95.6117 259.375 89.875L256.625 85.125C253.306 79.3942 247.848 75.2147 241.45 73.5039C235.052 71.793 228.237 72.6908 222.5 76L220.625 77C216.825 79.1942 212.513 80.3494 208.125 80.3494C203.737 80.3494 199.425 79.1942 195.625 77L190.25 73.875C186.453 71.683 183.3 68.5311 181.106 64.7355C178.912 60.9399 177.755 56.6341 177.75 52.25V50C177.75 43.3696 175.116 37.0107 170.428 32.3223C165.739 27.6339 159.38 25 152.75 25V25Z" stroke="black" stroke-width="25" stroke-linecap="round" stroke-linejoin="round"/>
<path d="M150 187.5C170.711 187.5 187.5 170.711 187.5 150C187.5 129.289 170.711 112.5 150 112.5C129.289 112.5 112.5 129.289 112.5 150C112.5 170.711 129.289 187.5 150 187.5Z" stroke="black" stroke-width="25" stroke-linecap="round" stroke-linejoin="round"/>
</svg>
