<svg width="64" height="64" fill="none" xmlns="http://www.w3.org/2000/svg"><path d="M44.97 2H19.03C17.015 2 15 3.936 15.001 5.871L15 58.129C15 60.064 17.015 62 19.03 62h25.94c2.016 0 4.03-1.936 4.03-3.871V5.871C49 3.936 46.985 2 44.97 2Zm-2.11 3.281c.521 0 .945.419.945.938a.943.943 0 0 1-.945.938.941.941 0 0 1-.87-1.298.94.94 0 0 1 .87-.578Zm-13.411.502h5.102c.157 0 .282.208.282.467 0 .26-.125.471-.282.471h-5.102c-.155 0-.282-.211-.282-.471 0-.258.127-.467.282-.467Zm6.093 52.701a.706.706 0 0 1-.709.703h-5.666a.707.707 0 0 1-.709-.703v-1.406c0-.389.317-.703.709-.703h5.666c.392 0 .709.314.709.703v1.406ZM46.167 54.5H17.833v-45h28.333v45h.001Z" fill="#000"/><path d="M20.593 16.531h3.125a.779.779 0 0 0 .782-.78v-3.125a.782.782 0 0 0-.782-.782h-3.125a.779.779 0 0 0-.78.782v3.125c0 .431.349.78.78.78Zm6.562 0h3.125a.779.779 0 0 0 .782-.78v-3.125a.782.782 0 0 0-.782-.782h-3.125a.779.779 0 0 0-.78.782v3.125c0 .431.35.78.78.78Zm6.563 0h3.125a.779.779 0 0 0 .782-.78v-3.125a.782.782 0 0 0-.782-.782h-3.125a.779.779 0 0 0-.78.782v3.125c0 .431.349.78.78.78Zm6.562 0h3.125a.779.779 0 0 0 .782-.78v-3.125a.782.782 0 0 0-.782-.782H40.28a.779.779 0 0 0-.78.782v3.125c0 .431.35.78.78.78ZM20.593 52.625h3.125a.779.779 0 0 0 .782-.78v-3.126a.78.78 0 0 0-.782-.781h-3.125a.78.78 0 0 0-.78.781v3.126c0 .43.349.78.78.78Zm6.562 0h3.125a.779.779 0 0 0 .782-.78v-3.126a.78.78 0 0 0-.782-.781h-3.125a.78.78 0 0 0-.78.781v3.126c0 .43.35.78.78.78Zm6.563 0h3.125a.779.779 0 0 0 .782-.78v-3.126a.78.78 0 0 0-.782-.781h-3.125a.78.78 0 0 0-.78.781v3.126c0 .43.349.78.78.78Zm6.562 0h3.125a.779.779 0 0 0 .782-.78v-3.126a.78.78 0 0 0-.782-.781H40.28a.78.78 0 0 0-.78.781v3.126c0 .43.35.78.78.78ZM20.593 34.578h3.125a.779.779 0 0 0 .782-.78v-3.126a.78.78 0 0 0-.782-.781h-3.125a.78.78 0 0 0-.78.781v3.126c0 .431.349.78.78.78Zm6.562 0h3.125a.779.779 0 0 0 .782-.78v-3.126a.78.78 0 0 0-.782-.781h-3.125a.78.78 0 0 0-.78.781v3.126c0 .431.35.78.78.78Zm6.563 0h3.125a.779.779 0 0 0 .782-.78v-3.126a.78.78 0 0 0-.782-.781h-3.125a.78.78 0 0 0-.78.781v3.126c0 .431.349.78.78.78Zm-13.125-6.015h3.125c.433 0 .782-.35.782-.781v-3.124a.782.782 0 0 0-.782-.782h-3.125a.779.779 0 0 0-.78.782v3.124a.78.78 0 0 0 .78.781Zm6.562 0h3.125c.433 0 .782-.35.782-.781v-3.124a.782.782 0 0 0-.782-.782h-3.125a.779.779 0 0 0-.78.782v3.124c0 .431.35.781.78.781Zm6.563 0h3.125c.433 0 .782-.35.782-.781v-3.124a.782.782 0 0 0-.782-.782h-3.125a.779.779 0 0 0-.78.782v3.124a.78.78 0 0 0 .78.781Zm6.562 0h3.125c.433 0 .782-.35.782-.781v-3.124a.782.782 0 0 0-.782-.782H40.28a.779.779 0 0 0-.78.782v3.124c0 .431.35.781.78.781Zm-19.687-6.015h3.125c.433 0 .782-.35.782-.782v-3.125c0-.43-.35-.78-.782-.78h-3.125a.78.78 0 0 0-.78.78v3.125a.779.779 0 0 0 .78.782Zm6.562 0h3.125c.433 0 .782-.35.782-.782v-3.125c0-.43-.35-.78-.782-.78h-3.125a.78.78 0 0 0-.78.78v3.125c0 .432.35.782.78.782Zm6.563 0h3.125c.433 0 .782-.35.782-.782v-3.125c0-.43-.35-.78-.782-.78h-3.125a.78.78 0 0 0-.78.78v3.125a.779.779 0 0 0 .78.782Zm6.562 0h3.125c.433 0 .782-.35.782-.782v-3.125c0-.43-.35-.78-.782-.78H40.28a.78.78 0 0 0-.78.78v3.125c0 .432.35.782.78.782Z" fill="#000"/></svg>