<svg width="20" height="20" viewBox="0 0 20 20" fill="none" xmlns="http://www.w3.org/2000/svg">
<g clip-path="url(#clip0_97_3258)">
<path d="M8 12H12V6H15L10 1L5 6H8V12ZM19.338 13.532C19.128 13.308 17.727 11.809 17.327 11.418C17.0467 11.1493 16.6733 10.9995 16.285 11H14.528L17.592 13.994H14.048C13.9998 13.9931 13.9523 14.0049 13.9101 14.0283C13.868 14.0516 13.8328 14.0857 13.808 14.127L12.992 16H7.008L6.192 14.127C6.16706 14.0858 6.1318 14.0519 6.08969 14.0286C6.04759 14.0052 6.00012 13.9933 5.952 13.994H2.408L5.471 11H3.715C3.318 11 2.939 11.159 2.673 11.418C2.273 11.81 0.871996 13.309 0.661996 13.532C0.172996 14.053 -0.0960038 14.468 0.0319962 14.981L0.592996 18.055C0.720996 18.569 1.284 18.991 1.845 18.991H18.157C18.718 18.991 19.281 18.569 19.409 18.055L19.97 14.981C20.096 14.468 19.828 14.053 19.338 13.532V13.532Z" fill="#F8F8F8"/>
</g>
<defs>
<clipPath id="clip0_97_3258">
<rect width="20" height="20" fill="white"/>
</clipPath>
</defs>
</svg>
