<svg width="300" height="300" viewBox="0 0 300 300" fill="none" xmlns="http://www.w3.org/2000/svg">
<path d="M212.5 262.5V237.5C212.5 224.239 207.232 211.521 197.855 202.145C188.479 192.768 175.761 187.5 162.5 187.5H62.5C49.2392 187.5 36.5215 192.768 27.1447 202.145C17.7678 211.521 12.5 224.239 12.5 237.5V262.5" stroke="black" stroke-width="25" stroke-linecap="round" stroke-linejoin="round"/>
<path d="M112.5 137.5C140.114 137.5 162.5 115.114 162.5 87.5C162.5 59.8858 140.114 37.5 112.5 37.5C84.8858 37.5 62.5 59.8858 62.5 87.5C62.5 115.114 84.8858 137.5 112.5 137.5Z" stroke="black" stroke-width="25" stroke-linecap="round" stroke-linejoin="round"/>
<path d="M287.5 262.5V237.5C287.492 226.422 283.804 215.66 277.017 206.904C270.23 198.148 260.727 191.895 250 189.125M200 39.125C210.755 41.8788 220.288 48.1338 227.095 56.9039C233.903 65.674 237.598 76.4604 237.598 87.5625C237.598 98.6646 233.903 109.451 227.095 118.221C220.288 126.991 210.755 133.246 200 136" stroke="black" stroke-width="25" stroke-linecap="round" stroke-linejoin="round"/>
</svg>
